<svg width="3840" height="1295" viewBox="0 0 3840 1295" fill="none" xmlns="http://www.w3.org/2000/svg">
<g clip-path="url(#clip0_69_28)">
<rect width="3840" height="1295" fill="#4000FF" fill-opacity="0.025"/>
<path d="M2311.68 1127V1059.16H2329.34V1127H2311.68ZM2311.68 1048.41V1034.07H2329.34V1048.41H2311.68ZM2344.17 1127V1059.16H2361.83V1069.4H2362.09C2367.85 1062.1 2376.81 1057.37 2388.84 1057.37C2403.43 1057.37 2417.64 1062.62 2417.64 1080.92V1127H2399.98V1086.55C2399.98 1079.26 2397.54 1070.94 2382.95 1070.94C2373.74 1070.94 2361.83 1076.06 2361.83 1090.52V1127H2344.17ZM2482.42 1108.06V1071.96H2468.34V1059.16H2482.42V1038.17H2500.09V1059.16H2518.52V1071.96H2500.09V1102.94C2500.09 1110.74 2500.47 1114.97 2506.49 1114.97C2510.84 1114.97 2514.93 1114.84 2519.16 1114.71V1127.51C2514.42 1128.15 2510.97 1128.54 2505.59 1128.54C2484.09 1128.54 2482.42 1120.86 2482.42 1108.06ZM2529.04 1127V1034.07H2546.71V1069.4H2546.96C2552.72 1062.1 2561.68 1057.37 2573.72 1057.37C2588.31 1057.37 2602.52 1062.62 2602.52 1080.92V1127H2584.85V1086.55C2584.85 1079.26 2582.42 1070.94 2567.83 1070.94C2558.61 1070.94 2546.71 1076.06 2546.71 1090.52V1127H2529.04ZM2697.05 1097.56H2633.05C2633.43 1105.11 2638.55 1116.76 2656.09 1116.76C2667.74 1116.76 2672.86 1112.66 2676.31 1107.03H2695.51C2691.67 1114.58 2682.46 1129.56 2656.6 1129.56C2626.01 1129.56 2614.62 1111.77 2614.62 1093.72C2614.62 1071.06 2631.39 1056.6 2655.45 1056.6C2685.53 1056.6 2697.05 1075.16 2697.05 1095V1097.56ZM2633.05 1086.3H2678.62C2676.44 1072.73 2664.41 1068.63 2655.71 1068.63C2647.51 1068.63 2635.99 1072.47 2633.05 1086.3ZM2756.34 1127V1035.61H2775.54V1071.19H2832.25V1035.61H2851.45V1127H2832.25V1085.53H2775.54V1127H2756.34ZM2891.09 1125.85L2859.47 1059.16H2878.67L2900.43 1107.67L2921.68 1059.16H2940.49L2903.5 1139.03C2898.13 1150.68 2893.77 1152.86 2879.05 1152.86C2876.11 1152.86 2871.5 1152.73 2868.05 1152.6V1139.03C2869.45 1139.16 2873.04 1139.29 2876.88 1139.29C2881.61 1139.29 2885.07 1138.26 2887.12 1134.04L2891.09 1125.85ZM2946.17 1104.47V1059.16H2963.83V1097.82C2963.83 1108.18 2966.26 1115.99 2981.37 1115.99C2989.18 1115.99 3001.98 1110.87 3001.98 1096.41V1059.16H3019.64V1127H3001.98V1117.53H3001.72C2995.96 1124.82 2987 1129.56 2974.97 1129.56C2960.38 1129.56 2946.17 1124.31 2946.17 1104.47ZM3033.92 1127V1059.16H3051.58V1069.4H3051.84C3057.6 1062.1 3066.56 1057.37 3078.59 1057.37C3093.18 1057.37 3107.39 1062.62 3107.39 1080.92V1127H3089.73V1086.55C3089.73 1079.26 3087.29 1070.94 3072.7 1070.94C3063.49 1070.94 3051.58 1076.06 3051.58 1090.52V1127H3033.92ZM3137.16 1093.34C3137.16 1104.86 3143.43 1115.99 3160.07 1115.99C3176.58 1115.99 3182.85 1104.86 3182.85 1093.34C3182.85 1082.07 3176.58 1070.94 3160.07 1070.94C3143.43 1070.94 3137.16 1082.07 3137.16 1093.34ZM3199.75 1034.07V1127H3182.08V1117.66H3181.83C3180.55 1121.75 3169.92 1129.56 3155.84 1129.56C3129.99 1129.56 3118.72 1110.74 3118.72 1093.34C3118.72 1076.18 3129.99 1057.37 3155.84 1057.37C3166.47 1057.37 3176.58 1060.7 3181.83 1068.89H3182.08V1034.07H3199.75ZM3286.88 1079.38V1111.51C3286.88 1115.22 3289.56 1115.35 3290.72 1115.35C3292.38 1115.35 3295.07 1115.22 3296.48 1114.97V1127.38C3293.02 1128.02 3289.95 1128.92 3283.93 1128.92C3272.41 1128.92 3271.13 1122.78 3270.62 1120.22C3267.16 1123.54 3258.59 1129.56 3238.75 1129.56C3221.08 1129.56 3211.1 1121.62 3211.1 1108.31C3211.1 1089.62 3230.3 1087.96 3241.56 1086.94C3266.91 1084.5 3269.6 1083.61 3269.6 1078.36C3269.6 1070.55 3260.64 1068.63 3250.4 1068.63C3238.75 1068.63 3232.48 1072.34 3231.84 1079.9H3214.56C3217.12 1062.1 3230.3 1056.6 3250.4 1056.6C3285.85 1056.6 3286.88 1070.55 3286.88 1079.38ZM3269.21 1099.74V1093.21C3264.09 1095.38 3258.59 1096.02 3246.04 1097.43C3232.73 1098.97 3229.53 1101.91 3229.53 1107.67C3229.53 1116.63 3237.72 1118.3 3243.74 1118.3C3253.21 1118.3 3269.21 1114.71 3269.21 1099.74ZM3304.68 1127V1059.16H3322.34V1127H3304.68ZM3304.68 1048.41V1034.07H3322.34V1048.41H3304.68ZM3401.24 1127L3375.51 1059.16H3394.71L3412.12 1108.82H3412.38L3428.63 1059.16H3447.06L3463.32 1108.82H3463.58L3480.98 1059.16H3500.18L3474.46 1127H3454.49L3437.98 1079.9H3437.72L3421.21 1127H3401.24ZM3580.75 1079.38V1111.51C3580.75 1115.22 3583.44 1115.35 3584.59 1115.35C3586.25 1115.35 3588.94 1115.22 3590.35 1114.97V1127.38C3586.89 1128.02 3583.82 1128.92 3577.81 1128.92C3566.29 1128.92 3565.01 1122.78 3564.49 1120.22C3561.04 1123.54 3552.46 1129.56 3532.62 1129.56C3514.96 1129.56 3504.97 1121.62 3504.97 1108.31C3504.97 1089.62 3524.17 1087.96 3535.44 1086.94C3560.78 1084.5 3563.47 1083.61 3563.47 1078.36C3563.47 1070.55 3554.51 1068.63 3544.27 1068.63C3532.62 1068.63 3526.35 1072.34 3525.71 1079.9H3508.43C3510.99 1062.1 3524.17 1056.6 3544.27 1056.6C3579.73 1056.6 3580.75 1070.55 3580.75 1079.38ZM3563.09 1099.74V1093.21C3557.97 1095.38 3552.46 1096.02 3539.92 1097.43C3526.61 1098.97 3523.41 1101.91 3523.41 1107.67C3523.41 1116.63 3531.6 1118.3 3537.61 1118.3C3547.09 1118.3 3563.09 1114.71 3563.09 1099.74ZM3621.21 1125.85L3589.59 1059.16H3608.8L3630.56 1107.67L3651.8 1059.16H3670.62L3633.63 1139.03C3628.25 1150.68 3623.9 1152.86 3609.18 1152.86C3606.24 1152.86 3601.63 1152.73 3598.17 1152.6V1139.03C3599.58 1139.16 3603.16 1139.29 3607 1139.29C3611.74 1139.29 3615.2 1138.26 3617.24 1134.04L3621.21 1125.85ZM3750.66 1061.98C3750.66 1084.63 3720.33 1085.66 3720.33 1100.38H3702.66V1098.33C3702.66 1077.46 3731.46 1077.98 3731.46 1060.82C3731.46 1050.33 3720.71 1047.51 3712.39 1047.51C3703.94 1047.51 3693.57 1051.86 3693.32 1065.18H3674.89C3675.65 1045.08 3688.71 1033.94 3713.03 1033.94C3741.83 1033.94 3750.66 1049.05 3750.66 1061.98ZM3701.51 1127V1108.82H3721.48V1127H3701.51Z" fill="#4000FF"/>
<path d="M771.904 632V586.304H774.592V606.336H794.624V586.304H797.312V632H794.624V608.768H774.592V632H771.904ZM826.02 615.232C826.02 624.896 823.844 632.768 814.628 632.768C805.796 632.768 803.62 624.896 803.62 615.232C803.62 605.632 805.796 597.76 815.012 597.76C823.844 597.76 826.02 605.632 826.02 615.232ZM823.332 615.296C823.332 605.632 821.22 599.936 814.82 599.936C808.42 599.936 806.308 605.632 806.308 615.296C806.308 624.896 808.42 630.592 814.82 630.592C821.22 630.592 823.332 624.896 823.332 615.296ZM852.118 632L845.782 601.984H845.654L839.062 632H835.99L828.822 598.528H831.51L837.462 628.544H837.59L844.182 598.528H847.253L853.59 628.544H853.718L859.734 598.528H862.422L855.19 632H852.118ZM899.116 621.056H901.804C901.804 624.192 900.076 632.768 891.436 632.768C882.796 632.768 880.62 625.152 880.62 615.104C880.62 604.032 884.012 597.76 891.884 597.76C900.012 597.76 901.612 605.696 901.612 608.128H898.924C898.924 606.08 897.58 599.936 891.82 599.936C885.612 599.936 883.308 605.632 883.308 615.232C883.308 625.664 885.612 630.592 891.82 630.592C897.964 630.592 899.116 623.552 899.116 621.056ZM924.311 606.592V627.968C924.311 629.568 924.951 630.208 925.783 630.208C926.359 630.208 926.871 630.144 927.319 629.888V631.808C926.807 632.192 925.847 632.384 924.759 632.384C923.735 632.384 921.878 631.36 921.878 628.736V626.624H921.751C920.791 630.08 917.463 632.768 912.983 632.768C907.159 632.768 904.599 628.608 904.599 623.424C904.599 618.368 906.647 615.488 911.383 614.208L918.615 612.224C921.495 611.456 921.878 610.112 921.878 607.296C921.878 601.216 919.062 599.936 915.415 599.936C909.783 599.936 908.119 603.456 908.119 608.064H905.687C905.687 603.52 907.351 597.76 915.159 597.76C922.519 597.76 924.311 601.792 924.311 606.592ZM921.878 619.392V612.48H921.751C920.919 613.824 920.023 614.016 917.527 614.72L912.599 616.064C908.695 617.152 907.286 619.456 907.286 623.424C907.286 627.776 909.207 630.592 913.431 630.592C919.127 630.592 921.878 626.112 921.878 619.392ZM931.202 632V598.528H933.634V603.584H933.762C934.914 600.64 937.73 597.76 942.274 597.76C947.01 597.76 950.722 600.448 950.722 606.784V632H948.29V607.936C948.29 601.984 945.794 599.936 941.634 599.936C936.514 599.936 933.634 604.736 933.634 610.56V632H931.202ZM993.055 632L986.719 601.984H986.591L979.999 632H976.927L969.759 598.528H972.447L978.399 628.544H978.527L985.119 598.528H988.191L994.527 628.544H994.655L1000.67 598.528H1003.36L996.127 632H993.055ZM1008.87 612.928H1025.13C1025.13 606.848 1024.17 599.936 1017.25 599.936C1009.83 599.936 1008.87 608.576 1008.87 612.928ZM1027.81 615.104H1008.87C1008.87 620.48 1008.93 630.592 1016.74 630.592C1023.78 630.592 1024.93 623.552 1024.93 621.056H1027.37C1027.37 626.176 1024.55 632.768 1017 632.768C1008.36 632.768 1006.18 625.728 1006.18 614.336C1006.18 604.096 1009.83 597.76 1017.38 597.76C1025.25 597.76 1027.81 604.288 1027.81 615.104ZM1070.02 615.232C1070.02 624.896 1067.84 632.768 1058.63 632.768C1049.8 632.768 1047.62 624.896 1047.62 615.232C1047.62 605.632 1049.8 597.76 1059.01 597.76C1067.84 597.76 1070.02 605.632 1070.02 615.232ZM1067.33 615.296C1067.33 605.632 1065.22 599.936 1058.82 599.936C1052.42 599.936 1050.31 605.632 1050.31 615.296C1050.31 624.896 1052.42 630.592 1058.82 630.592C1065.22 630.592 1067.33 624.896 1067.33 615.296ZM1077.49 632V600.704H1072.95V598.528H1077.49V592.96C1077.49 589.12 1078.9 586.304 1083.38 586.304C1084.15 586.304 1085.05 586.304 1085.88 586.496V588.672C1085.3 588.544 1084.66 588.48 1083.77 588.48C1081.65 588.48 1079.93 589.44 1079.93 592.832V598.528H1085.49V600.704H1079.93V632H1077.49ZM1090.56 632V600.704H1086.01V598.528H1090.56V592.96C1090.56 589.12 1091.96 586.304 1096.44 586.304C1097.21 586.304 1098.11 586.304 1098.94 586.496V588.672C1098.36 588.544 1097.72 588.48 1096.83 588.48C1094.72 588.48 1092.99 589.44 1092.99 592.832V598.528H1098.56V600.704H1092.99V632H1090.56ZM1118.59 607.936H1116.16V606.976C1116.16 603.968 1115.39 599.936 1109.89 599.936C1106.37 599.936 1103.43 601.728 1103.43 606.144C1103.43 609.664 1105.09 611.456 1108.42 612.736L1113.54 614.656C1117.57 616.192 1119.62 619.008 1119.62 623.552C1119.62 629.184 1115.27 632.768 1109.95 632.768C1100.67 632.768 1100.03 626.112 1100.03 622.208V621.312H1102.47V622.4C1102.47 627.136 1104.39 630.592 1109.95 630.592C1114.88 630.592 1116.93 627.328 1116.93 623.616C1116.93 620.416 1115.65 618.24 1111.94 616.768L1107.01 614.784C1102.85 613.12 1100.74 610.688 1100.74 606.4C1100.74 600.832 1104.58 597.76 1109.89 597.76C1117.31 597.76 1118.59 602.816 1118.59 606.912V607.936ZM1126.18 612.928H1142.44C1142.44 606.848 1141.48 599.936 1134.57 599.936C1127.14 599.936 1126.18 608.576 1126.18 612.928ZM1145.13 615.104H1126.18C1126.18 620.48 1126.25 630.592 1134.05 630.592C1141.09 630.592 1142.25 623.552 1142.25 621.056H1144.68C1144.68 626.176 1141.86 632.768 1134.31 632.768C1125.67 632.768 1123.49 625.728 1123.49 614.336C1123.49 604.096 1127.14 597.76 1134.69 597.76C1142.57 597.76 1145.13 604.288 1145.13 615.104ZM1147.64 600.704V598.528H1152.18V588.608H1154.61V598.528H1160.18V600.704H1154.61V626.496C1154.61 629.696 1156.15 630.208 1157.56 630.208C1158.58 630.208 1159.48 630.144 1160.57 629.824V632C1159.35 632.256 1158.07 632.384 1157.11 632.384C1153.65 632.384 1152.18 630.4 1152.18 626.752V600.704H1147.64ZM1176.07 600.704V598.528H1180.62V588.608H1183.05V598.528H1188.62V600.704H1183.05V626.496C1183.05 629.696 1184.59 630.208 1185.99 630.208C1187.02 630.208 1187.91 630.144 1189 629.824V632C1187.79 632.256 1186.51 632.384 1185.55 632.384C1182.09 632.384 1180.62 630.4 1180.62 626.752V600.704H1176.07ZM1191.89 632V586.304H1194.32V603.584H1194.45C1195.6 600.64 1198.42 597.76 1202.96 597.76C1207.7 597.76 1211.41 600.448 1211.41 606.784V632H1208.98V607.936C1208.98 601.984 1206.48 599.936 1202.32 599.936C1197.2 599.936 1194.32 604.736 1194.32 610.56V632H1191.89ZM1219.81 612.928H1236.06C1236.06 606.848 1235.1 599.936 1228.19 599.936C1220.77 599.936 1219.81 608.576 1219.81 612.928ZM1238.75 615.104H1219.81C1219.81 620.48 1219.87 630.592 1227.68 630.592C1234.72 630.592 1235.87 623.552 1235.87 621.056H1238.3C1238.3 626.176 1235.49 632.768 1227.94 632.768C1219.3 632.768 1217.12 625.728 1217.12 614.336C1217.12 604.096 1220.77 597.76 1228.32 597.76C1236.19 597.76 1238.75 604.288 1238.75 615.104ZM1259.39 632V586.304H1261.82V603.584H1261.95C1263.1 600.64 1265.92 597.76 1270.46 597.76C1275.2 597.76 1278.91 600.448 1278.91 606.784V632H1276.48V607.936C1276.48 601.984 1273.98 599.936 1269.82 599.936C1264.7 599.936 1261.82 604.736 1261.82 610.56V632H1259.39ZM1287.31 612.928H1303.56C1303.56 606.848 1302.6 599.936 1295.69 599.936C1288.27 599.936 1287.31 608.576 1287.31 612.928ZM1306.25 615.104H1287.31C1287.31 620.48 1287.37 630.592 1295.18 630.592C1302.22 630.592 1303.37 623.552 1303.37 621.056H1305.8C1305.8 626.176 1302.99 632.768 1295.44 632.768C1286.8 632.768 1284.62 625.728 1284.62 614.336C1284.62 604.096 1288.27 597.76 1295.82 597.76C1303.69 597.76 1306.25 604.288 1306.25 615.104ZM1329.5 606.592V627.968C1329.5 629.568 1330.14 630.208 1330.97 630.208C1331.55 630.208 1332.06 630.144 1332.51 629.888V631.808C1331.99 632.192 1331.03 632.384 1329.95 632.384C1328.92 632.384 1327.07 631.36 1327.07 628.736V626.624H1326.94C1325.98 630.08 1322.65 632.768 1318.17 632.768C1312.35 632.768 1309.79 628.608 1309.79 623.424C1309.79 618.368 1311.83 615.488 1316.57 614.208L1323.8 612.224C1326.68 611.456 1327.07 610.112 1327.07 607.296C1327.07 601.216 1324.25 599.936 1320.6 599.936C1314.97 599.936 1313.31 603.456 1313.31 608.064H1310.87C1310.87 603.52 1312.54 597.76 1320.35 597.76C1327.71 597.76 1329.5 601.792 1329.5 606.592ZM1327.07 619.392V612.48H1326.94C1326.11 613.824 1325.21 614.016 1322.71 614.72L1317.79 616.064C1313.88 617.152 1312.47 619.456 1312.47 623.424C1312.47 627.776 1314.39 630.592 1318.62 630.592C1324.31 630.592 1327.07 626.112 1327.07 619.392ZM1345.99 632H1343.11L1333.7 598.528H1336.39L1344.52 628.928H1344.65L1352.39 598.528H1355.08L1345.99 632ZM1367.47 628.544L1374.89 598.528H1377.58L1367.21 636.992C1365.93 641.6 1363.69 643.264 1359.79 643.264C1358.95 643.264 1358.12 643.2 1357.29 643.136V640.96C1358.19 641.024 1358.63 641.088 1359.4 641.088C1362.54 641.088 1363.82 640.192 1365.03 635.84L1366.06 632.32L1356.2 598.528H1358.89L1367.34 628.544H1367.47ZM1396.89 632V586.304H1399.32V604.416H1399.45C1400.67 600.832 1402.84 597.76 1408.03 597.76C1416.41 597.76 1418.33 605.376 1418.33 615.168C1418.33 625.536 1415.71 632.768 1407.9 632.768C1403.23 632.768 1400.28 630.08 1399.45 625.536H1399.32V632H1396.89ZM1407.96 599.936C1401.82 599.936 1399.32 604.864 1399.32 615.168C1399.32 624.96 1401.56 630.592 1407.52 630.592C1414.11 630.592 1415.64 623.68 1415.64 615.168C1415.64 604.736 1413.6 599.936 1407.96 599.936ZM1442 606.592V627.968C1442 629.568 1442.64 630.208 1443.47 630.208C1444.05 630.208 1444.56 630.144 1445.01 629.888V631.808C1444.49 632.192 1443.53 632.384 1442.45 632.384C1441.42 632.384 1439.57 631.36 1439.57 628.736V626.624H1439.44C1438.48 630.08 1435.15 632.768 1430.67 632.768C1424.85 632.768 1422.29 628.608 1422.29 623.424C1422.29 618.368 1424.33 615.488 1429.07 614.208L1436.3 612.224C1439.18 611.456 1439.57 610.112 1439.57 607.296C1439.57 601.216 1436.75 599.936 1433.1 599.936C1427.47 599.936 1425.81 603.456 1425.81 608.064H1423.37C1423.37 603.52 1425.04 597.76 1432.85 597.76C1440.21 597.76 1442 601.792 1442 606.592ZM1439.57 619.392V612.48H1439.44C1438.61 613.824 1437.71 614.016 1435.21 614.72L1430.29 616.064C1426.38 617.152 1424.97 619.456 1424.97 623.424C1424.97 627.776 1426.89 630.592 1431.12 630.592C1436.81 630.592 1439.57 626.112 1439.57 619.392ZM1446.14 600.704V598.528H1450.68V588.608H1453.11V598.528H1458.68V600.704H1453.11V626.496C1453.11 629.696 1454.65 630.208 1456.06 630.208C1457.08 630.208 1457.98 630.144 1459.07 629.824V632C1457.85 632.256 1456.57 632.384 1455.61 632.384C1452.15 632.384 1450.68 630.4 1450.68 626.752V600.704H1446.14ZM1459.2 600.704V598.528H1463.74V588.608H1466.18V598.528H1471.74V600.704H1466.18V626.496C1466.18 629.696 1467.71 630.208 1469.12 630.208C1470.14 630.208 1471.04 630.144 1472.13 629.824V632C1470.91 632.256 1469.63 632.384 1468.67 632.384C1465.22 632.384 1463.74 630.4 1463.74 626.752V600.704H1459.2ZM1476.87 612.928H1493.13C1493.13 606.848 1492.17 599.936 1485.25 599.936C1477.83 599.936 1476.87 608.576 1476.87 612.928ZM1495.81 615.104H1476.87C1476.87 620.48 1476.93 630.592 1484.74 630.592C1491.78 630.592 1492.93 623.552 1492.93 621.056H1495.37C1495.37 626.176 1492.55 632.768 1485 632.768C1476.36 632.768 1474.18 625.728 1474.18 614.336C1474.18 604.096 1477.83 597.76 1485.38 597.76C1493.25 597.76 1495.81 604.288 1495.81 615.104ZM1501.08 632V598.528H1503.51V604.352H1503.64C1504.85 600.512 1507.6 597.76 1512.02 597.76H1513.43V599.936H1512.02C1506.32 599.936 1503.51 605.248 1503.51 610.752V632H1501.08ZM1526.22 628.544L1533.64 598.528H1536.33L1525.96 636.992C1524.68 641.6 1522.44 643.264 1518.54 643.264C1517.7 643.264 1516.87 643.2 1516.04 643.136V640.96C1516.94 641.024 1517.38 641.088 1518.15 641.088C1521.29 641.088 1522.57 640.192 1523.78 635.84L1524.81 632.32L1514.95 598.528H1517.64L1526.09 628.544H1526.22ZM1575.93 632L1569.59 601.984H1569.47L1562.87 632H1559.8L1552.63 598.528H1555.32L1561.27 628.544H1561.4L1567.99 598.528H1571.07L1577.4 628.544H1577.53L1583.55 598.528H1586.23L1579 632H1575.93ZM1591.75 612.928H1608C1608 606.848 1607.04 599.936 1600.13 599.936C1592.71 599.936 1591.75 608.576 1591.75 612.928ZM1610.69 615.104H1591.75C1591.75 620.48 1591.81 630.592 1599.62 630.592C1606.66 630.592 1607.81 623.552 1607.81 621.056H1610.24C1610.24 626.176 1607.43 632.768 1599.87 632.768C1591.23 632.768 1589.06 625.728 1589.06 614.336C1589.06 604.096 1592.71 597.76 1600.26 597.76C1608.13 597.76 1610.69 604.288 1610.69 615.104ZM1616.21 632V598.528H1618.64V632H1616.21ZM1616.21 592.832V586.304H1618.64V592.832H1616.21ZM1627.31 615.104C1627.31 623.68 1629.1 629.824 1635.44 629.824C1641.52 629.824 1643.63 623.68 1643.63 614.592C1643.63 604.864 1641 599.936 1635.76 599.936C1630.38 599.936 1627.31 603.712 1627.31 615.104ZM1646.06 598.528V630.144C1646.06 638.4 1643.63 643.776 1635.31 643.776C1626.8 643.776 1626.22 637.184 1626.22 635.456H1628.65C1628.65 638.912 1630.83 641.6 1635.56 641.6C1641.26 641.6 1643.63 638.336 1643.63 631.36V625.216H1643.44C1642.48 628.16 1640.56 632 1634.67 632C1626.8 632 1624.62 624.256 1624.62 615.104C1624.62 605.952 1626.35 597.76 1635.18 597.76C1639.53 597.76 1642.22 600.192 1643.5 604.096H1643.63V598.528H1646.06ZM1652.7 632V586.304H1655.13V603.584H1655.26C1656.41 600.64 1659.23 597.76 1663.77 597.76C1668.51 597.76 1672.22 600.448 1672.22 606.784V632H1669.79V607.936C1669.79 601.984 1667.29 599.936 1663.13 599.936C1658.01 599.936 1655.13 604.736 1655.13 610.56V632H1652.7ZM1676.01 600.704V598.528H1680.56V588.608H1682.99V598.528H1688.56V600.704H1682.99V626.496C1682.99 629.696 1684.52 630.208 1685.93 630.208C1686.96 630.208 1687.85 630.144 1688.94 629.824V632C1687.72 632.256 1686.44 632.384 1685.48 632.384C1682.03 632.384 1680.56 630.4 1680.56 626.752V600.704H1676.01ZM1728.77 615.232C1728.77 624.896 1726.59 632.768 1717.38 632.768C1708.55 632.768 1706.37 624.896 1706.37 615.232C1706.37 605.632 1708.55 597.76 1717.76 597.76C1726.59 597.76 1728.77 605.632 1728.77 615.232ZM1726.08 615.296C1726.08 605.632 1723.97 599.936 1717.57 599.936C1711.17 599.936 1709.06 605.632 1709.06 615.296C1709.06 624.896 1711.17 630.592 1717.57 630.592C1723.97 630.592 1726.08 624.896 1726.08 615.296ZM1736.24 632V600.704H1731.7V598.528H1736.24V592.96C1736.24 589.12 1737.65 586.304 1742.13 586.304C1742.9 586.304 1743.8 586.304 1744.63 586.496V588.672C1744.05 588.544 1743.41 588.48 1742.52 588.48C1740.4 588.48 1738.68 589.44 1738.68 592.832V598.528H1744.24V600.704H1738.68V632H1736.24ZM1762.89 632V586.304H1765.32V603.584H1765.45C1766.6 600.64 1769.42 597.76 1773.96 597.76C1778.7 597.76 1782.41 600.448 1782.41 606.784V632H1779.98V607.936C1779.98 601.984 1777.48 599.936 1773.32 599.936C1768.2 599.936 1765.32 604.736 1765.32 610.56V632H1762.89ZM1789.21 632V598.528H1791.64V632H1789.21ZM1789.21 592.832V586.304H1791.64V592.832H1789.21ZM1800.31 615.104C1800.31 623.68 1802.1 629.824 1808.44 629.824C1814.52 629.824 1816.63 623.68 1816.63 614.592C1816.63 604.864 1814 599.936 1808.76 599.936C1803.38 599.936 1800.31 603.712 1800.31 615.104ZM1819.06 598.528V630.144C1819.06 638.4 1816.63 643.776 1808.31 643.776C1799.8 643.776 1799.22 637.184 1799.22 635.456H1801.65C1801.65 638.912 1803.83 641.6 1808.56 641.6C1814.26 641.6 1816.63 638.336 1816.63 631.36V625.216H1816.44C1815.48 628.16 1813.56 632 1807.67 632C1799.8 632 1797.62 624.256 1797.62 615.104C1797.62 605.952 1799.35 597.76 1808.18 597.76C1812.53 597.76 1815.22 600.192 1816.5 604.096H1816.63V598.528H1819.06ZM1825.7 632V586.304H1828.13V603.584H1828.26C1829.41 600.64 1832.23 597.76 1836.77 597.76C1841.51 597.76 1845.22 600.448 1845.22 606.784V632H1842.79V607.936C1842.79 601.984 1840.29 599.936 1836.13 599.936C1831.01 599.936 1828.13 604.736 1828.13 610.56V632H1825.7ZM1852.53 615.68V613.504H1864.63V615.68H1852.53ZM1872.08 643.264V598.528H1874.51V604.416H1874.64C1875.86 600.832 1878.03 597.76 1883.22 597.76C1891.15 597.76 1893.52 605.376 1893.52 615.168C1893.52 625.536 1890.9 632.768 1883.09 632.768C1878.42 632.768 1875.47 630.08 1874.64 625.536H1874.51V643.264H1872.08ZM1874.51 615.168C1874.51 624.96 1876.75 630.592 1882.7 630.592C1889.3 630.592 1890.83 623.68 1890.83 615.168C1890.83 604.416 1887.7 599.936 1883.15 599.936C1877.01 599.936 1874.51 604.864 1874.51 615.168ZM1901.06 612.928H1917.31C1917.31 606.848 1916.35 599.936 1909.44 599.936C1902.02 599.936 1901.06 608.576 1901.06 612.928ZM1920 615.104H1901.06C1901.06 620.48 1901.12 630.592 1908.93 630.592C1915.97 630.592 1917.12 623.552 1917.12 621.056H1919.55C1919.55 626.176 1916.74 632.768 1909.19 632.768C1900.55 632.768 1898.37 625.728 1898.37 614.336C1898.37 604.096 1902.02 597.76 1909.57 597.76C1917.44 597.76 1920 604.288 1920 615.104ZM1925.26 632V598.528H1927.7V604.352H1927.82C1929.04 600.512 1931.79 597.76 1936.21 597.76H1937.62V599.936H1936.21C1930.51 599.936 1927.7 605.248 1927.7 610.752V632H1925.26ZM1942.49 632V600.704H1937.95V598.528H1942.49V592.96C1942.49 589.12 1943.9 586.304 1948.38 586.304C1949.15 586.304 1950.05 586.304 1950.88 586.496V588.672C1950.3 588.544 1949.66 588.48 1948.77 588.48C1946.65 588.48 1944.93 589.44 1944.93 592.832V598.528H1950.49V600.704H1944.93V632H1942.49ZM1975.33 615.232C1975.33 624.896 1973.16 632.768 1963.94 632.768C1955.11 632.768 1952.93 624.896 1952.93 615.232C1952.93 605.632 1955.11 597.76 1964.32 597.76C1973.16 597.76 1975.33 605.632 1975.33 615.232ZM1972.64 615.296C1972.64 605.632 1970.53 599.936 1964.13 599.936C1957.73 599.936 1955.62 605.632 1955.62 615.296C1955.62 624.896 1957.73 630.592 1964.13 630.592C1970.53 630.592 1972.64 624.896 1972.64 615.296ZM1981.01 632V598.528H1983.45V604.352H1983.57C1984.79 600.512 1987.54 597.76 1991.96 597.76H1993.37V599.936H1991.96C1986.26 599.936 1983.45 605.248 1983.45 610.752V632H1981.01ZM1997.46 632V598.528H1999.89V603.52H2000.02C2000.98 600.064 2003.92 597.76 2008.08 597.76C2013.27 597.76 2014.87 600.96 2015.32 604.032H2015.44C2015.89 601.6 2018.39 597.76 2023.64 597.76C2028.95 597.76 2031.64 600.96 2031.64 606.272V632H2029.2V606.848C2029.2 602.368 2026.9 599.936 2023.44 599.936C2018.45 599.936 2015.76 604.032 2015.76 609.792V632H2013.33V608C2013.33 603.008 2011.67 599.936 2007.44 599.936C2002.2 599.936 1999.89 604.544 1999.89 609.792V632H1997.46ZM2056.56 606.592V627.968C2056.56 629.568 2057.2 630.208 2058.03 630.208C2058.61 630.208 2059.12 630.144 2059.57 629.888V631.808C2059.06 632.192 2058.1 632.384 2057.01 632.384C2055.98 632.384 2054.13 631.36 2054.13 628.736V626.624H2054C2053.04 630.08 2049.71 632.768 2045.23 632.768C2039.41 632.768 2036.85 628.608 2036.85 623.424C2036.85 618.368 2038.9 615.488 2043.63 614.208L2050.86 612.224C2053.74 611.456 2054.13 610.112 2054.13 607.296C2054.13 601.216 2051.31 599.936 2047.66 599.936C2042.03 599.936 2040.37 603.456 2040.37 608.064H2037.94C2037.94 603.52 2039.6 597.76 2047.41 597.76C2054.77 597.76 2056.56 601.792 2056.56 606.592ZM2054.13 619.392V612.48H2054C2053.17 613.824 2052.27 614.016 2049.78 614.72L2044.85 616.064C2040.94 617.152 2039.54 619.456 2039.54 623.424C2039.54 627.776 2041.46 630.592 2045.68 630.592C2051.38 630.592 2054.13 626.112 2054.13 619.392ZM2063.45 632V598.528H2065.88V603.584H2066.01C2067.16 600.64 2069.98 597.76 2074.52 597.76C2079.26 597.76 2082.97 600.448 2082.97 606.784V632H2080.54V607.936C2080.54 601.984 2078.04 599.936 2073.88 599.936C2068.76 599.936 2065.88 604.736 2065.88 610.56V632H2063.45ZM2107.18 621.056H2109.87C2109.87 624.192 2108.14 632.768 2099.5 632.768C2090.86 632.768 2088.68 625.152 2088.68 615.104C2088.68 604.032 2092.07 597.76 2099.95 597.76C2108.07 597.76 2109.67 605.696 2109.67 608.128H2106.99C2106.99 606.08 2105.64 599.936 2099.88 599.936C2093.67 599.936 2091.37 605.632 2091.37 615.232C2091.37 625.664 2093.67 630.592 2099.88 630.592C2106.03 630.592 2107.18 623.552 2107.18 621.056ZM2116.25 612.928H2132.5C2132.5 606.848 2131.54 599.936 2124.63 599.936C2117.21 599.936 2116.25 608.576 2116.25 612.928ZM2135.19 615.104H2116.25C2116.25 620.48 2116.31 630.592 2124.12 630.592C2131.16 630.592 2132.31 623.552 2132.31 621.056H2134.74C2134.74 626.176 2131.93 632.768 2124.37 632.768C2115.73 632.768 2113.56 625.728 2113.56 614.336C2113.56 604.096 2117.21 597.76 2124.76 597.76C2132.63 597.76 2135.19 604.288 2135.19 615.104ZM2156.47 632V586.304H2178.29V588.736H2159.15V606.976H2177.01V609.408H2159.15V629.568H2178.87V632H2156.47ZM2192.36 632L2179.88 586.304H2182.56L2193.96 628.928H2194.08L2205.48 586.304H2208.16L2195.68 632H2192.36ZM2228.28 607.936H2225.85V606.976C2225.85 603.968 2225.08 599.936 2219.58 599.936C2216.06 599.936 2213.11 601.728 2213.11 606.144C2213.11 609.664 2214.78 611.456 2218.11 612.736L2223.23 614.656C2227.26 616.192 2229.31 619.008 2229.31 623.552C2229.31 629.184 2224.95 632.768 2219.64 632.768C2210.36 632.768 2209.72 626.112 2209.72 622.208V621.312H2212.15V622.4C2212.15 627.136 2214.07 630.592 2219.64 630.592C2224.57 630.592 2226.62 627.328 2226.62 623.616C2226.62 620.416 2225.34 618.24 2221.63 616.768L2216.7 614.784C2212.54 613.12 2210.43 610.688 2210.43 606.4C2210.43 600.832 2214.27 597.76 2219.58 597.76C2227 597.76 2228.28 602.816 2228.28 606.912V607.936ZM789.248 677.592V698.968C789.248 700.568 789.888 701.208 790.72 701.208C791.296 701.208 791.808 701.144 792.256 700.888V702.808C791.744 703.192 790.784 703.384 789.696 703.384C788.672 703.384 786.816 702.36 786.816 699.736V697.624H786.688C785.728 701.08 782.4 703.768 777.92 703.768C772.096 703.768 769.536 699.608 769.536 694.424C769.536 689.368 771.584 686.488 776.32 685.208L783.552 683.224C786.432 682.456 786.816 681.112 786.816 678.296C786.816 672.216 784 670.936 780.352 670.936C774.72 670.936 773.056 674.456 773.056 679.064H770.624C770.624 674.52 772.288 668.76 780.096 668.76C787.456 668.76 789.248 672.792 789.248 677.592ZM786.816 690.392V683.48H786.688C785.856 684.824 784.96 685.016 782.464 685.72L777.536 687.064C773.632 688.152 772.224 690.456 772.224 694.424C772.224 698.776 774.144 701.592 778.368 701.592C784.064 701.592 786.816 697.112 786.816 690.392ZM796.139 703V669.528H798.571V674.584H798.699C799.851 671.64 802.667 668.76 807.211 668.76C811.947 668.76 815.659 671.448 815.659 677.784V703H813.227V678.936C813.227 672.984 810.731 670.936 806.571 670.936C801.451 670.936 798.571 675.736 798.571 681.56V703H796.139ZM840.378 703V696.536H840.25C839.418 701.08 836.474 703.768 831.802 703.768C823.994 703.768 821.37 696.536 821.37 686.168C821.37 675.928 823.674 668.76 831.93 668.76C836.538 668.76 839.034 671.832 840.25 675.416H840.378V657.304H842.81V703H840.378ZM824.058 686.168C824.058 694.68 825.594 701.592 832.186 701.592C838.138 701.592 840.378 695.96 840.378 686.168C840.442 675.16 837.114 670.936 832.058 670.936C826.298 670.936 824.058 675.992 824.058 686.168ZM865.211 703V669.528H867.643V674.52H867.771C868.731 671.064 871.675 668.76 875.835 668.76C881.019 668.76 882.619 671.96 883.067 675.032H883.195C883.643 672.6 886.139 668.76 891.387 668.76C896.699 668.76 899.387 671.96 899.387 677.272V703H896.955V677.848C896.955 673.368 894.651 670.936 891.195 670.936C886.203 670.936 883.515 675.032 883.515 680.792V703H881.083V679C881.083 674.008 879.419 670.936 875.195 670.936C869.947 670.936 867.643 675.544 867.643 680.792V703H865.211ZM924.311 677.592V698.968C924.311 700.568 924.951 701.208 925.783 701.208C926.359 701.208 926.871 701.144 927.319 700.888V702.808C926.807 703.192 925.847 703.384 924.759 703.384C923.735 703.384 921.878 702.36 921.878 699.736V697.624H921.751C920.791 701.08 917.463 703.768 912.983 703.768C907.159 703.768 904.599 699.608 904.599 694.424C904.599 689.368 906.647 686.488 911.383 685.208L918.615 683.224C921.495 682.456 921.878 681.112 921.878 678.296C921.878 672.216 919.062 670.936 915.415 670.936C909.783 670.936 908.119 674.456 908.119 679.064H905.687C905.687 674.52 907.351 668.76 915.159 668.76C922.519 668.76 924.311 672.792 924.311 677.592ZM921.878 690.392V683.48H921.751C920.919 684.824 920.023 685.016 917.527 685.72L912.599 687.064C908.695 688.152 907.286 690.456 907.286 694.424C907.286 698.776 909.207 701.592 913.431 701.592C919.127 701.592 921.878 697.112 921.878 690.392ZM931.202 703V657.304H933.634V687.32H933.762L948.226 669.528H951.298L940.93 681.944L953.154 703H950.082L939.202 684.12L933.634 690.712V703H931.202ZM957.933 683.928H974.189C974.189 677.848 973.229 670.936 966.317 670.936C958.893 670.936 957.933 679.576 957.933 683.928ZM976.877 686.104H957.933C957.933 691.48 957.997 701.592 965.805 701.592C972.845 701.592 973.997 694.552 973.997 692.056H976.429C976.429 697.176 973.613 703.768 966.061 703.768C957.421 703.768 955.245 696.728 955.245 685.336C955.245 675.096 958.893 668.76 966.445 668.76C974.317 668.76 976.877 675.288 976.877 686.104ZM994.762 671.704V669.528H999.306V659.608H1001.74V669.528H1007.31V671.704H1001.74V697.496C1001.74 700.696 1003.27 701.208 1004.68 701.208C1005.71 701.208 1006.6 701.144 1007.69 700.824V703C1006.47 703.256 1005.19 703.384 1004.23 703.384C1000.78 703.384 999.306 701.4 999.306 697.752V671.704H994.762ZM1010.58 703V657.304H1013.01V674.584H1013.14C1014.29 671.64 1017.1 668.76 1021.65 668.76C1026.38 668.76 1030.1 671.448 1030.1 677.784V703H1027.66V678.936C1027.66 672.984 1025.17 670.936 1021.01 670.936C1015.89 670.936 1013.01 675.736 1013.01 681.56V703H1010.58ZM1038.5 683.928H1054.75C1054.75 677.848 1053.79 670.936 1046.88 670.936C1039.46 670.936 1038.5 679.576 1038.5 683.928ZM1057.44 686.104H1038.5C1038.5 691.48 1038.56 701.592 1046.37 701.592C1053.41 701.592 1054.56 694.552 1054.56 692.056H1056.99C1056.99 697.176 1054.18 703.768 1046.62 703.768C1037.98 703.768 1035.81 696.728 1035.81 685.336C1035.81 675.096 1039.46 668.76 1047.01 668.76C1054.88 668.76 1057.44 675.288 1057.44 686.104ZM1078.46 703V669.528H1080.89V674.52H1081.02C1081.98 671.064 1084.92 668.76 1089.08 668.76C1094.27 668.76 1095.87 671.96 1096.32 675.032H1096.44C1096.89 672.6 1099.39 668.76 1104.64 668.76C1109.95 668.76 1112.64 671.96 1112.64 677.272V703H1110.2V677.848C1110.2 673.368 1107.9 670.936 1104.44 670.936C1099.45 670.936 1096.76 675.032 1096.76 680.792V703H1094.33V679C1094.33 674.008 1092.67 670.936 1088.44 670.936C1083.2 670.936 1080.89 675.544 1080.89 680.792V703H1078.46ZM1141.14 686.232C1141.14 695.896 1138.97 703.768 1129.75 703.768C1120.92 703.768 1118.74 695.896 1118.74 686.232C1118.74 676.632 1120.92 668.76 1130.14 668.76C1138.97 668.76 1141.14 676.632 1141.14 686.232ZM1138.46 686.296C1138.46 676.632 1136.34 670.936 1129.94 670.936C1123.54 670.936 1121.43 676.632 1121.43 686.296C1121.43 695.896 1123.54 701.592 1129.94 701.592C1136.34 701.592 1138.46 695.896 1138.46 686.296ZM1163.59 678.936H1161.16V677.976C1161.16 674.968 1160.39 670.936 1154.89 670.936C1151.37 670.936 1148.43 672.728 1148.43 677.144C1148.43 680.664 1150.09 682.456 1153.42 683.736L1158.54 685.656C1162.57 687.192 1164.62 690.008 1164.62 694.552C1164.62 700.184 1160.27 703.768 1154.95 703.768C1145.67 703.768 1145.03 697.112 1145.03 693.208V692.312H1147.47V693.4C1147.47 698.136 1149.39 701.592 1154.95 701.592C1159.88 701.592 1161.93 698.328 1161.93 694.616C1161.93 691.416 1160.65 689.24 1156.94 687.768L1152.01 685.784C1147.85 684.12 1145.74 681.688 1145.74 677.4C1145.74 671.832 1149.58 668.76 1154.89 668.76C1162.31 668.76 1163.59 673.816 1163.59 677.912V678.936ZM1166.57 671.704V669.528H1171.12V659.608H1173.55V669.528H1179.12V671.704H1173.55V697.496C1173.55 700.696 1175.09 701.208 1176.49 701.208C1177.52 701.208 1178.41 701.144 1179.5 700.824V703C1178.29 703.256 1177.01 703.384 1176.05 703.384C1172.59 703.384 1171.12 701.4 1171.12 697.752V671.704H1166.57ZM1219.33 686.232C1219.33 695.896 1217.16 703.768 1207.94 703.768C1199.11 703.768 1196.93 695.896 1196.93 686.232C1196.93 676.632 1199.11 668.76 1208.32 668.76C1217.16 668.76 1219.33 676.632 1219.33 686.232ZM1216.64 686.296C1216.64 676.632 1214.53 670.936 1208.13 670.936C1201.73 670.936 1199.62 676.632 1199.62 686.296C1199.62 695.896 1201.73 701.592 1208.13 701.592C1214.53 701.592 1216.64 695.896 1216.64 686.296ZM1244.53 669.528V703H1242.1V697.944H1241.97C1240.82 700.888 1238.01 703.768 1233.46 703.768C1228.73 703.768 1225.01 701.08 1225.01 694.744V669.528H1227.45V693.592C1227.45 699.544 1229.94 701.592 1234.1 701.592C1239.22 701.592 1242.1 696.792 1242.1 690.968V669.528H1244.53ZM1248.32 671.704V669.528H1252.87V659.608H1255.3V669.528H1260.87V671.704H1255.3V697.496C1255.3 700.696 1256.84 701.208 1258.24 701.208C1259.27 701.208 1260.16 701.144 1261.25 700.824V703C1260.04 703.256 1258.76 703.384 1257.8 703.384C1254.34 703.384 1252.87 701.4 1252.87 697.752V671.704H1248.32ZM1301.08 686.232C1301.08 695.896 1298.91 703.768 1289.69 703.768C1280.86 703.768 1278.68 695.896 1278.68 686.232C1278.68 676.632 1280.86 668.76 1290.07 668.76C1298.91 668.76 1301.08 676.632 1301.08 686.232ZM1298.39 686.296C1298.39 676.632 1296.28 670.936 1289.88 670.936C1283.48 670.936 1281.37 676.632 1281.37 686.296C1281.37 695.896 1283.48 701.592 1289.88 701.592C1296.28 701.592 1298.39 695.896 1298.39 686.296ZM1308.56 703V671.704H1304.01V669.528H1308.56V663.96C1308.56 660.12 1309.96 657.304 1314.44 657.304C1315.21 657.304 1316.11 657.304 1316.94 657.496V659.672C1316.36 659.544 1315.72 659.48 1314.83 659.48C1312.72 659.48 1310.99 660.44 1310.99 663.832V669.528H1316.56V671.704H1310.99V703H1308.56ZM1351.97 678.936H1349.54V677.976C1349.54 674.968 1348.77 670.936 1343.27 670.936C1339.75 670.936 1336.8 672.728 1336.8 677.144C1336.8 680.664 1338.47 682.456 1341.79 683.736L1346.91 685.656C1350.95 687.192 1352.99 690.008 1352.99 694.552C1352.99 700.184 1348.64 703.768 1343.33 703.768C1334.05 703.768 1333.41 697.112 1333.41 693.208V692.312H1335.84V693.4C1335.84 698.136 1337.76 701.592 1343.33 701.592C1348.26 701.592 1350.31 698.328 1350.31 694.616C1350.31 691.416 1349.03 689.24 1345.31 687.768L1340.39 685.784C1336.23 684.12 1334.11 681.688 1334.11 677.4C1334.11 671.832 1337.95 668.76 1343.27 668.76C1350.69 668.76 1351.97 673.816 1351.97 677.912V678.936ZM1354.95 671.704V669.528H1359.49V659.608H1361.93V669.528H1367.49V671.704H1361.93V697.496C1361.93 700.696 1363.46 701.208 1364.87 701.208C1365.89 701.208 1366.79 701.144 1367.88 700.824V703C1366.66 703.256 1365.38 703.384 1364.42 703.384C1360.97 703.384 1359.49 701.4 1359.49 697.752V671.704H1354.95ZM1370.76 703V669.528H1373.2V675.352H1373.32C1374.54 671.512 1377.29 668.76 1381.71 668.76H1383.12V670.936H1381.71C1376.01 670.936 1373.2 676.248 1373.2 681.752V703H1370.76ZM1405.72 669.528V703H1403.29V697.944H1403.16C1402.01 700.888 1399.19 703.768 1394.65 703.768C1389.91 703.768 1386.2 701.08 1386.2 694.744V669.528H1388.63V693.592C1388.63 699.544 1391.13 701.592 1395.29 701.592C1400.41 701.592 1403.29 696.792 1403.29 690.968V669.528H1405.72ZM1429.93 692.056H1432.62C1432.62 695.192 1430.89 703.768 1422.25 703.768C1413.61 703.768 1411.43 696.152 1411.43 686.104C1411.43 675.032 1414.82 668.76 1422.7 668.76C1430.82 668.76 1432.42 676.696 1432.42 679.128H1429.74C1429.74 677.08 1428.39 670.936 1422.63 670.936C1416.42 670.936 1414.12 676.632 1414.12 686.232C1414.12 696.664 1416.42 701.592 1422.63 701.592C1428.78 701.592 1429.93 694.552 1429.93 692.056ZM1434.39 671.704V669.528H1438.93V659.608H1441.36V669.528H1446.93V671.704H1441.36V697.496C1441.36 700.696 1442.9 701.208 1444.31 701.208C1445.33 701.208 1446.23 701.144 1447.32 700.824V703C1446.1 703.256 1444.82 703.384 1443.86 703.384C1440.4 703.384 1438.93 701.4 1438.93 697.752V671.704H1434.39ZM1469.72 669.528V703H1467.29V697.944H1467.16C1466.01 700.888 1463.19 703.768 1458.65 703.768C1453.91 703.768 1450.2 701.08 1450.2 694.744V669.528H1452.63V693.592C1452.63 699.544 1455.13 701.592 1459.29 701.592C1464.41 701.592 1467.29 696.792 1467.29 690.968V669.528H1469.72ZM1476.26 703V669.528H1478.7V675.352H1478.82C1480.04 671.512 1482.79 668.76 1487.21 668.76H1488.62V670.936H1487.21C1481.51 670.936 1478.7 676.248 1478.7 681.752V703H1476.26ZM1509.69 677.592V698.968C1509.69 700.568 1510.33 701.208 1511.16 701.208C1511.73 701.208 1512.25 701.144 1512.69 700.888V702.808C1512.18 703.192 1511.22 703.384 1510.13 703.384C1509.11 703.384 1507.25 702.36 1507.25 699.736V697.624H1507.13C1506.17 701.08 1502.84 703.768 1498.36 703.768C1492.53 703.768 1489.97 699.608 1489.97 694.424C1489.97 689.368 1492.02 686.488 1496.76 685.208L1503.99 683.224C1506.87 682.456 1507.25 681.112 1507.25 678.296C1507.25 672.216 1504.44 670.936 1500.79 670.936C1495.16 670.936 1493.49 674.456 1493.49 679.064H1491.06C1491.06 674.52 1492.73 668.76 1500.53 668.76C1507.89 668.76 1509.69 672.792 1509.69 677.592ZM1507.25 690.392V683.48H1507.13C1506.29 684.824 1505.4 685.016 1502.9 685.72L1497.97 687.064C1494.07 688.152 1492.66 690.456 1492.66 694.424C1492.66 698.776 1494.58 701.592 1498.81 701.592C1504.5 701.592 1507.25 697.112 1507.25 690.392ZM1516.83 703V657.304H1519.26V703H1516.83ZM1563.02 686.232C1563.02 695.896 1560.84 703.768 1551.63 703.768C1542.8 703.768 1540.62 695.896 1540.62 686.232C1540.62 676.632 1542.8 668.76 1552.01 668.76C1560.84 668.76 1563.02 676.632 1563.02 686.232ZM1560.33 686.296C1560.33 676.632 1558.22 670.936 1551.82 670.936C1545.42 670.936 1543.31 676.632 1543.31 686.296C1543.31 695.896 1545.42 701.592 1551.82 701.592C1558.22 701.592 1560.33 695.896 1560.33 686.296ZM1568.83 714.264V669.528H1571.26V675.416H1571.39C1572.61 671.832 1574.78 668.76 1579.97 668.76C1587.9 668.76 1590.27 676.376 1590.27 686.168C1590.27 696.536 1587.65 703.768 1579.84 703.768C1575.17 703.768 1572.22 701.08 1571.39 696.536H1571.26V714.264H1568.83ZM1571.26 686.168C1571.26 695.96 1573.5 701.592 1579.45 701.592C1586.05 701.592 1587.58 694.68 1587.58 686.168C1587.58 675.416 1584.45 670.936 1579.9 670.936C1573.76 670.936 1571.26 675.864 1571.26 686.168ZM1596.08 714.264V669.528H1598.51V675.416H1598.64C1599.86 671.832 1602.03 668.76 1607.22 668.76C1615.15 668.76 1617.52 676.376 1617.52 686.168C1617.52 696.536 1614.9 703.768 1607.09 703.768C1602.42 703.768 1599.47 701.08 1598.64 696.536H1598.51V714.264H1596.08ZM1598.51 686.168C1598.51 695.96 1600.75 701.592 1606.7 701.592C1613.3 701.592 1614.83 694.68 1614.83 686.168C1614.83 675.416 1611.7 670.936 1607.15 670.936C1601.01 670.936 1598.51 675.864 1598.51 686.168ZM1644.77 686.232C1644.77 695.896 1642.59 703.768 1633.38 703.768C1624.55 703.768 1622.37 695.896 1622.37 686.232C1622.37 676.632 1624.55 668.76 1633.76 668.76C1642.59 668.76 1644.77 676.632 1644.77 686.232ZM1642.08 686.296C1642.08 676.632 1639.97 670.936 1633.57 670.936C1627.17 670.936 1625.06 676.632 1625.06 686.296C1625.06 695.896 1627.17 701.592 1633.57 701.592C1639.97 701.592 1642.08 695.896 1642.08 686.296ZM1650.45 703V669.528H1652.88V675.352H1653.01C1654.23 671.512 1656.98 668.76 1661.4 668.76H1662.8V670.936H1661.4C1655.7 670.936 1652.88 676.248 1652.88 681.752V703H1650.45ZM1663.14 671.704V669.528H1667.68V659.608H1670.11V669.528H1675.68V671.704H1670.11V697.496C1670.11 700.696 1671.65 701.208 1673.06 701.208C1674.08 701.208 1674.98 701.144 1676.07 700.824V703C1674.85 703.256 1673.57 703.384 1672.61 703.384C1669.15 703.384 1667.68 701.4 1667.68 697.752V671.704H1663.14ZM1698.47 669.528V703H1696.04V697.944H1695.91C1694.76 700.888 1691.94 703.768 1687.4 703.768C1682.66 703.768 1678.95 701.08 1678.95 694.744V669.528H1681.38V693.592C1681.38 699.544 1683.88 701.592 1688.04 701.592C1693.16 701.592 1696.04 696.792 1696.04 690.968V669.528H1698.47ZM1705.01 703V669.528H1707.45V674.584H1707.57C1708.73 671.64 1711.54 668.76 1716.09 668.76C1720.82 668.76 1724.53 671.448 1724.53 677.784V703H1722.1V678.936C1722.1 672.984 1719.61 670.936 1715.45 670.936C1710.33 670.936 1707.45 675.736 1707.45 681.56V703H1705.01ZM1731.33 703V669.528H1733.76V703H1731.33ZM1731.33 663.832V657.304H1733.76V663.832H1731.33ZM1737.82 671.704V669.528H1742.37V659.608H1744.8V669.528H1750.37V671.704H1744.8V697.496C1744.8 700.696 1746.34 701.208 1747.74 701.208C1748.77 701.208 1749.66 701.144 1750.75 700.824V703C1749.54 703.256 1748.26 703.384 1747.3 703.384C1743.84 703.384 1742.37 701.4 1742.37 697.752V671.704H1737.82ZM1753.9 703V669.528H1756.33V703H1753.9ZM1753.9 663.832V657.304H1756.33V663.832H1753.9ZM1765 683.928H1781.25C1781.25 677.848 1780.29 670.936 1773.38 670.936C1765.96 670.936 1765 679.576 1765 683.928ZM1783.94 686.104H1765C1765 691.48 1765.06 701.592 1772.87 701.592C1779.91 701.592 1781.06 694.552 1781.06 692.056H1783.49C1783.49 697.176 1780.68 703.768 1773.12 703.768C1764.48 703.768 1762.31 696.728 1762.31 685.336C1762.31 675.096 1765.96 668.76 1773.51 668.76C1781.38 668.76 1783.94 675.288 1783.94 686.104ZM1805.97 678.936H1803.54V677.976C1803.54 674.968 1802.77 670.936 1797.27 670.936C1793.75 670.936 1790.8 672.728 1790.8 677.144C1790.8 680.664 1792.47 682.456 1795.79 683.736L1800.91 685.656C1804.95 687.192 1806.99 690.008 1806.99 694.552C1806.99 700.184 1802.64 703.768 1797.33 703.768C1788.05 703.768 1787.41 697.112 1787.41 693.208V692.312H1789.84V693.4C1789.84 698.136 1791.76 701.592 1797.33 701.592C1802.26 701.592 1804.31 698.328 1804.31 694.616C1804.31 691.416 1803.03 689.24 1799.31 687.768L1794.39 685.784C1790.23 684.12 1788.11 681.688 1788.11 677.4C1788.11 671.832 1791.95 668.76 1797.27 668.76C1804.69 668.76 1805.97 673.816 1805.97 677.912V678.936ZM1848.64 686.232C1848.64 695.896 1846.47 703.768 1837.25 703.768C1828.42 703.768 1826.24 695.896 1826.24 686.232C1826.24 676.632 1828.42 668.76 1837.64 668.76C1846.47 668.76 1848.64 676.632 1848.64 686.232ZM1845.96 686.296C1845.96 676.632 1843.84 670.936 1837.44 670.936C1831.04 670.936 1828.93 676.632 1828.93 686.296C1828.93 695.896 1831.04 701.592 1837.44 701.592C1843.84 701.592 1845.96 695.896 1845.96 686.296ZM1856.12 703V671.704H1851.57V669.528H1856.12V663.96C1856.12 660.12 1857.53 657.304 1862.01 657.304C1862.77 657.304 1863.67 657.304 1864.5 657.496V659.672C1863.93 659.544 1863.29 659.48 1862.39 659.48C1860.28 659.48 1858.55 660.44 1858.55 663.832V669.528H1864.12V671.704H1858.55V703H1856.12ZM1883.4 703V657.304H1905.23V659.736H1886.09V677.976H1903.95V680.408H1886.09V700.568H1905.8V703H1883.4ZM1919.29 703L1906.81 657.304H1909.5L1920.89 699.928H1921.02L1932.41 657.304H1935.1L1922.62 703H1919.29ZM1955.22 678.936H1952.79V677.976C1952.79 674.968 1952.02 670.936 1946.52 670.936C1943 670.936 1940.05 672.728 1940.05 677.144C1940.05 680.664 1941.72 682.456 1945.04 683.736L1950.16 685.656C1954.2 687.192 1956.24 690.008 1956.24 694.552C1956.24 700.184 1951.89 703.768 1946.58 703.768C1937.3 703.768 1936.66 697.112 1936.66 693.208V692.312H1939.09V693.4C1939.09 698.136 1941.01 701.592 1946.58 701.592C1951.51 701.592 1953.56 698.328 1953.56 694.616C1953.56 691.416 1952.28 689.24 1948.56 687.768L1943.64 685.784C1939.48 684.12 1937.36 681.688 1937.36 677.4C1937.36 671.832 1941.2 668.76 1946.52 668.76C1953.94 668.76 1955.22 673.816 1955.22 677.912V678.936ZM1960.52 703V696.472H1963.21V703H1960.52ZM1975.9 703V696.472H1978.59V703H1975.9ZM1991.27 703V696.472H1993.96V703H1991.27Z" fill="#4000FF"/>
<path d="M706.712 276.032L690.584 262.208C683.544 265.024 675.096 266.56 664.984 266.56C626.328 266.56 611.224 244.032 611.224 218.304C611.224 192.576 626.328 170.048 664.984 170.048C703.64 170.048 718.744 192.576 718.744 218.304C718.744 232.512 714.136 245.824 703.384 254.784L715.928 265.408L706.712 276.032ZM676.888 250.432L668.44 243.136L677.528 232.64L689.688 243.008C695.576 237.12 698.776 228.544 698.776 218.304C698.776 198.208 686.488 184.384 664.984 184.384C643.48 184.384 631.192 198.208 631.192 218.304C631.192 238.4 643.48 252.224 664.984 252.224C669.336 252.224 673.432 251.712 676.888 250.432ZM735.544 264V245.824H755.512V264H735.544Z" fill="#4000FF"/>
<rect width="768" height="432" stroke="#4000FF"/>
<rect x="768" width="768" height="432" stroke="#4000FF"/>
<rect x="1536" width="768" height="432" stroke="#4000FF"/>
<rect x="2304" width="768" height="432" stroke="#4000FF"/>
<rect x="3072" width="768" height="432" stroke="#4000FF"/>
<rect y="432" width="768" height="432" stroke="#4000FF"/>
<rect x="768" y="432" width="768" height="432" stroke="#4000FF"/>
<rect x="1536" y="432" width="768" height="432" stroke="#4000FF"/>
<rect x="2304" y="432" width="768" height="432" stroke="#4000FF"/>
<rect x="3072" y="432" width="768" height="432" stroke="#4000FF"/>
<rect y="863" width="768" height="432" stroke="#4000FF"/>
<rect x="768" y="863" width="768" height="432" stroke="#4000FF"/>
<rect x="1536" y="863" width="768" height="432" stroke="#4000FF"/>
<rect x="2304" y="863" width="768" height="432" stroke="#4000FF"/>
<rect x="3072" y="863" width="768" height="432" stroke="#4000FF"/>
</g>
<defs>
<clipPath id="clip0_69_28">
<rect width="3840" height="1295" fill="white"/>
</clipPath>
</defs>
</svg>
