<svg width="3840" height="1295" viewBox="0 0 3840 1295" fill="none" xmlns="http://www.w3.org/2000/svg">
<path d="M2437.45 253V223.336H2429.29V218.728H2450.94V223.336H2442.92V253H2437.45ZM2468.1 240.76H2454.62V242.248C2454.62 245.704 2455.05 250.12 2458.94 250.12C2462.63 250.12 2463.06 245.896 2463.06 244.36H2467.96C2467.96 250.072 2464.5 253.672 2458.89 253.672C2454.66 253.672 2449.43 252.424 2449.43 240.472C2449.43 233.704 2450.87 226.504 2458.98 226.504C2466.18 226.504 2468.1 230.824 2468.1 238.024V240.76ZM2454.62 237.208H2462.92V235.816C2462.92 232.552 2461.86 230.056 2458.94 230.056C2455.62 230.056 2454.62 233.32 2454.62 236.68V237.208ZM2489.32 232.84V247.624C2489.32 248.584 2489.89 249.448 2490.66 249.448C2491 249.448 2491.33 249.4 2491.52 249.304V252.664C2490.9 252.952 2489.99 253.288 2488.98 253.288C2486.68 253.288 2484.76 252.376 2484.61 249.88H2484.52C2483.12 252.424 2481.11 253.672 2478.08 253.672C2473.96 253.672 2471.36 251.368 2471.36 246.424C2471.36 240.664 2473.86 239.464 2477.36 238.312L2481.4 237.208C2483.27 236.68 2484.42 236.152 2484.42 233.896C2484.42 231.544 2483.6 230.056 2480.87 230.056C2477.41 230.056 2476.93 232.504 2476.93 235H2472.04C2472.04 229.528 2474.29 226.504 2481.11 226.504C2485.67 226.504 2489.32 228.28 2489.32 232.84ZM2484.42 243.688V239.368C2483.08 240.424 2480.2 241.048 2478.66 241.768C2477.17 242.488 2476.55 244.024 2476.55 245.944C2476.55 248.104 2477.6 249.832 2479.76 249.832C2482.88 249.832 2484.42 247.48 2484.42 243.688ZM2494.59 253V227.176H2499.77V231.208H2499.87C2501.02 228.328 2502.94 226.504 2505.87 226.504C2506.45 226.504 2506.78 226.6 2507.12 226.696V231.976C2506.73 231.88 2505.82 231.688 2504.96 231.688C2502.61 231.688 2499.77 232.744 2499.77 237.544V253H2494.59ZM2522.65 253V249.832H2522.55C2521.88 251.512 2520.59 253.672 2516.89 253.672C2510.84 253.672 2508.44 248.632 2508.44 239.752C2508.44 228.28 2512.47 226.504 2516.41 226.504C2519.19 226.504 2521.31 227.896 2522.27 230.2H2522.36V218.728H2527.55V253H2522.65ZM2522.65 240.376C2522.65 234.184 2521.93 230.632 2517.95 230.632C2514.97 230.632 2513.91 233.032 2513.91 239.992C2513.91 245.848 2514.68 249.544 2518.28 249.544C2521.83 249.544 2522.65 245.896 2522.65 240.376ZM2532.56 253V227.176H2537.74V231.208H2537.84C2538.99 228.328 2540.91 226.504 2543.84 226.504C2544.41 226.504 2544.75 226.6 2545.09 226.696V231.976C2544.7 231.88 2543.79 231.688 2542.93 231.688C2540.57 231.688 2537.74 232.744 2537.74 237.544V253H2532.56ZM2546.69 240.088C2546.69 232.072 2548.8 226.504 2556.29 226.504C2563.83 226.504 2565.94 232.072 2565.94 240.088C2565.94 248.104 2563.49 253.672 2556.29 253.672C2549.14 253.672 2546.69 248.104 2546.69 240.088ZM2551.88 240.088C2551.88 246.664 2552.55 249.832 2556.29 249.832C2560.08 249.832 2560.76 246.664 2560.76 240.088C2560.76 234.376 2560.08 230.344 2556.29 230.344C2552.55 230.344 2551.88 234.376 2551.88 240.088ZM2569.92 261.448V227.176H2574.81V230.344H2574.91C2575.97 228.04 2577.89 226.504 2580.72 226.504C2586.62 226.504 2589.02 231.544 2589.02 240.424C2589.02 251.272 2584.61 253.672 2581.05 253.672C2578.27 253.672 2576.16 252.28 2575.2 249.976H2575.1V261.448H2569.92ZM2574.81 239.8C2574.81 245.992 2575.58 249.544 2579.23 249.544C2582.21 249.544 2583.55 247.336 2583.55 240.184C2583.55 234.328 2582.78 230.632 2579.18 230.632C2575.63 230.632 2574.81 234.28 2574.81 239.8ZM2592.69 241.576V236.68H2605.27V241.576H2592.69ZM2625.93 234.712H2621.04V234.04C2621.04 231.976 2620.32 230.056 2617.63 230.056C2615.57 230.056 2613.93 231.016 2613.93 233.416C2613.93 235.432 2614.85 236.248 2617.58 237.208L2620.89 238.36C2624.73 239.656 2626.51 241.72 2626.51 245.8C2626.51 251.32 2622.48 253.672 2617.25 253.672C2610.72 253.672 2608.75 250.648 2608.75 245.656V244.696H2613.36V245.512C2613.36 248.488 2614.41 250.12 2617.39 250.12C2620.22 250.12 2621.61 248.68 2621.61 246.328C2621.61 244.408 2620.61 243.16 2618.78 242.536L2614.56 241.048C2610.67 239.704 2609.04 237.736 2609.04 233.608C2609.04 228.76 2612.54 226.504 2617.87 226.504C2624.45 226.504 2625.93 230.344 2625.93 233.56V234.712ZM2630.34 253V218.728H2635.52V229.96L2635.67 230.056C2637.11 227.848 2639.36 226.504 2642 226.504C2645.94 226.504 2648.44 228.28 2648.44 233.512V253H2643.25V235.288C2643.25 231.928 2642.24 230.632 2639.65 230.632C2637.54 230.632 2635.52 232.312 2635.52 235.672V253H2630.34ZM2670.39 232.84V247.624C2670.39 248.584 2670.97 249.448 2671.74 249.448C2672.07 249.448 2672.41 249.4 2672.6 249.304V252.664C2671.98 252.952 2671.07 253.288 2670.06 253.288C2667.75 253.288 2665.83 252.376 2665.69 249.88H2665.59C2664.2 252.424 2662.19 253.672 2659.16 253.672C2655.03 253.672 2652.44 251.368 2652.44 246.424C2652.44 240.664 2654.94 239.464 2658.44 238.312L2662.47 237.208C2664.35 236.68 2665.5 236.152 2665.5 233.896C2665.5 231.544 2664.68 230.056 2661.95 230.056C2658.49 230.056 2658.01 232.504 2658.01 235H2653.11C2653.11 229.528 2655.37 226.504 2662.19 226.504C2666.75 226.504 2670.39 228.28 2670.39 232.84ZM2665.5 243.688V239.368C2664.15 240.424 2661.27 241.048 2659.74 241.768C2658.25 242.488 2657.63 244.024 2657.63 245.944C2657.63 248.104 2658.68 249.832 2660.84 249.832C2663.96 249.832 2665.5 247.48 2665.5 243.688ZM2675.67 261.448V227.176H2680.56V230.344H2680.66C2681.72 228.04 2683.64 226.504 2686.47 226.504C2692.37 226.504 2694.77 231.544 2694.77 240.424C2694.77 251.272 2690.36 253.672 2686.8 253.672C2684.02 253.672 2681.91 252.28 2680.95 249.976H2680.85V261.448H2675.67ZM2680.56 239.8C2680.56 245.992 2681.33 249.544 2684.98 249.544C2687.96 249.544 2689.3 247.336 2689.3 240.184C2689.3 234.328 2688.53 230.632 2684.93 230.632C2681.38 230.632 2680.56 234.28 2680.56 239.8ZM2716.73 240.76H2703.24V242.248C2703.24 245.704 2703.67 250.12 2707.56 250.12C2711.26 250.12 2711.69 245.896 2711.69 244.36H2716.59C2716.59 250.072 2713.13 253.672 2707.51 253.672C2703.29 253.672 2698.06 252.424 2698.06 240.472C2698.06 233.704 2699.5 226.504 2707.61 226.504C2714.81 226.504 2716.73 230.824 2716.73 238.024V240.76ZM2703.24 237.208H2711.55V235.816C2711.55 232.552 2710.49 230.056 2707.56 230.056C2704.25 230.056 2703.24 233.32 2703.24 236.68V237.208ZM2734.2 253V249.832H2734.1C2733.43 251.512 2732.13 253.672 2728.44 253.672C2722.39 253.672 2719.99 248.632 2719.99 239.752C2719.99 228.28 2724.02 226.504 2727.96 226.504C2730.74 226.504 2732.85 227.896 2733.81 230.2H2733.91V218.728H2739.09V253H2734.2ZM2734.2 240.376C2734.2 234.184 2733.48 230.632 2729.49 230.632C2726.52 230.632 2725.46 233.032 2725.46 239.992C2725.46 245.848 2726.23 249.544 2729.83 249.544C2733.38 249.544 2734.2 245.896 2734.2 240.376ZM2755.64 261.448V227.176H2760.53V230.344H2760.63C2761.68 228.04 2763.6 226.504 2766.44 226.504C2772.34 226.504 2774.74 231.544 2774.74 240.424C2774.74 251.272 2770.32 253.672 2766.77 253.672C2763.99 253.672 2761.88 252.28 2760.92 249.976H2760.82V261.448H2755.64ZM2760.53 239.8C2760.53 245.992 2761.3 249.544 2764.95 249.544C2767.92 249.544 2769.27 247.336 2769.27 240.184C2769.27 234.328 2768.5 230.632 2764.9 230.632C2761.35 230.632 2760.53 234.28 2760.53 239.8ZM2796.7 240.76H2783.21V242.248C2783.21 245.704 2783.64 250.12 2787.53 250.12C2791.23 250.12 2791.66 245.896 2791.66 244.36H2796.55C2796.55 250.072 2793.1 253.672 2787.48 253.672C2783.26 253.672 2778.03 252.424 2778.03 240.472C2778.03 233.704 2779.47 226.504 2787.58 226.504C2794.78 226.504 2796.7 230.824 2796.7 238.024V240.76ZM2783.21 237.208H2791.51V235.816C2791.51 232.552 2790.46 230.056 2787.53 230.056C2784.22 230.056 2783.21 233.32 2783.21 236.68V237.208ZM2800.96 253V227.176H2806.15V231.208H2806.24C2807.4 228.328 2809.32 226.504 2812.24 226.504C2812.82 226.504 2813.16 226.6 2813.49 226.696V231.976C2813.11 231.88 2812.2 231.688 2811.33 231.688C2808.98 231.688 2806.15 232.744 2806.15 237.544V253H2800.96ZM2817.69 253V231.016H2814.09V227.176H2817.69V224.776C2817.69 219.88 2820.04 218.344 2824.27 218.344C2825.37 218.344 2826.33 218.392 2827.1 218.488V222.472H2825.66C2823.74 222.472 2822.87 223.192 2822.87 224.92V227.176H2827.1V231.016H2822.87V253H2817.69ZM2828.46 240.088C2828.46 232.072 2830.57 226.504 2838.06 226.504C2845.59 226.504 2847.7 232.072 2847.7 240.088C2847.7 248.104 2845.26 253.672 2838.06 253.672C2830.9 253.672 2828.46 248.104 2828.46 240.088ZM2833.64 240.088C2833.64 246.664 2834.31 249.832 2838.06 249.832C2841.85 249.832 2842.52 246.664 2842.52 240.088C2842.52 234.376 2841.85 230.344 2838.06 230.344C2834.31 230.344 2833.64 234.376 2833.64 240.088ZM2851.68 253V227.176H2856.87V231.208H2856.96C2858.12 228.328 2860.04 226.504 2862.96 226.504C2863.54 226.504 2863.88 226.6 2864.21 226.696V231.976C2863.83 231.88 2862.92 231.688 2862.05 231.688C2859.7 231.688 2856.87 232.744 2856.87 237.544V253H2851.68ZM2867.53 253V227.176H2872.43V230.2H2872.57C2873.87 227.896 2876.32 226.504 2878.76 226.504C2882.46 226.504 2884 228.28 2884.76 230.44C2886.25 227.944 2888.17 226.504 2891.29 226.504C2894.94 226.504 2897.58 228.376 2897.58 233.368V253H2892.4V235.288C2892.4 231.928 2891.39 230.632 2889.28 230.632C2887.16 230.632 2885.15 232.312 2885.15 235.672V253H2879.96V235.288C2879.96 231.928 2878.96 230.632 2876.8 230.632C2874.73 230.632 2872.72 232.312 2872.72 235.672V253H2867.53ZM2919.77 232.84V247.624C2919.77 248.584 2920.34 249.448 2921.11 249.448C2921.45 249.448 2921.78 249.4 2921.98 249.304V252.664C2921.35 252.952 2920.44 253.288 2919.43 253.288C2917.13 253.288 2915.21 252.376 2915.06 249.88H2914.97C2913.58 252.424 2911.56 253.672 2908.54 253.672C2904.41 253.672 2901.82 251.368 2901.82 246.424C2901.82 240.664 2904.31 239.464 2907.82 238.312L2911.85 237.208C2913.72 236.68 2914.87 236.152 2914.87 233.896C2914.87 231.544 2914.06 230.056 2911.32 230.056C2907.86 230.056 2907.38 232.504 2907.38 235H2902.49C2902.49 229.528 2904.74 226.504 2911.56 226.504C2916.12 226.504 2919.77 228.28 2919.77 232.84ZM2914.87 243.688V239.368C2913.53 240.424 2910.65 241.048 2909.11 241.768C2907.62 242.488 2907 244.024 2907 245.944C2907 248.104 2908.06 249.832 2910.22 249.832C2913.34 249.832 2914.87 247.48 2914.87 243.688ZM2925.04 253V227.176H2929.94V230.2H2930.08C2931.38 227.896 2933.83 226.504 2936.71 226.504C2940.64 226.504 2943.14 228.28 2943.14 233.512V253H2937.95V235.288C2937.95 231.928 2936.95 230.632 2934.35 230.632C2932.24 230.632 2930.23 232.312 2930.23 235.672V253H2925.04ZM2960.68 243.592H2965.58C2965.24 249.784 2963.13 253.672 2956.74 253.672C2949.26 253.672 2947.14 248.104 2947.14 240.088C2947.14 232.072 2949.26 226.504 2956.74 226.504C2964.47 226.408 2965.62 232.552 2965.62 235.768H2960.44C2960.44 233.368 2959.77 230.248 2956.74 230.344C2953 230.344 2952.33 234.376 2952.33 240.088C2952.33 245.8 2953 249.832 2956.74 249.832C2959.62 249.88 2960.68 247.48 2960.68 243.592ZM2987.43 240.76H2973.94V242.248C2973.94 245.704 2974.38 250.12 2978.26 250.12C2981.96 250.12 2982.39 245.896 2982.39 244.36H2987.29C2987.29 250.072 2983.83 253.672 2978.22 253.672C2973.99 253.672 2968.76 252.424 2968.76 240.472C2968.76 233.704 2970.2 226.504 2978.31 226.504C2985.51 226.504 2987.43 230.824 2987.43 238.024V240.76ZM2973.94 237.208H2982.25V235.816C2982.25 232.552 2981.19 230.056 2978.26 230.056C2974.95 230.056 2973.94 233.32 2973.94 236.68V237.208ZM2991.36 241.576V236.68H3003.94V241.576H2991.36ZM3007.57 240.088C3007.57 232.072 3009.68 226.504 3017.17 226.504C3024.7 226.504 3026.81 232.072 3026.81 240.088C3026.81 248.104 3024.37 253.672 3017.17 253.672C3010.01 253.672 3007.57 248.104 3007.57 240.088ZM3012.75 240.088C3012.75 246.664 3013.42 249.832 3017.17 249.832C3020.96 249.832 3021.63 246.664 3021.63 240.088C3021.63 234.376 3020.96 230.344 3017.17 230.344C3013.42 230.344 3012.75 234.376 3012.75 240.088ZM3030.79 261.448V227.176H3035.69V230.344H3035.78C3036.84 228.04 3038.76 226.504 3041.59 226.504C3047.5 226.504 3049.9 231.544 3049.9 240.424C3049.9 251.272 3045.48 253.672 3041.93 253.672C3039.14 253.672 3037.03 252.28 3036.07 249.976H3035.98V261.448H3030.79ZM3035.69 239.8C3035.69 245.992 3036.46 249.544 3040.1 249.544C3043.08 249.544 3044.42 247.336 3044.42 240.184C3044.42 234.328 3043.66 230.632 3040.06 230.632C3036.5 230.632 3035.69 234.28 3035.69 239.8ZM3051.6 231.016V227.176H3055.15V219.832H3060.33V227.176H3064.56V231.016H3060.33V246.424C3060.33 248.44 3060.91 249.16 3062.69 249.16C3063.45 249.16 3064.08 249.112 3064.56 249.016V252.856C3063.45 253.144 3062.01 253.288 3060.38 253.288C3056.88 253.288 3055.15 252.328 3055.15 247.048V231.016H3051.6ZM3067.5 253V227.176H3072.69V253H3067.5ZM3067.5 223.528V218.344H3072.69V223.528H3067.5ZM3078.14 253V227.176H3083.04V230.2H3083.18C3084.48 227.896 3086.93 226.504 3089.37 226.504C3093.07 226.504 3094.61 228.28 3095.37 230.44C3096.86 227.944 3098.78 226.504 3101.9 226.504C3105.55 226.504 3108.19 228.376 3108.19 233.368V253H3103.01V235.288C3103.01 231.928 3102 230.632 3099.89 230.632C3097.77 230.632 3095.76 232.312 3095.76 235.672V253H3090.57V235.288C3090.57 231.928 3089.57 230.632 3087.41 230.632C3085.34 230.632 3083.33 232.312 3083.33 235.672V253H3078.14ZM3113.67 253V227.176H3118.86V253H3113.67ZM3113.67 223.528V218.344H3118.86V223.528H3113.67ZM3140.11 234.712H3135.21V234.04C3135.21 231.976 3134.49 230.056 3131.8 230.056C3129.74 230.056 3128.11 231.016 3128.11 233.416C3128.11 235.432 3129.02 236.248 3131.75 237.208L3135.07 238.36C3138.91 239.656 3140.68 241.72 3140.68 245.8C3140.68 251.32 3136.65 253.672 3131.42 253.672C3124.89 253.672 3122.92 250.648 3122.92 245.656V244.696H3127.53V245.512C3127.53 248.488 3128.59 250.12 3131.56 250.12C3134.39 250.12 3135.79 248.68 3135.79 246.328C3135.79 244.408 3134.78 243.16 3132.95 242.536L3128.73 241.048C3124.84 239.704 3123.21 237.736 3123.21 233.608C3123.21 228.76 3126.71 226.504 3132.04 226.504C3138.62 226.504 3140.11 230.344 3140.11 233.56V234.712ZM3162.46 240.76H3148.98V242.248C3148.98 245.704 3149.41 250.12 3153.3 250.12C3156.99 250.12 3157.42 245.896 3157.42 244.36H3162.32C3162.32 250.072 3158.86 253.672 3153.25 253.672C3149.02 253.672 3143.79 252.424 3143.79 240.472C3143.79 233.704 3145.23 226.504 3153.34 226.504C3160.54 226.504 3162.46 230.824 3162.46 238.024V240.76ZM3148.98 237.208H3157.28V235.816C3157.28 232.552 3156.22 230.056 3153.3 230.056C3149.98 230.056 3148.98 233.32 3148.98 236.68V237.208ZM3179.93 253V249.832H3179.83C3179.16 251.512 3177.87 253.672 3174.17 253.672C3168.12 253.672 3165.72 248.632 3165.72 239.752C3165.72 228.28 3169.75 226.504 3173.69 226.504C3176.47 226.504 3178.59 227.896 3179.55 230.2H3179.64V218.728H3184.83V253H3179.93ZM3179.93 240.376C3179.93 234.184 3179.21 230.632 3175.23 230.632C3172.25 230.632 3171.19 233.032 3171.19 239.992C3171.19 245.848 3171.96 249.544 3175.56 249.544C3179.11 249.544 3179.93 245.896 3179.93 240.376ZM3213.9 243.592H3218.8C3218.46 249.784 3216.35 253.672 3209.96 253.672C3202.48 253.672 3200.36 248.104 3200.36 240.088C3200.36 232.072 3202.48 226.504 3209.96 226.504C3217.69 226.408 3218.84 232.552 3218.84 235.768H3213.66C3213.66 233.368 3212.99 230.248 3209.96 230.344C3206.22 230.344 3205.55 234.376 3205.55 240.088C3205.55 245.8 3206.22 249.832 3209.96 249.832C3212.84 249.88 3213.9 247.48 3213.9 243.592ZM3239.64 232.84V247.624C3239.64 248.584 3240.22 249.448 3240.99 249.448C3241.32 249.448 3241.66 249.4 3241.85 249.304V252.664C3241.23 252.952 3240.32 253.288 3239.31 253.288C3237 253.288 3235.08 252.376 3234.94 249.88H3234.84C3233.45 252.424 3231.44 253.672 3228.41 253.672C3224.28 253.672 3221.69 251.368 3221.69 246.424C3221.69 240.664 3224.19 239.464 3227.69 238.312L3231.72 237.208C3233.6 236.68 3234.75 236.152 3234.75 233.896C3234.75 231.544 3233.93 230.056 3231.2 230.056C3227.74 230.056 3227.26 232.504 3227.26 235H3222.36C3222.36 229.528 3224.62 226.504 3231.44 226.504C3236 226.504 3239.64 228.28 3239.64 232.84ZM3234.75 243.688V239.368C3233.4 240.424 3230.52 241.048 3228.99 241.768C3227.5 242.488 3226.88 244.024 3226.88 245.944C3226.88 248.104 3227.93 249.832 3230.09 249.832C3233.21 249.832 3234.75 247.48 3234.75 243.688ZM3244.92 253V227.176H3250.1V231.208H3250.2C3251.35 228.328 3253.27 226.504 3256.2 226.504C3256.77 226.504 3257.11 226.6 3257.45 226.696V231.976C3257.06 231.88 3256.15 231.688 3255.29 231.688C3252.93 231.688 3250.1 232.744 3250.1 237.544V253H3244.92ZM3271.59 253V218.728H3276.77V230.2H3276.87C3277.83 227.896 3279.94 226.504 3282.73 226.504C3286.66 226.504 3290.69 228.28 3290.69 239.752C3290.69 248.632 3288.29 253.672 3282.25 253.672C3278.55 253.672 3277.25 251.512 3276.58 249.832H3276.49V253H3271.59ZM3276.49 240.376C3276.49 245.896 3277.3 249.544 3280.85 249.544C3284.45 249.544 3285.22 245.848 3285.22 239.992C3285.22 233.032 3284.17 230.632 3281.19 230.632C3277.21 230.632 3276.49 234.184 3276.49 240.376ZM3293.69 240.088C3293.69 232.072 3295.8 226.504 3303.29 226.504C3310.83 226.504 3312.94 232.072 3312.94 240.088C3312.94 248.104 3310.49 253.672 3303.29 253.672C3296.14 253.672 3293.69 248.104 3293.69 240.088ZM3298.88 240.088C3298.88 246.664 3299.55 249.832 3303.29 249.832C3307.08 249.832 3307.76 246.664 3307.76 240.088C3307.76 234.376 3307.08 230.344 3303.29 230.344C3299.55 230.344 3298.88 234.376 3298.88 240.088ZM3330.12 253V249.832H3330.02C3329.35 251.512 3328.05 253.672 3324.36 253.672C3318.31 253.672 3315.91 248.632 3315.91 239.752C3315.91 228.28 3319.94 226.504 3323.88 226.504C3326.66 226.504 3328.77 227.896 3329.73 230.2H3329.83V218.728H3335.01V253H3330.12ZM3330.12 240.376C3330.12 234.184 3329.4 230.632 3325.41 230.632C3322.44 230.632 3321.38 233.032 3321.38 239.992C3321.38 245.848 3322.15 249.544 3325.75 249.544C3329.3 249.544 3330.12 245.896 3330.12 240.376ZM3337.63 227.176H3343.2L3347.67 246.568H3347.76L3351.89 227.176H3357.31L3350.21 253.96C3348.19 261.016 3346.51 261.928 3341.19 261.832C3340.51 261.832 3339.79 261.736 3339.12 261.64V257.512C3339.7 257.608 3340.23 257.704 3340.8 257.704C3342.58 257.704 3343.73 257.32 3344.31 255.688L3344.98 253.576L3337.63 227.176Z" fill="white"/>
<path d="M2441.34 294.792V284.712H2445.46V294.792H2455.54V298.92H2445.46V309H2441.34V298.92H2431.26V294.792H2441.34ZM2478.53 309V276.552H2469.41V274.728H2489.66V276.552H2480.54V309H2478.53ZM2488.17 309V283.896H2489.99V288.264H2490.09C2491 285.384 2493.06 283.32 2496.37 283.32H2497.43V284.952H2496.37C2492.1 284.952 2489.99 288.936 2489.99 293.064V309H2488.17ZM2513.23 289.944V305.976C2513.23 307.176 2513.71 307.656 2514.34 307.656C2514.77 307.656 2515.15 307.608 2515.49 307.416V308.856C2515.1 309.144 2514.38 309.288 2513.57 309.288C2512.8 309.288 2511.41 308.52 2511.41 306.552V304.968H2511.31C2510.59 307.56 2508.1 309.576 2504.74 309.576C2500.37 309.576 2498.45 306.456 2498.45 302.568C2498.45 298.776 2499.98 296.616 2503.54 295.656L2508.96 294.168C2511.12 293.592 2511.41 292.584 2511.41 290.472C2511.41 285.912 2509.3 284.952 2506.56 284.952C2502.34 284.952 2501.09 287.592 2501.09 291.048H2499.26C2499.26 287.64 2500.51 283.32 2506.37 283.32C2511.89 283.32 2513.23 286.344 2513.23 289.944ZM2511.41 299.544V294.36H2511.31C2510.69 295.368 2510.02 295.512 2508.14 296.04L2504.45 297.048C2501.52 297.864 2500.46 299.592 2500.46 302.568C2500.46 305.832 2501.9 307.944 2505.07 307.944C2509.34 307.944 2511.41 304.584 2511.41 299.544ZM2518.4 309V283.896H2520.23V287.688H2520.32C2521.19 285.48 2523.3 283.32 2526.71 283.32C2530.26 283.32 2533.04 285.336 2533.04 290.088V309H2531.22V290.952C2531.22 286.488 2529.35 284.952 2526.23 284.952C2522.39 284.952 2520.23 288.552 2520.23 292.92V309H2518.4ZM2550.52 290.952H2548.7V290.232C2548.7 287.976 2548.12 284.952 2544 284.952C2541.36 284.952 2539.15 286.296 2539.15 289.608C2539.15 292.248 2540.4 293.592 2542.89 294.552L2546.73 295.992C2549.76 297.144 2551.29 299.256 2551.29 302.664C2551.29 306.888 2548.03 309.576 2544.04 309.576C2537.08 309.576 2536.6 304.584 2536.6 301.656V300.984H2538.43V301.8C2538.43 305.352 2539.87 307.944 2544.04 307.944C2547.74 307.944 2549.28 305.496 2549.28 302.712C2549.28 300.312 2548.32 298.68 2545.53 297.576L2541.84 296.088C2538.72 294.84 2537.13 293.016 2537.13 289.8C2537.13 285.624 2540.01 283.32 2544 283.32C2549.56 283.32 2550.52 287.112 2550.52 290.184V290.952ZM2554.92 317.448V283.896H2556.74V288.312H2556.84C2557.75 285.624 2559.38 283.32 2563.27 283.32C2569.22 283.32 2571 289.032 2571 296.376C2571 304.152 2569.03 309.576 2563.18 309.576C2559.67 309.576 2557.46 307.56 2556.84 304.152H2556.74V317.448H2554.92ZM2556.74 296.376C2556.74 303.72 2558.42 307.944 2562.89 307.944C2567.83 307.944 2568.98 302.76 2568.98 296.376C2568.98 288.312 2566.63 284.952 2563.22 284.952C2558.62 284.952 2556.74 288.648 2556.74 296.376ZM2588.75 289.944V305.976C2588.75 307.176 2589.23 307.656 2589.85 307.656C2590.28 307.656 2590.67 307.608 2591 307.416V308.856C2590.62 309.144 2589.9 309.288 2589.08 309.288C2588.32 309.288 2586.92 308.52 2586.92 306.552V304.968H2586.83C2586.11 307.56 2583.61 309.576 2580.25 309.576C2575.88 309.576 2573.96 306.456 2573.96 302.568C2573.96 298.776 2575.5 296.616 2579.05 295.656L2584.48 294.168C2586.64 293.592 2586.92 292.584 2586.92 290.472C2586.92 285.912 2584.81 284.952 2582.08 284.952C2577.85 284.952 2576.6 287.592 2576.6 291.048H2574.78C2574.78 287.64 2576.03 283.32 2581.88 283.32C2587.4 283.32 2588.75 286.344 2588.75 289.944ZM2586.92 299.544V294.36H2586.83C2586.2 295.368 2585.53 295.512 2583.66 296.04L2579.96 297.048C2577.04 297.864 2575.98 299.592 2575.98 302.568C2575.98 305.832 2577.42 307.944 2580.59 307.944C2584.86 307.944 2586.92 304.584 2586.92 299.544ZM2593.92 309V283.896H2595.74V288.264H2595.84C2596.75 285.384 2598.81 283.32 2602.12 283.32H2603.18V284.952H2602.12C2597.85 284.952 2595.74 288.936 2595.74 293.064V309H2593.92ZM2606.89 294.696H2619.08C2619.08 290.136 2618.36 284.952 2613.17 284.952C2607.61 284.952 2606.89 291.432 2606.89 294.696ZM2621.09 296.328H2606.89C2606.89 300.36 2606.93 307.944 2612.79 307.944C2618.07 307.944 2618.93 302.664 2618.93 300.792H2620.76C2620.76 304.632 2618.65 309.576 2612.98 309.576C2606.5 309.576 2604.87 304.296 2604.87 295.752C2604.87 288.072 2607.61 283.32 2613.27 283.32C2619.17 283.32 2621.09 288.216 2621.09 296.328ZM2625.04 309V283.896H2626.87V287.688H2626.96C2627.83 285.48 2629.94 283.32 2633.35 283.32C2636.9 283.32 2639.68 285.336 2639.68 290.088V309H2637.86V290.952C2637.86 286.488 2635.99 284.952 2632.87 284.952C2629.03 284.952 2626.87 288.552 2626.87 292.92V309H2625.04ZM2657.84 300.792H2659.85C2659.85 303.144 2658.56 309.576 2652.08 309.576C2645.6 309.576 2643.96 303.864 2643.96 296.328C2643.96 288.024 2646.51 283.32 2652.41 283.32C2658.51 283.32 2659.71 289.272 2659.71 291.096H2657.69C2657.69 289.56 2656.68 284.952 2652.36 284.952C2647.71 284.952 2645.98 289.224 2645.98 296.424C2645.98 304.248 2647.71 307.944 2652.36 307.944C2656.97 307.944 2657.84 302.664 2657.84 300.792ZM2669.68 306.408L2675.24 283.896H2677.26L2669.48 312.744C2668.52 316.2 2666.84 317.448 2663.92 317.448C2663.29 317.448 2662.67 317.4 2662.04 317.352V315.72C2662.72 315.768 2663.05 315.816 2663.63 315.816C2665.98 315.816 2666.94 315.144 2667.85 311.88L2668.62 309.24L2661.23 283.896H2663.24L2669.58 306.408H2669.68Z" fill="#4000FF"/>
</svg>
