<svg width="3840" height="1295" viewBox="0 0 3840 1295" fill="none" xmlns="http://www.w3.org/2000/svg">
<rect width="3840" height="1295" fill="white"/>
<path d="M2613.21 473V438.728H2618.68V468.392H2631.93V473H2613.21ZM2635.06 473V447.176H2640.25V473H2635.06ZM2635.06 443.528V438.344H2640.25V443.528H2635.06ZM2658.38 481.448V469.976H2658.28C2657.32 472.28 2655.21 473.672 2652.38 473.672C2648.34 473.672 2644.46 470.888 2644.46 460.424C2644.46 451.544 2646.86 446.504 2652.9 446.504C2656.6 446.504 2657.9 448.664 2658.57 450.344H2658.66V447.176H2663.56V481.448H2658.38ZM2658.66 459.8C2658.66 454.28 2657.85 450.632 2654.3 450.632C2650.7 450.632 2649.93 454.328 2649.93 460.184C2649.93 467.144 2651.32 469.544 2653.96 469.544C2657.94 469.544 2658.66 465.992 2658.66 459.8ZM2681.77 473V469.976H2681.63C2680.33 472.28 2677.89 473.672 2675.01 473.672C2671.17 473.672 2668.57 471.896 2668.57 465.224V447.176H2673.76V465.704C2673.76 468.584 2675.05 469.544 2677.26 469.544C2679.47 469.544 2681.49 468.104 2681.49 465.224V447.176H2686.67V473H2681.77ZM2691.92 473V447.176H2697.11V473H2691.92ZM2691.92 443.528V438.344H2697.11V443.528H2691.92ZM2715.52 473V469.832H2715.43C2714.76 471.512 2713.46 473.672 2709.76 473.672C2703.72 473.672 2701.32 468.632 2701.32 459.752C2701.32 448.28 2705.35 446.504 2709.28 446.504C2712.07 446.504 2714.18 447.896 2715.14 450.2H2715.24V438.728H2720.42V473H2715.52ZM2715.52 460.376C2715.52 454.184 2714.8 450.632 2710.82 450.632C2707.84 450.632 2706.79 453.032 2706.79 459.992C2706.79 465.848 2707.56 469.544 2711.16 469.544C2714.71 469.544 2715.52 465.896 2715.52 460.376ZM2749.49 463.592H2754.39C2754.05 469.784 2751.94 473.672 2745.56 473.672C2738.07 473.672 2735.96 468.104 2735.96 460.088C2735.96 452.072 2738.07 446.504 2745.56 446.504C2753.28 446.408 2754.44 452.552 2754.44 455.768H2749.25C2749.25 453.368 2748.58 450.248 2745.56 450.344C2741.81 450.344 2741.14 454.376 2741.14 460.088C2741.14 465.8 2741.81 469.832 2745.56 469.832C2748.44 469.88 2749.49 467.48 2749.49 463.592ZM2758.29 473V447.176H2763.48V451.208H2763.57C2764.72 448.328 2766.64 446.504 2769.57 446.504C2770.15 446.504 2770.48 446.6 2770.82 446.696V451.976C2770.44 451.88 2769.52 451.688 2768.66 451.688C2766.31 451.688 2763.48 452.744 2763.48 457.544V473H2758.29ZM2772.17 447.176H2777.73L2782.2 466.568H2782.29L2786.42 447.176H2791.85L2784.74 473.96C2782.73 481.016 2781.05 481.928 2775.72 481.832C2775.05 481.832 2774.33 481.736 2773.65 481.64V477.512C2774.23 477.608 2774.76 477.704 2775.33 477.704C2777.11 477.704 2778.26 477.32 2778.84 475.688L2779.51 473.576L2772.17 447.176ZM2810.75 454.712H2805.85V454.04C2805.85 451.976 2805.13 450.056 2802.44 450.056C2800.38 450.056 2798.75 451.016 2798.75 453.416C2798.75 455.432 2799.66 456.248 2802.39 457.208L2805.71 458.36C2809.55 459.656 2811.32 461.72 2811.32 465.8C2811.32 471.32 2807.29 473.672 2802.06 473.672C2795.53 473.672 2793.56 470.648 2793.56 465.656V464.696H2798.17V465.512C2798.17 468.488 2799.23 470.12 2802.2 470.12C2805.03 470.12 2806.43 468.68 2806.43 466.328C2806.43 464.408 2805.42 463.16 2803.59 462.536L2799.37 461.048C2795.48 459.704 2793.85 457.736 2793.85 453.608C2793.85 448.76 2797.35 446.504 2802.68 446.504C2809.26 446.504 2810.75 450.344 2810.75 453.56V454.712ZM2812.85 451.016V447.176H2816.4V439.832H2821.58V447.176H2825.81V451.016H2821.58V466.424C2821.58 468.44 2822.16 469.16 2823.94 469.16C2824.7 469.16 2825.33 469.112 2825.81 469.016V472.856C2824.7 473.144 2823.26 473.288 2821.63 473.288C2818.13 473.288 2816.4 472.328 2816.4 467.048V451.016H2812.85ZM2845.46 452.84V467.624C2845.46 468.584 2846.03 469.448 2846.8 469.448C2847.14 469.448 2847.47 469.4 2847.66 469.304V472.664C2847.04 472.952 2846.13 473.288 2845.12 473.288C2842.82 473.288 2840.9 472.376 2840.75 469.88H2840.66C2839.26 472.424 2837.25 473.672 2834.22 473.672C2830.1 473.672 2827.5 471.368 2827.5 466.424C2827.5 460.664 2830 459.464 2833.5 458.312L2837.54 457.208C2839.41 456.68 2840.56 456.152 2840.56 453.896C2840.56 451.544 2839.74 450.056 2837.01 450.056C2833.55 450.056 2833.07 452.504 2833.07 455H2828.18C2828.18 449.528 2830.43 446.504 2837.25 446.504C2841.81 446.504 2845.46 448.28 2845.46 452.84ZM2840.56 463.688V459.368C2839.22 460.424 2836.34 461.048 2834.8 461.768C2833.31 462.488 2832.69 464.024 2832.69 465.944C2832.69 468.104 2833.74 469.832 2835.9 469.832C2839.02 469.832 2840.56 467.48 2840.56 463.688ZM2850.97 473V438.728H2856.15V473H2850.97ZM2870.6 451.016V447.176H2874.15V439.832H2879.33V447.176H2883.56V451.016H2879.33V466.424C2879.33 468.44 2879.91 469.16 2881.69 469.16C2882.45 469.16 2883.08 469.112 2883.56 469.016V472.856C2882.45 473.144 2881.01 473.288 2879.38 473.288C2875.88 473.288 2874.15 472.328 2874.15 467.048V451.016H2870.6ZM2904.21 460.76H2890.73V462.248C2890.73 465.704 2891.16 470.12 2895.05 470.12C2898.74 470.12 2899.17 465.896 2899.17 464.36H2904.07C2904.07 470.072 2900.61 473.672 2895 473.672C2890.77 473.672 2885.54 472.424 2885.54 460.472C2885.54 453.704 2886.98 446.504 2895.09 446.504C2902.29 446.504 2904.21 450.824 2904.21 458.024V460.76ZM2890.73 457.208H2899.03V455.816C2899.03 452.552 2897.97 450.056 2895.05 450.056C2891.73 450.056 2890.73 453.32 2890.73 456.68V457.208ZM2921.01 463.592H2925.9C2925.57 469.784 2923.46 473.672 2917.07 473.672C2909.58 473.672 2907.47 468.104 2907.47 460.088C2907.47 452.072 2909.58 446.504 2917.07 446.504C2924.8 446.408 2925.95 452.552 2925.95 455.768H2920.77C2920.77 453.368 2920.1 450.248 2917.07 450.344C2913.33 450.344 2912.66 454.376 2912.66 460.088C2912.66 465.8 2913.33 469.832 2917.07 469.832C2919.95 469.88 2921.01 467.48 2921.01 463.592ZM2929.53 473V438.728H2934.71V449.96L2934.86 450.056C2936.3 447.848 2938.55 446.504 2941.19 446.504C2945.13 446.504 2947.62 448.28 2947.62 453.512V473H2942.44V455.288C2942.44 451.928 2941.43 450.632 2938.84 450.632C2936.73 450.632 2934.71 452.312 2934.71 455.672V473H2929.53ZM2952.64 473V447.176H2957.53V450.2H2957.68C2958.97 447.896 2961.42 446.504 2964.3 446.504C2968.24 446.504 2970.73 448.28 2970.73 453.512V473H2965.55V455.288C2965.55 451.928 2964.54 450.632 2961.95 450.632C2959.84 450.632 2957.82 452.312 2957.82 455.672V473H2952.64ZM2974.74 460.088C2974.74 452.072 2976.85 446.504 2984.34 446.504C2991.87 446.504 2993.99 452.072 2993.99 460.088C2993.99 468.104 2991.54 473.672 2984.34 473.672C2977.19 473.672 2974.74 468.104 2974.74 460.088ZM2979.92 460.088C2979.92 466.664 2980.59 469.832 2984.34 469.832C2988.13 469.832 2988.8 466.664 2988.8 460.088C2988.8 454.376 2988.13 450.344 2984.34 450.344C2980.59 450.344 2979.92 454.376 2979.92 460.088ZM2998.2 473V438.728H3003.39V473H2998.2ZM3007.6 460.088C3007.6 452.072 3009.71 446.504 3017.2 446.504C3024.73 446.504 3026.85 452.072 3026.85 460.088C3026.85 468.104 3024.4 473.672 3017.2 473.672C3010.05 473.672 3007.6 468.104 3007.6 460.088ZM3012.78 460.088C3012.78 466.664 3013.45 469.832 3017.2 469.832C3020.99 469.832 3021.66 466.664 3021.66 460.088C3021.66 454.376 3020.99 450.344 3017.2 450.344C3013.45 450.344 3012.78 454.376 3012.78 460.088ZM3031.11 475.208H3036.01C3036.01 476.792 3037.45 478.28 3039.75 478.28C3042.44 478.28 3044.12 476.408 3044.12 473.432V469.256H3044.02C3043.06 471.512 3040.66 472.808 3038.17 472.808C3032.12 472.808 3030.44 466.856 3030.44 459.8C3030.44 454.136 3031.3 446.504 3038.65 446.504C3041.67 446.504 3043.83 448.472 3044.31 450.344H3044.41V447.176H3049.3V471.752C3049.3 478.04 3046.62 481.832 3039.66 481.832C3031.98 481.832 3031.11 477.32 3031.11 475.208ZM3035.62 459.272C3035.62 463.688 3035.82 468.68 3039.66 468.68C3043.69 468.68 3044.12 463.592 3044.12 459.512C3044.12 455.288 3043.59 450.632 3039.99 450.632C3036.25 450.632 3035.62 454.472 3035.62 459.272ZM3051.82 447.176H3057.39L3061.85 466.568H3061.95L3066.08 447.176H3071.5L3064.4 473.96C3062.38 481.016 3060.7 481.928 3055.37 481.832C3054.7 481.832 3053.98 481.736 3053.31 481.64V477.512C3053.89 477.608 3054.41 477.704 3054.99 477.704C3056.77 477.704 3057.92 477.32 3058.49 475.688L3059.17 473.576L3051.82 447.176Z" fill="#4000FF"/>
<path d="M3333.34 473.672C3325.47 473.672 3322.02 468.104 3322.02 455.864C3322.02 443.624 3325.47 438.056 3333.34 438.056C3341.22 438.056 3344.67 443.624 3344.67 455.864C3344.67 468.104 3341.22 473.672 3333.34 473.672ZM3333.34 469.544C3336.61 469.544 3339.2 467.528 3339.2 455.72C3339.2 444.2 3336.61 442.184 3333.34 442.184C3330.08 442.184 3327.49 444.2 3327.49 455.72C3327.49 467.528 3330.08 469.544 3333.34 469.544ZM3349.17 481.448V447.176H3354.06V450.344H3354.16C3355.22 448.04 3357.14 446.504 3359.97 446.504C3365.87 446.504 3368.27 451.544 3368.27 460.424C3368.27 471.272 3363.86 473.672 3360.3 473.672C3357.52 473.672 3355.41 472.28 3354.45 469.976H3354.35V481.448H3349.17ZM3354.06 459.8C3354.06 465.992 3354.83 469.544 3358.48 469.544C3361.46 469.544 3362.8 467.336 3362.8 460.184C3362.8 454.328 3362.03 450.632 3358.43 450.632C3354.88 450.632 3354.06 454.28 3354.06 459.8ZM3369.97 451.016V447.176H3373.53V439.832H3378.71V447.176H3382.93V451.016H3378.71V466.424C3378.71 468.44 3379.29 469.16 3381.06 469.16C3381.83 469.16 3382.45 469.112 3382.93 469.016V472.856C3381.83 473.144 3380.39 473.288 3378.76 473.288C3375.25 473.288 3373.53 472.328 3373.53 467.048V451.016H3369.97ZM3385.88 473V447.176H3391.06V473H3385.88ZM3385.88 443.528V438.344H3391.06V443.528H3385.88ZM3408.81 463.592H3413.7C3413.37 469.784 3411.25 473.672 3404.87 473.672C3397.38 473.672 3395.27 468.104 3395.27 460.088C3395.27 452.072 3397.38 446.504 3404.87 446.504C3412.6 446.408 3413.75 452.552 3413.75 455.768H3408.57C3408.57 453.368 3407.89 450.248 3404.87 450.344C3401.13 450.344 3400.45 454.376 3400.45 460.088C3400.45 465.8 3401.13 469.832 3404.87 469.832C3407.75 469.88 3408.81 467.48 3408.81 463.592ZM3434.55 452.84V467.624C3434.55 468.584 3435.13 469.448 3435.89 469.448C3436.23 469.448 3436.57 469.4 3436.76 469.304V472.664C3436.13 472.952 3435.22 473.288 3434.21 473.288C3431.91 473.288 3429.99 472.376 3429.85 469.88H3429.75C3428.36 472.424 3426.34 473.672 3423.32 473.672C3419.19 473.672 3416.6 471.368 3416.6 466.424C3416.6 460.664 3419.09 459.464 3422.6 458.312L3426.63 457.208C3428.5 456.68 3429.65 456.152 3429.65 453.896C3429.65 451.544 3428.84 450.056 3426.1 450.056C3422.65 450.056 3422.17 452.504 3422.17 455H3417.27C3417.27 449.528 3419.53 446.504 3426.34 446.504C3430.9 446.504 3434.55 448.28 3434.55 452.84ZM3429.65 463.688V459.368C3428.31 460.424 3425.43 461.048 3423.89 461.768C3422.41 462.488 3421.78 464.024 3421.78 465.944C3421.78 468.104 3422.84 469.832 3425 469.832C3428.12 469.832 3429.65 467.48 3429.65 463.688ZM3440.06 473V438.728H3445.25V473H3440.06ZM3462.24 473V447.176H3467.42V473H3462.24ZM3462.24 443.528V438.344H3467.42V443.528H3462.24ZM3472.88 473V438.728H3478.06V473H3472.88ZM3483.52 473V438.728H3488.7V473H3483.52ZM3507.12 473V469.976H3506.97C3505.68 472.28 3503.23 473.672 3500.35 473.672C3496.51 473.672 3493.92 471.896 3493.92 465.224V447.176H3499.1V465.704C3499.1 468.584 3500.4 469.544 3502.61 469.544C3504.81 469.544 3506.83 468.104 3506.83 465.224V447.176H3512.01V473H3507.12ZM3533.06 454.712H3528.16V454.04C3528.16 451.976 3527.44 450.056 3524.76 450.056C3522.69 450.056 3521.06 451.016 3521.06 453.416C3521.06 455.432 3521.97 456.248 3524.71 457.208L3528.02 458.36C3531.86 459.656 3533.64 461.72 3533.64 465.8C3533.64 471.32 3529.6 473.672 3524.37 473.672C3517.84 473.672 3515.88 470.648 3515.88 465.656V464.696H3520.48V465.512C3520.48 468.488 3521.54 470.12 3524.52 470.12C3527.35 470.12 3528.74 468.68 3528.74 466.328C3528.74 464.408 3527.73 463.16 3525.91 462.536L3521.68 461.048C3517.8 459.704 3516.16 457.736 3516.16 453.608C3516.16 448.76 3519.67 446.504 3525 446.504C3531.57 446.504 3533.06 450.344 3533.06 453.56V454.712ZM3537.7 473V447.176H3542.89V473H3537.7ZM3537.7 443.528V438.344H3542.89V443.528H3537.7ZM3547.1 460.088C3547.1 452.072 3549.21 446.504 3556.7 446.504C3564.23 446.504 3566.35 452.072 3566.35 460.088C3566.35 468.104 3563.9 473.672 3556.7 473.672C3549.55 473.672 3547.1 468.104 3547.1 460.088ZM3552.28 460.088C3552.28 466.664 3552.95 469.832 3556.7 469.832C3560.49 469.832 3561.16 466.664 3561.16 460.088C3561.16 454.376 3560.49 450.344 3556.7 450.344C3552.95 450.344 3552.28 454.376 3552.28 460.088ZM3570.32 473V447.176H3575.22V450.2H3575.36C3576.66 447.896 3579.11 446.504 3581.99 446.504C3585.92 446.504 3588.42 448.28 3588.42 453.512V473H3583.24V455.288C3583.24 451.928 3582.23 450.632 3579.64 450.632C3577.52 450.632 3575.51 452.312 3575.51 455.672V473H3570.32Z" fill="#4000FF"/>
<path d="M770.832 473V438.728H777.504L787.44 464.264H787.536V438.728H792.72V473H786.048L776.112 446.792H776.016V473H770.832ZM809.59 481.448V447.176H814.486V450.344H814.582C815.638 448.04 817.558 446.504 820.39 446.504C826.294 446.504 828.694 451.544 828.694 460.424C828.694 471.272 824.278 473.672 820.726 473.672C817.942 473.672 815.83 472.28 814.87 469.976H814.774V481.448H809.59ZM814.486 459.8C814.486 465.992 815.254 469.544 818.902 469.544C821.878 469.544 823.222 467.336 823.222 460.184C823.222 454.328 822.454 450.632 818.854 450.632C815.302 450.632 814.486 454.28 814.486 459.8ZM832.939 473V447.176H838.123V473H832.939ZM832.939 443.528V438.344H838.123V443.528H832.939ZM840.988 473L848.044 459.608L841.372 447.176H847.036L851.068 455.72L855.292 447.176H860.86L854.14 459.608L861.148 473H855.532L851.02 463.448L846.508 473H840.988ZM881.729 460.76H868.241V462.248C868.241 465.704 868.673 470.12 872.561 470.12C876.257 470.12 876.689 465.896 876.689 464.36H881.585C881.585 470.072 878.129 473.672 872.513 473.672C868.289 473.672 863.057 472.424 863.057 460.472C863.057 453.704 864.497 446.504 872.609 446.504C879.809 446.504 881.729 450.824 881.729 458.024V460.76ZM868.241 457.208H876.545V455.816C876.545 452.552 875.489 450.056 872.561 450.056C869.249 450.056 868.241 453.32 868.241 456.68V457.208ZM886.236 473V438.728H891.42V473H886.236Z" fill="#4000FF"/>
<path d="M2630.78 588V584.016H2630.68C2629.19 587.184 2627.22 588.672 2623.19 588.672C2615.7 588.672 2613.02 583.104 2613.02 570.864C2613.02 558.624 2616.47 553.056 2624.39 553.056C2632.98 553.056 2634.42 559.824 2634.42 562.944V563.568H2629.24V562.752C2629.24 560.208 2628.18 557.184 2624.44 557.184C2620.55 557.184 2618.49 559.776 2618.49 570.72C2618.49 581.76 2620.31 584.544 2624.01 584.544C2628.18 584.592 2629.72 581.568 2629.72 574.08H2623.96V569.952H2634.9V588H2630.78ZM2639.52 588V553.728H2644.7V588H2639.52ZM2666.86 567.84V582.624C2666.86 583.584 2667.44 584.448 2668.21 584.448C2668.54 584.448 2668.88 584.4 2669.07 584.304V587.664C2668.45 587.952 2667.53 588.288 2666.53 588.288C2664.22 588.288 2662.3 587.376 2662.16 584.88H2662.06C2660.67 587.424 2658.65 588.672 2655.63 588.672C2651.5 588.672 2648.91 586.368 2648.91 581.424C2648.91 575.664 2651.41 574.464 2654.91 573.312L2658.94 572.208C2660.81 571.68 2661.97 571.152 2661.97 568.896C2661.97 566.544 2661.15 565.056 2658.41 565.056C2654.96 565.056 2654.48 567.504 2654.48 570H2649.58C2649.58 564.528 2651.84 561.504 2658.65 561.504C2663.21 561.504 2666.86 563.28 2666.86 567.84ZM2661.97 578.688V574.368C2660.62 575.424 2657.74 576.048 2656.21 576.768C2654.72 577.488 2654.09 579.024 2654.09 580.944C2654.09 583.104 2655.15 584.832 2657.31 584.832C2660.43 584.832 2661.97 582.48 2661.97 578.688ZM2688.17 569.712H2683.27V569.04C2683.27 566.976 2682.55 565.056 2679.86 565.056C2677.8 565.056 2676.17 566.016 2676.17 568.416C2676.17 570.432 2677.08 571.248 2679.82 572.208L2683.13 573.36C2686.97 574.656 2688.74 576.72 2688.74 580.8C2688.74 586.32 2684.71 588.672 2679.48 588.672C2672.95 588.672 2670.98 585.648 2670.98 580.656V579.696H2675.59V580.512C2675.59 583.488 2676.65 585.12 2679.62 585.12C2682.46 585.12 2683.85 583.68 2683.85 581.328C2683.85 579.408 2682.84 578.16 2681.02 577.536L2676.79 576.048C2672.9 574.704 2671.27 572.736 2671.27 568.608C2671.27 563.76 2674.78 561.504 2680.1 561.504C2686.68 561.504 2688.17 565.344 2688.17 568.56V569.712ZM2708.61 569.712H2703.71V569.04C2703.71 566.976 2702.99 565.056 2700.3 565.056C2698.24 565.056 2696.61 566.016 2696.61 568.416C2696.61 570.432 2697.52 571.248 2700.25 572.208L2703.57 573.36C2707.41 574.656 2709.18 576.72 2709.18 580.8C2709.18 586.32 2705.15 588.672 2699.92 588.672C2693.39 588.672 2691.42 585.648 2691.42 580.656V579.696H2696.03V580.512C2696.03 583.488 2697.09 585.12 2700.06 585.12C2702.89 585.12 2704.29 583.68 2704.29 581.328C2704.29 579.408 2703.28 578.16 2701.45 577.536L2697.23 576.048C2693.34 574.704 2691.71 572.736 2691.71 568.608C2691.71 563.76 2695.21 561.504 2700.54 561.504C2707.12 561.504 2708.61 565.344 2708.61 568.56V569.712ZM2724.78 588V553.728H2729.97V588H2724.78ZM2752.13 567.84V582.624C2752.13 583.584 2752.7 584.448 2753.47 584.448C2753.81 584.448 2754.14 584.4 2754.34 584.304V587.664C2753.71 587.952 2752.8 588.288 2751.79 588.288C2749.49 588.288 2747.57 587.376 2747.42 584.88H2747.33C2745.94 587.424 2743.92 588.672 2740.9 588.672C2736.77 588.672 2734.18 586.368 2734.18 581.424C2734.18 575.664 2736.67 574.464 2740.18 573.312L2744.21 572.208C2746.08 571.68 2747.23 571.152 2747.23 568.896C2747.23 566.544 2746.42 565.056 2743.68 565.056C2740.22 565.056 2739.74 567.504 2739.74 570H2734.85C2734.85 564.528 2737.1 561.504 2743.92 561.504C2748.48 561.504 2752.13 563.28 2752.13 567.84ZM2747.23 578.688V574.368C2745.89 575.424 2743.01 576.048 2741.47 576.768C2739.98 577.488 2739.36 579.024 2739.36 580.944C2739.36 583.104 2740.42 584.832 2742.58 584.832C2745.7 584.832 2747.23 582.48 2747.23 578.688ZM2755.29 562.176H2760.86L2765.32 581.568H2765.42L2769.55 562.176H2774.97L2767.87 588.96C2765.85 596.016 2764.17 596.928 2758.84 596.832C2758.17 596.832 2757.45 596.736 2756.78 596.64V592.512C2757.35 592.608 2757.88 592.704 2758.46 592.704C2760.23 592.704 2761.39 592.32 2761.96 590.688L2762.63 588.576L2755.29 562.176ZM2795.51 575.76H2782.02V577.248C2782.02 580.704 2782.45 585.12 2786.34 585.12C2790.04 585.12 2790.47 580.896 2790.47 579.36H2795.37C2795.37 585.072 2791.91 588.672 2786.29 588.672C2782.07 588.672 2776.84 587.424 2776.84 575.472C2776.84 568.704 2778.28 561.504 2786.39 561.504C2793.59 561.504 2795.51 565.824 2795.51 573.024V575.76ZM2782.02 572.208H2790.33V570.816C2790.33 567.552 2789.27 565.056 2786.34 565.056C2783.03 565.056 2782.02 568.32 2782.02 571.68V572.208ZM2799.78 588V562.176H2804.96V566.208H2805.06C2806.21 563.328 2808.13 561.504 2811.06 561.504C2811.63 561.504 2811.97 561.6 2812.31 561.696V566.976C2811.92 566.88 2811.01 566.688 2810.15 566.688C2807.79 566.688 2804.96 567.744 2804.96 572.544V588H2799.78Z" fill="#4000FF" fill-opacity="0.25"/>
<path d="M2630.78 358V354.016H2630.68C2629.19 357.184 2627.22 358.672 2623.19 358.672C2615.7 358.672 2613.02 353.104 2613.02 340.864C2613.02 328.624 2616.47 323.056 2624.39 323.056C2632.98 323.056 2634.42 329.824 2634.42 332.944V333.568H2629.24V332.752C2629.24 330.208 2628.18 327.184 2624.44 327.184C2620.55 327.184 2618.49 329.776 2618.49 340.72C2618.49 351.76 2620.31 354.544 2624.01 354.544C2628.18 354.592 2629.72 351.568 2629.72 344.08H2623.96V339.952H2634.9V358H2630.78ZM2639.52 358V323.728H2644.7V358H2639.52ZM2666.86 337.84V352.624C2666.86 353.584 2667.44 354.448 2668.21 354.448C2668.54 354.448 2668.88 354.4 2669.07 354.304V357.664C2668.45 357.952 2667.53 358.288 2666.53 358.288C2664.22 358.288 2662.3 357.376 2662.16 354.88H2662.06C2660.67 357.424 2658.65 358.672 2655.63 358.672C2651.5 358.672 2648.91 356.368 2648.91 351.424C2648.91 345.664 2651.41 344.464 2654.91 343.312L2658.94 342.208C2660.81 341.68 2661.97 341.152 2661.97 338.896C2661.97 336.544 2661.15 335.056 2658.41 335.056C2654.96 335.056 2654.48 337.504 2654.48 340H2649.58C2649.58 334.528 2651.84 331.504 2658.65 331.504C2663.21 331.504 2666.86 333.28 2666.86 337.84ZM2661.97 348.688V344.368C2660.62 345.424 2657.74 346.048 2656.21 346.768C2654.72 347.488 2654.09 349.024 2654.09 350.944C2654.09 353.104 2655.15 354.832 2657.31 354.832C2660.43 354.832 2661.97 352.48 2661.97 348.688ZM2688.17 339.712H2683.27V339.04C2683.27 336.976 2682.55 335.056 2679.86 335.056C2677.8 335.056 2676.17 336.016 2676.17 338.416C2676.17 340.432 2677.08 341.248 2679.82 342.208L2683.13 343.36C2686.97 344.656 2688.74 346.72 2688.74 350.8C2688.74 356.32 2684.71 358.672 2679.48 358.672C2672.95 358.672 2670.98 355.648 2670.98 350.656V349.696H2675.59V350.512C2675.59 353.488 2676.65 355.12 2679.62 355.12C2682.46 355.12 2683.85 353.68 2683.85 351.328C2683.85 349.408 2682.84 348.16 2681.02 347.536L2676.79 346.048C2672.9 344.704 2671.27 342.736 2671.27 338.608C2671.27 333.76 2674.78 331.504 2680.1 331.504C2686.68 331.504 2688.17 335.344 2688.17 338.56V339.712ZM2708.61 339.712H2703.71V339.04C2703.71 336.976 2702.99 335.056 2700.3 335.056C2698.24 335.056 2696.61 336.016 2696.61 338.416C2696.61 340.432 2697.52 341.248 2700.25 342.208L2703.57 343.36C2707.41 344.656 2709.18 346.72 2709.18 350.8C2709.18 356.32 2705.15 358.672 2699.92 358.672C2693.39 358.672 2691.42 355.648 2691.42 350.656V349.696H2696.03V350.512C2696.03 353.488 2697.09 355.12 2700.06 355.12C2702.89 355.12 2704.29 353.68 2704.29 351.328C2704.29 349.408 2703.28 348.16 2701.45 347.536L2697.23 346.048C2693.34 344.704 2691.71 342.736 2691.71 338.608C2691.71 333.76 2695.21 331.504 2700.54 331.504C2707.12 331.504 2708.61 335.344 2708.61 338.56V339.712ZM2724.78 358V323.728H2729.97V358H2724.78ZM2752.13 337.84V352.624C2752.13 353.584 2752.7 354.448 2753.47 354.448C2753.81 354.448 2754.14 354.4 2754.34 354.304V357.664C2753.71 357.952 2752.8 358.288 2751.79 358.288C2749.49 358.288 2747.57 357.376 2747.42 354.88H2747.33C2745.94 357.424 2743.92 358.672 2740.9 358.672C2736.77 358.672 2734.18 356.368 2734.18 351.424C2734.18 345.664 2736.67 344.464 2740.18 343.312L2744.21 342.208C2746.08 341.68 2747.23 341.152 2747.23 338.896C2747.23 336.544 2746.42 335.056 2743.68 335.056C2740.22 335.056 2739.74 337.504 2739.74 340H2734.85C2734.85 334.528 2737.1 331.504 2743.92 331.504C2748.48 331.504 2752.13 333.28 2752.13 337.84ZM2747.23 348.688V344.368C2745.89 345.424 2743.01 346.048 2741.47 346.768C2739.98 347.488 2739.36 349.024 2739.36 350.944C2739.36 353.104 2740.42 354.832 2742.58 354.832C2745.7 354.832 2747.23 352.48 2747.23 348.688ZM2755.29 332.176H2760.86L2765.32 351.568H2765.42L2769.55 332.176H2774.97L2767.87 358.96C2765.85 366.016 2764.17 366.928 2758.84 366.832C2758.17 366.832 2757.45 366.736 2756.78 366.64V362.512C2757.35 362.608 2757.88 362.704 2758.46 362.704C2760.23 362.704 2761.39 362.32 2761.96 360.688L2762.63 358.576L2755.29 332.176ZM2795.51 345.76H2782.02V347.248C2782.02 350.704 2782.45 355.12 2786.34 355.12C2790.04 355.12 2790.47 350.896 2790.47 349.36H2795.37C2795.37 355.072 2791.91 358.672 2786.29 358.672C2782.07 358.672 2776.84 357.424 2776.84 345.472C2776.84 338.704 2778.28 331.504 2786.39 331.504C2793.59 331.504 2795.51 335.824 2795.51 343.024V345.76ZM2782.02 342.208H2790.33V340.816C2790.33 337.552 2789.27 335.056 2786.34 335.056C2783.03 335.056 2782.02 338.32 2782.02 341.68V342.208ZM2799.78 358V332.176H2804.96V336.208H2805.06C2806.21 333.328 2808.13 331.504 2811.06 331.504C2811.63 331.504 2811.97 331.6 2812.31 331.696V336.976C2811.92 336.88 2811.01 336.688 2810.15 336.688C2807.79 336.688 2804.96 337.744 2804.96 342.544V358H2799.78Z" fill="#4000FF" fill-opacity="0.25"/>
<path d="M2629.43 836.712H2634.9V837.432C2634.9 843.624 2632.41 849.672 2624.34 849.672C2615.7 849.672 2613.02 844.104 2613.02 831.864C2613.02 819.624 2615.7 814.056 2624.39 814.056C2634.14 814.056 2634.71 821.256 2634.71 824.808V825.432H2629.24V824.856C2629.24 821.688 2628.28 818.04 2624.34 818.184C2620.31 818.184 2618.49 820.68 2618.49 831.72C2618.49 842.76 2620.31 845.544 2624.34 845.544C2628.9 845.544 2629.43 840.456 2629.43 837.288V836.712ZM2655.33 828.84V843.624C2655.33 844.584 2655.91 845.448 2656.67 845.448C2657.01 845.448 2657.35 845.4 2657.54 845.304V848.664C2656.91 848.952 2656 849.288 2654.99 849.288C2652.69 849.288 2650.77 848.376 2650.63 845.88H2650.53C2649.14 848.424 2647.12 849.672 2644.1 849.672C2639.97 849.672 2637.38 847.368 2637.38 842.424C2637.38 836.664 2639.87 835.464 2643.38 834.312L2647.41 833.208C2649.28 832.68 2650.43 832.152 2650.43 829.896C2650.43 827.544 2649.62 826.056 2646.88 826.056C2643.43 826.056 2642.95 828.504 2642.95 831H2638.05C2638.05 825.528 2640.31 822.504 2647.12 822.504C2651.68 822.504 2655.33 824.28 2655.33 828.84ZM2650.43 839.688V835.368C2649.09 836.424 2646.21 837.048 2644.67 837.768C2643.19 838.488 2642.56 840.024 2642.56 841.944C2642.56 844.104 2643.62 845.832 2645.78 845.832C2648.9 845.832 2650.43 843.48 2650.43 839.688ZM2660.61 849V823.176H2665.79V827.208H2665.89C2667.04 824.328 2668.96 822.504 2671.89 822.504C2672.46 822.504 2672.8 822.6 2673.13 822.696V827.976C2672.75 827.88 2671.84 827.688 2670.97 827.688C2668.62 827.688 2665.79 828.744 2665.79 833.544V849H2660.61ZM2687.28 849V814.728H2692.46V826.2H2692.56C2693.52 823.896 2695.63 822.504 2698.41 822.504C2702.35 822.504 2706.38 824.28 2706.38 835.752C2706.38 844.632 2703.98 849.672 2697.93 849.672C2694.24 849.672 2692.94 847.512 2692.27 845.832H2692.17V849H2687.28ZM2692.17 836.376C2692.17 841.896 2692.99 845.544 2696.54 845.544C2700.14 845.544 2700.91 841.848 2700.91 835.992C2700.91 829.032 2699.85 826.632 2696.88 826.632C2692.89 826.632 2692.17 830.184 2692.17 836.376ZM2709.38 836.088C2709.38 828.072 2711.49 822.504 2718.98 822.504C2726.51 822.504 2728.63 828.072 2728.63 836.088C2728.63 844.104 2726.18 849.672 2718.98 849.672C2711.83 849.672 2709.38 844.104 2709.38 836.088ZM2714.56 836.088C2714.56 842.664 2715.23 845.832 2718.98 845.832C2722.77 845.832 2723.44 842.664 2723.44 836.088C2723.44 830.376 2722.77 826.344 2718.98 826.344C2715.23 826.344 2714.56 830.376 2714.56 836.088ZM2745.81 849V845.832H2745.71C2745.04 847.512 2743.74 849.672 2740.05 849.672C2734 849.672 2731.6 844.632 2731.6 835.752C2731.6 824.28 2735.63 822.504 2739.57 822.504C2742.35 822.504 2744.46 823.896 2745.42 826.2H2745.52V814.728H2750.7V849H2745.81ZM2745.81 836.376C2745.81 830.184 2745.09 826.632 2741.1 826.632C2738.13 826.632 2737.07 829.032 2737.07 835.992C2737.07 841.848 2737.84 845.544 2741.44 845.544C2744.99 845.544 2745.81 841.896 2745.81 836.376ZM2753.32 823.176H2758.89L2763.35 842.568H2763.45L2767.58 823.176H2773L2765.9 849.96C2763.88 857.016 2762.2 857.928 2756.87 857.832C2756.2 857.832 2755.48 857.736 2754.81 857.64V853.512C2755.39 853.608 2755.91 853.704 2756.49 853.704C2758.27 853.704 2759.42 853.32 2759.99 851.688L2760.67 849.576L2753.32 823.176Z" fill="#4000FF" fill-opacity="0.25"/>
</svg>
