<svg width="3840" height="1295" viewBox="0 0 3840 1295" fill="none" xmlns="http://www.w3.org/2000/svg">
<path d="M347.448 253V223.336H339.288V218.728H360.936V223.336H352.92V253H347.448ZM378.104 240.76H364.616V242.248C364.616 245.704 365.048 250.12 368.936 250.12C372.632 250.12 373.064 245.896 373.064 244.36H377.96C377.96 250.072 374.504 253.672 368.888 253.672C364.664 253.672 359.432 252.424 359.432 240.472C359.432 233.704 360.872 226.504 368.984 226.504C376.184 226.504 378.104 230.824 378.104 238.024V240.76ZM364.616 237.208H372.92V235.816C372.92 232.552 371.864 230.056 368.936 230.056C365.624 230.056 364.616 233.32 364.616 236.68V237.208ZM399.315 232.84V247.624C399.315 248.584 399.891 249.448 400.659 249.448C400.995 249.448 401.331 249.4 401.523 249.304V252.664C400.899 252.952 399.987 253.288 398.979 253.288C396.675 253.288 394.755 252.376 394.611 249.88H394.515C393.123 252.424 391.107 253.672 388.083 253.672C383.955 253.672 381.363 251.368 381.363 246.424C381.363 240.664 383.859 239.464 387.363 238.312L391.395 237.208C393.267 236.68 394.419 236.152 394.419 233.896C394.419 231.544 393.603 230.056 390.867 230.056C387.411 230.056 386.931 232.504 386.931 235H382.035C382.035 229.528 384.291 226.504 391.107 226.504C395.667 226.504 399.315 228.28 399.315 232.84ZM394.419 243.688V239.368C393.075 240.424 390.195 241.048 388.659 241.768C387.171 242.488 386.547 244.024 386.547 245.944C386.547 248.104 387.603 249.832 389.763 249.832C392.883 249.832 394.419 247.48 394.419 243.688ZM404.59 253V227.176H409.774V231.208H409.87C411.022 228.328 412.942 226.504 415.87 226.504C416.446 226.504 416.782 226.6 417.118 226.696V231.976C416.734 231.88 415.822 231.688 414.958 231.688C412.606 231.688 409.774 232.744 409.774 237.544V253H404.59ZM432.649 253V249.832H432.553C431.881 251.512 430.585 253.672 426.889 253.672C420.841 253.672 418.441 248.632 418.441 239.752C418.441 228.28 422.473 226.504 426.409 226.504C429.193 226.504 431.305 227.896 432.265 230.2H432.361V218.728H437.545V253H432.649ZM432.649 240.376C432.649 234.184 431.929 230.632 427.945 230.632C424.969 230.632 423.913 233.032 423.913 239.992C423.913 245.848 424.681 249.544 428.281 249.544C431.833 249.544 432.649 245.896 432.649 240.376ZM442.559 253V227.176H447.743V231.208H447.839C448.991 228.328 450.911 226.504 453.839 226.504C454.415 226.504 454.751 226.6 455.087 226.696V231.976C454.703 231.88 453.791 231.688 452.927 231.688C450.575 231.688 447.743 232.744 447.743 237.544V253H442.559ZM456.691 240.088C456.691 232.072 458.803 226.504 466.291 226.504C473.827 226.504 475.939 232.072 475.939 240.088C475.939 248.104 473.491 253.672 466.291 253.672C459.139 253.672 456.691 248.104 456.691 240.088ZM461.875 240.088C461.875 246.664 462.547 249.832 466.291 249.832C470.083 249.832 470.755 246.664 470.755 240.088C470.755 234.376 470.083 230.344 466.291 230.344C462.547 230.344 461.875 234.376 461.875 240.088ZM479.918 261.448V227.176H484.814V230.344H484.91C485.966 228.04 487.886 226.504 490.718 226.504C496.622 226.504 499.022 231.544 499.022 240.424C499.022 251.272 494.606 253.672 491.054 253.672C488.27 253.672 486.158 252.28 485.198 249.976H485.102V261.448H479.918ZM484.814 239.8C484.814 245.992 485.582 249.544 489.23 249.544C492.206 249.544 493.55 247.336 493.55 240.184C493.55 234.328 492.782 230.632 489.182 230.632C485.63 230.632 484.814 234.28 484.814 239.8ZM502.691 241.576V236.68H515.267V241.576H502.691ZM535.934 234.712H531.038V234.04C531.038 231.976 530.318 230.056 527.63 230.056C525.566 230.056 523.934 231.016 523.934 233.416C523.934 235.432 524.846 236.248 527.582 237.208L530.894 238.36C534.734 239.656 536.51 241.72 536.51 245.8C536.51 251.32 532.478 253.672 527.246 253.672C520.718 253.672 518.75 250.648 518.75 245.656V244.696H523.358V245.512C523.358 248.488 524.414 250.12 527.39 250.12C530.222 250.12 531.614 248.68 531.614 246.328C531.614 244.408 530.606 243.16 528.782 242.536L524.558 241.048C520.67 239.704 519.038 237.736 519.038 233.608C519.038 228.76 522.542 226.504 527.87 226.504C534.446 226.504 535.934 230.344 535.934 233.56V234.712ZM540.34 253V218.728H545.524V229.96L545.668 230.056C547.108 227.848 549.364 226.504 552.004 226.504C555.94 226.504 558.436 228.28 558.436 233.512V253H553.252V235.288C553.252 231.928 552.244 230.632 549.652 230.632C547.54 230.632 545.524 232.312 545.524 235.672V253H540.34ZM580.393 232.84V247.624C580.393 248.584 580.969 249.448 581.737 249.448C582.073 249.448 582.409 249.4 582.601 249.304V252.664C581.977 252.952 581.065 253.288 580.057 253.288C577.753 253.288 575.833 252.376 575.689 249.88H575.593C574.201 252.424 572.185 253.672 569.161 253.672C565.033 253.672 562.441 251.368 562.441 246.424C562.441 240.664 564.937 239.464 568.441 238.312L572.473 237.208C574.345 236.68 575.497 236.152 575.497 233.896C575.497 231.544 574.681 230.056 571.945 230.056C568.489 230.056 568.009 232.504 568.009 235H563.113C563.113 229.528 565.369 226.504 572.185 226.504C576.745 226.504 580.393 228.28 580.393 232.84ZM575.497 243.688V239.368C574.153 240.424 571.273 241.048 569.737 241.768C568.249 242.488 567.625 244.024 567.625 245.944C567.625 248.104 568.681 249.832 570.841 249.832C573.961 249.832 575.497 247.48 575.497 243.688ZM585.668 261.448V227.176H590.564V230.344H590.66C591.716 228.04 593.636 226.504 596.468 226.504C602.372 226.504 604.772 231.544 604.772 240.424C604.772 251.272 600.356 253.672 596.804 253.672C594.02 253.672 591.908 252.28 590.948 249.976H590.852V261.448H585.668ZM590.564 239.8C590.564 245.992 591.332 249.544 594.98 249.544C597.956 249.544 599.3 247.336 599.3 240.184C599.3 234.328 598.532 230.632 594.932 230.632C591.38 230.632 590.564 234.28 590.564 239.8ZM626.729 240.76H613.241V242.248C613.241 245.704 613.673 250.12 617.561 250.12C621.257 250.12 621.689 245.896 621.689 244.36H626.585C626.585 250.072 623.129 253.672 617.513 253.672C613.289 253.672 608.057 252.424 608.057 240.472C608.057 233.704 609.497 226.504 617.609 226.504C624.809 226.504 626.729 230.824 626.729 238.024V240.76ZM613.241 237.208H621.545V235.816C621.545 232.552 620.489 230.056 617.561 230.056C614.249 230.056 613.241 233.32 613.241 236.68V237.208ZM644.196 253V249.832H644.1C643.428 251.512 642.132 253.672 638.436 253.672C632.388 253.672 629.988 248.632 629.988 239.752C629.988 228.28 634.02 226.504 637.956 226.504C640.74 226.504 642.852 227.896 643.812 230.2H643.908V218.728H649.092V253H644.196ZM644.196 240.376C644.196 234.184 643.476 230.632 639.492 230.632C636.516 230.632 635.46 233.032 635.46 239.992C635.46 245.848 636.228 249.544 639.828 249.544C643.38 249.544 644.196 245.896 644.196 240.376ZM665.637 261.448V227.176H670.533V230.344H670.629C671.685 228.04 673.605 226.504 676.437 226.504C682.341 226.504 684.741 231.544 684.741 240.424C684.741 251.272 680.325 253.672 676.773 253.672C673.989 253.672 671.877 252.28 670.917 249.976H670.821V261.448H665.637ZM670.533 239.8C670.533 245.992 671.301 249.544 674.949 249.544C677.925 249.544 679.269 247.336 679.269 240.184C679.269 234.328 678.501 230.632 674.901 230.632C671.349 230.632 670.533 234.28 670.533 239.8ZM706.698 240.76H693.21V242.248C693.21 245.704 693.642 250.12 697.53 250.12C701.226 250.12 701.658 245.896 701.658 244.36H706.554C706.554 250.072 703.098 253.672 697.482 253.672C693.258 253.672 688.026 252.424 688.026 240.472C688.026 233.704 689.466 226.504 697.578 226.504C704.778 226.504 706.698 230.824 706.698 238.024V240.76ZM693.21 237.208H701.514V235.816C701.514 232.552 700.458 230.056 697.53 230.056C694.218 230.056 693.21 233.32 693.21 236.68V237.208ZM710.965 253V227.176H716.149V231.208H716.245C717.397 228.328 719.317 226.504 722.245 226.504C722.821 226.504 723.157 226.6 723.493 226.696V231.976C723.109 231.88 722.197 231.688 721.333 231.688C718.981 231.688 716.149 232.744 716.149 237.544V253H710.965ZM727.689 253V231.016H724.089V227.176H727.689V224.776C727.689 219.88 730.041 218.344 734.265 218.344C735.369 218.344 736.329 218.392 737.097 218.488V222.472H735.657C733.737 222.472 732.873 223.192 732.873 224.92V227.176H737.097V231.016H732.873V253H727.689ZM738.457 240.088C738.457 232.072 740.569 226.504 748.057 226.504C755.593 226.504 757.705 232.072 757.705 240.088C757.705 248.104 755.257 253.672 748.057 253.672C740.905 253.672 738.457 248.104 738.457 240.088ZM743.641 240.088C743.641 246.664 744.313 249.832 748.057 249.832C751.849 249.832 752.521 246.664 752.521 240.088C752.521 234.376 751.849 230.344 748.057 230.344C744.313 230.344 743.641 234.376 743.641 240.088ZM761.684 253V227.176H766.868V231.208H766.964C768.116 228.328 770.036 226.504 772.964 226.504C773.54 226.504 773.876 226.6 774.212 226.696V231.976C773.828 231.88 772.916 231.688 772.052 231.688C769.7 231.688 766.868 232.744 766.868 237.544V253H761.684ZM777.533 253V227.176H782.429V230.2H782.573C783.869 227.896 786.317 226.504 788.765 226.504C792.461 226.504 793.997 228.28 794.765 230.44C796.253 227.944 798.173 226.504 801.293 226.504C804.941 226.504 807.581 228.376 807.581 233.368V253H802.397V235.288C802.397 231.928 801.389 230.632 799.277 230.632C797.165 230.632 795.149 232.312 795.149 235.672V253H789.965V235.288C789.965 231.928 788.957 230.632 786.797 230.632C784.733 230.632 782.717 232.312 782.717 235.672V253H777.533ZM829.768 232.84V247.624C829.768 248.584 830.344 249.448 831.112 249.448C831.448 249.448 831.784 249.4 831.976 249.304V252.664C831.352 252.952 830.44 253.288 829.432 253.288C827.128 253.288 825.208 252.376 825.064 249.88H824.968C823.576 252.424 821.56 253.672 818.536 253.672C814.408 253.672 811.816 251.368 811.816 246.424C811.816 240.664 814.312 239.464 817.816 238.312L821.848 237.208C823.72 236.68 824.872 236.152 824.872 233.896C824.872 231.544 824.056 230.056 821.32 230.056C817.864 230.056 817.384 232.504 817.384 235H812.488C812.488 229.528 814.744 226.504 821.56 226.504C826.12 226.504 829.768 228.28 829.768 232.84ZM824.872 243.688V239.368C823.528 240.424 820.648 241.048 819.112 241.768C817.624 242.488 817 244.024 817 245.944C817 248.104 818.056 249.832 820.216 249.832C823.336 249.832 824.872 247.48 824.872 243.688ZM835.043 253V227.176H839.939V230.2H840.083C841.379 227.896 843.827 226.504 846.707 226.504C850.643 226.504 853.139 228.28 853.139 233.512V253H847.955V235.288C847.955 231.928 846.947 230.632 844.355 230.632C842.243 230.632 840.227 232.312 840.227 235.672V253H835.043ZM870.68 243.592H875.576C875.24 249.784 873.128 253.672 866.744 253.672C859.256 253.672 857.144 248.104 857.144 240.088C857.144 232.072 859.256 226.504 866.744 226.504C874.472 226.408 875.624 232.552 875.624 235.768H870.44C870.44 233.368 869.768 230.248 866.744 230.344C863 230.344 862.328 234.376 862.328 240.088C862.328 245.8 863 249.832 866.744 249.832C869.624 249.88 870.68 247.48 870.68 243.592ZM897.432 240.76H883.944V242.248C883.944 245.704 884.376 250.12 888.264 250.12C891.96 250.12 892.392 245.896 892.392 244.36H897.288C897.288 250.072 893.832 253.672 888.216 253.672C883.992 253.672 878.76 252.424 878.76 240.472C878.76 233.704 880.2 226.504 888.312 226.504C895.512 226.504 897.432 230.824 897.432 238.024V240.76ZM883.944 237.208H892.248V235.816C892.248 232.552 891.192 230.056 888.264 230.056C884.952 230.056 883.944 233.32 883.944 236.68V237.208ZM901.363 241.576V236.68H913.939V241.576H901.363ZM917.566 240.088C917.566 232.072 919.678 226.504 927.166 226.504C934.702 226.504 936.814 232.072 936.814 240.088C936.814 248.104 934.366 253.672 927.166 253.672C920.014 253.672 917.566 248.104 917.566 240.088ZM922.75 240.088C922.75 246.664 923.422 249.832 927.166 249.832C930.958 249.832 931.63 246.664 931.63 240.088C931.63 234.376 930.958 230.344 927.166 230.344C923.422 230.344 922.75 234.376 922.75 240.088ZM940.793 261.448V227.176H945.689V230.344H945.785C946.841 228.04 948.761 226.504 951.593 226.504C957.497 226.504 959.897 231.544 959.897 240.424C959.897 251.272 955.481 253.672 951.929 253.672C949.145 253.672 947.033 252.28 946.073 249.976H945.977V261.448H940.793ZM945.689 239.8C945.689 245.992 946.457 249.544 950.105 249.544C953.081 249.544 954.425 247.336 954.425 240.184C954.425 234.328 953.657 230.632 950.057 230.632C946.505 230.632 945.689 234.28 945.689 239.8ZM961.598 231.016V227.176H965.15V219.832H970.334V227.176H974.558V231.016H970.334V246.424C970.334 248.44 970.91 249.16 972.686 249.16C973.454 249.16 974.078 249.112 974.558 249.016V252.856C973.454 253.144 972.014 253.288 970.382 253.288C966.878 253.288 965.15 252.328 965.15 247.048V231.016H961.598ZM977.502 253V227.176H982.686V253H977.502ZM977.502 223.528V218.344H982.686V223.528H977.502ZM988.142 253V227.176H993.038V230.2H993.182C994.478 227.896 996.926 226.504 999.374 226.504C1003.07 226.504 1004.61 228.28 1005.37 230.44C1006.86 227.944 1008.78 226.504 1011.9 226.504C1015.55 226.504 1018.19 228.376 1018.19 233.368V253H1013.01V235.288C1013.01 231.928 1012 230.632 1009.89 230.632C1007.77 230.632 1005.76 232.312 1005.76 235.672V253H1000.57V235.288C1000.57 231.928 999.566 230.632 997.406 230.632C995.342 230.632 993.326 232.312 993.326 235.672V253H988.142ZM1023.67 253V227.176H1028.86V253H1023.67ZM1023.67 223.528V218.344H1028.86V223.528H1023.67ZM1050.11 234.712H1045.21V234.04C1045.21 231.976 1044.49 230.056 1041.8 230.056C1039.74 230.056 1038.11 231.016 1038.11 233.416C1038.11 235.432 1039.02 236.248 1041.75 237.208L1045.07 238.36C1048.91 239.656 1050.68 241.72 1050.68 245.8C1050.68 251.32 1046.65 253.672 1041.42 253.672C1034.89 253.672 1032.92 250.648 1032.92 245.656V244.696H1037.53V245.512C1037.53 248.488 1038.59 250.12 1041.56 250.12C1044.39 250.12 1045.79 248.68 1045.79 246.328C1045.79 244.408 1044.78 243.16 1042.95 242.536L1038.73 241.048C1034.84 239.704 1033.21 237.736 1033.21 233.608C1033.21 228.76 1036.71 226.504 1042.04 226.504C1048.62 226.504 1050.11 230.344 1050.11 233.56V234.712ZM1072.46 240.76H1058.98V242.248C1058.98 245.704 1059.41 250.12 1063.3 250.12C1066.99 250.12 1067.42 245.896 1067.42 244.36H1072.32C1072.32 250.072 1068.86 253.672 1063.25 253.672C1059.02 253.672 1053.79 252.424 1053.79 240.472C1053.79 233.704 1055.23 226.504 1063.34 226.504C1070.54 226.504 1072.46 230.824 1072.46 238.024V240.76ZM1058.98 237.208H1067.28V235.816C1067.28 232.552 1066.22 230.056 1063.3 230.056C1059.98 230.056 1058.98 233.32 1058.98 236.68V237.208ZM1089.93 253V249.832H1089.83C1089.16 251.512 1087.87 253.672 1084.17 253.672C1078.12 253.672 1075.72 248.632 1075.72 239.752C1075.72 228.28 1079.75 226.504 1083.69 226.504C1086.47 226.504 1088.59 227.896 1089.55 230.2H1089.64V218.728H1094.83V253H1089.93ZM1089.93 240.376C1089.93 234.184 1089.21 230.632 1085.23 230.632C1082.25 230.632 1081.19 233.032 1081.19 239.992C1081.19 245.848 1081.96 249.544 1085.56 249.544C1089.11 249.544 1089.93 245.896 1089.93 240.376ZM1123.9 243.592H1128.8C1128.46 249.784 1126.35 253.672 1119.96 253.672C1112.48 253.672 1110.36 248.104 1110.36 240.088C1110.36 232.072 1112.48 226.504 1119.96 226.504C1127.69 226.408 1128.84 232.552 1128.84 235.768H1123.66C1123.66 233.368 1122.99 230.248 1119.96 230.344C1116.22 230.344 1115.55 234.376 1115.55 240.088C1115.55 245.8 1116.22 249.832 1119.96 249.832C1122.84 249.88 1123.9 247.48 1123.9 243.592ZM1149.64 232.84V247.624C1149.64 248.584 1150.22 249.448 1150.99 249.448C1151.32 249.448 1151.66 249.4 1151.85 249.304V252.664C1151.23 252.952 1150.32 253.288 1149.31 253.288C1147 253.288 1145.08 252.376 1144.94 249.88H1144.84C1143.45 252.424 1141.44 253.672 1138.41 253.672C1134.28 253.672 1131.69 251.368 1131.69 246.424C1131.69 240.664 1134.19 239.464 1137.69 238.312L1141.72 237.208C1143.6 236.68 1144.75 236.152 1144.75 233.896C1144.75 231.544 1143.93 230.056 1141.2 230.056C1137.74 230.056 1137.26 232.504 1137.26 235H1132.36C1132.36 229.528 1134.62 226.504 1141.44 226.504C1146 226.504 1149.64 228.28 1149.64 232.84ZM1144.75 243.688V239.368C1143.4 240.424 1140.52 241.048 1138.99 241.768C1137.5 242.488 1136.88 244.024 1136.88 245.944C1136.88 248.104 1137.93 249.832 1140.09 249.832C1143.21 249.832 1144.75 247.48 1144.75 243.688ZM1154.92 253V227.176H1160.1V231.208H1160.2C1161.35 228.328 1163.27 226.504 1166.2 226.504C1166.77 226.504 1167.11 226.6 1167.45 226.696V231.976C1167.06 231.88 1166.15 231.688 1165.29 231.688C1162.93 231.688 1160.1 232.744 1160.1 237.544V253H1154.92ZM1181.59 253V218.728H1186.77V230.2H1186.87C1187.83 227.896 1189.94 226.504 1192.73 226.504C1196.66 226.504 1200.69 228.28 1200.69 239.752C1200.69 248.632 1198.29 253.672 1192.25 253.672C1188.55 253.672 1187.25 251.512 1186.58 249.832H1186.49V253H1181.59ZM1186.49 240.376C1186.49 245.896 1187.3 249.544 1190.85 249.544C1194.45 249.544 1195.22 245.848 1195.22 239.992C1195.22 233.032 1194.17 230.632 1191.19 230.632C1187.21 230.632 1186.49 234.184 1186.49 240.376ZM1203.69 240.088C1203.69 232.072 1205.8 226.504 1213.29 226.504C1220.83 226.504 1222.94 232.072 1222.94 240.088C1222.94 248.104 1220.49 253.672 1213.29 253.672C1206.14 253.672 1203.69 248.104 1203.69 240.088ZM1208.88 240.088C1208.88 246.664 1209.55 249.832 1213.29 249.832C1217.08 249.832 1217.76 246.664 1217.76 240.088C1217.76 234.376 1217.08 230.344 1213.29 230.344C1209.55 230.344 1208.88 234.376 1208.88 240.088ZM1240.12 253V249.832H1240.02C1239.35 251.512 1238.05 253.672 1234.36 253.672C1228.31 253.672 1225.91 248.632 1225.91 239.752C1225.91 228.28 1229.94 226.504 1233.88 226.504C1236.66 226.504 1238.77 227.896 1239.73 230.2H1239.83V218.728H1245.01V253H1240.12ZM1240.12 240.376C1240.12 234.184 1239.4 230.632 1235.41 230.632C1232.44 230.632 1231.38 233.032 1231.38 239.992C1231.38 245.848 1232.15 249.544 1235.75 249.544C1239.3 249.544 1240.12 245.896 1240.12 240.376ZM1247.63 227.176H1253.2L1257.67 246.568H1257.76L1261.89 227.176H1267.31L1260.21 253.96C1258.19 261.016 1256.51 261.928 1251.19 261.832C1250.51 261.832 1249.79 261.736 1249.12 261.64V257.512C1249.7 257.608 1250.23 257.704 1250.8 257.704C1252.58 257.704 1253.73 257.32 1254.31 255.688L1254.98 253.576L1247.63 227.176Z" fill="white"/>
<path d="M351.336 294.792V284.712H355.464V294.792H365.544V298.92H355.464V309H351.336V298.92H341.256V294.792H351.336ZM388.529 309V276.552H379.409V274.728H399.665V276.552H390.545V309H388.529ZM398.167 309V283.896H399.991V288.264H400.087C400.999 285.384 403.063 283.32 406.375 283.32H407.431V284.952H406.375C402.103 284.952 399.991 288.936 399.991 293.064V309H398.167ZM423.233 289.944V305.976C423.233 307.176 423.713 307.656 424.337 307.656C424.769 307.656 425.153 307.608 425.489 307.416V308.856C425.105 309.144 424.385 309.288 423.569 309.288C422.801 309.288 421.409 308.52 421.409 306.552V304.968H421.313C420.593 307.56 418.097 309.576 414.737 309.576C410.369 309.576 408.449 306.456 408.449 302.568C408.449 298.776 409.985 296.616 413.537 295.656L418.961 294.168C421.121 293.592 421.409 292.584 421.409 290.472C421.409 285.912 419.297 284.952 416.561 284.952C412.337 284.952 411.089 287.592 411.089 291.048H409.265C409.265 287.64 410.513 283.32 416.369 283.32C421.889 283.32 423.233 286.344 423.233 289.944ZM421.409 299.544V294.36H421.313C420.689 295.368 420.017 295.512 418.145 296.04L414.449 297.048C411.521 297.864 410.465 299.592 410.465 302.568C410.465 305.832 411.905 307.944 415.073 307.944C419.345 307.944 421.409 304.584 421.409 299.544ZM428.401 309V283.896H430.225V287.688H430.321C431.185 285.48 433.297 283.32 436.705 283.32C440.257 283.32 443.041 285.336 443.041 290.088V309H441.217V290.952C441.217 286.488 439.345 284.952 436.225 284.952C432.385 284.952 430.225 288.552 430.225 292.92V309H428.401ZM460.524 290.952H458.7V290.232C458.7 287.976 458.124 284.952 453.996 284.952C451.356 284.952 449.148 286.296 449.148 289.608C449.148 292.248 450.396 293.592 452.892 294.552L456.732 295.992C459.756 297.144 461.292 299.256 461.292 302.664C461.292 306.888 458.028 309.576 454.044 309.576C447.084 309.576 446.604 304.584 446.604 301.656V300.984H448.428V301.8C448.428 305.352 449.868 307.944 454.044 307.944C457.74 307.944 459.276 305.496 459.276 302.712C459.276 300.312 458.316 298.68 455.532 297.576L451.836 296.088C448.716 294.84 447.132 293.016 447.132 289.8C447.132 285.624 450.012 283.32 453.996 283.32C459.564 283.32 460.524 287.112 460.524 290.184V290.952ZM464.919 317.448V283.896H466.743V288.312H466.839C467.751 285.624 469.383 283.32 473.271 283.32C479.223 283.32 480.999 289.032 480.999 296.376C480.999 304.152 479.031 309.576 473.175 309.576C469.671 309.576 467.463 307.56 466.839 304.152H466.743V317.448H464.919ZM466.743 296.376C466.743 303.72 468.423 307.944 472.887 307.944C477.831 307.944 478.983 302.76 478.983 296.376C478.983 288.312 476.631 284.952 473.223 284.952C468.615 284.952 466.743 288.648 466.743 296.376ZM498.749 289.944V305.976C498.749 307.176 499.229 307.656 499.853 307.656C500.285 307.656 500.669 307.608 501.005 307.416V308.856C500.621 309.144 499.901 309.288 499.085 309.288C498.317 309.288 496.924 308.52 496.924 306.552V304.968H496.829C496.109 307.56 493.613 309.576 490.253 309.576C485.885 309.576 483.965 306.456 483.965 302.568C483.965 298.776 485.501 296.616 489.053 295.656L494.477 294.168C496.637 293.592 496.924 292.584 496.924 290.472C496.924 285.912 494.812 284.952 492.077 284.952C487.853 284.952 486.605 287.592 486.605 291.048H484.781C484.781 287.64 486.029 283.32 491.885 283.32C497.405 283.32 498.749 286.344 498.749 289.944ZM496.924 299.544V294.36H496.829C496.205 295.368 495.533 295.512 493.661 296.04L489.965 297.048C487.037 297.864 485.98 299.592 485.98 302.568C485.98 305.832 487.421 307.944 490.589 307.944C494.861 307.944 496.924 304.584 496.924 299.544ZM503.917 309V283.896H505.741V288.264H505.837C506.749 285.384 508.813 283.32 512.125 283.32H513.181V284.952H512.125C507.853 284.952 505.741 288.936 505.741 293.064V309H503.917ZM516.887 294.696H529.079C529.079 290.136 528.359 284.952 523.175 284.952C517.607 284.952 516.887 291.432 516.887 294.696ZM531.095 296.328H516.887C516.887 300.36 516.935 307.944 522.791 307.944C528.071 307.944 528.935 302.664 528.935 300.792H530.759C530.759 304.632 528.647 309.576 522.983 309.576C516.503 309.576 514.871 304.296 514.871 295.752C514.871 288.072 517.607 283.32 523.271 283.32C529.175 283.32 531.095 288.216 531.095 296.328ZM535.042 309V283.896H536.866V287.688H536.962C537.826 285.48 539.938 283.32 543.346 283.32C546.898 283.32 549.682 285.336 549.682 290.088V309H547.858V290.952C547.858 286.488 545.986 284.952 542.866 284.952C539.026 284.952 536.866 288.552 536.866 292.92V309H535.042ZM567.837 300.792H569.853C569.853 303.144 568.557 309.576 562.077 309.576C555.597 309.576 553.965 303.864 553.965 296.328C553.965 288.024 556.509 283.32 562.413 283.32C568.509 283.32 569.709 289.272 569.709 291.096H567.693C567.693 289.56 566.685 284.952 562.365 284.952C557.709 284.952 555.981 289.224 555.981 296.424C555.981 304.248 557.709 307.944 562.365 307.944C566.973 307.944 567.837 302.664 567.837 300.792ZM579.677 306.408L585.245 283.896H587.261L579.485 312.744C578.525 316.2 576.845 317.448 573.917 317.448C573.293 317.448 572.669 317.4 572.045 317.352V315.72C572.717 315.768 573.053 315.816 573.629 315.816C575.981 315.816 576.941 315.144 577.853 311.88L578.621 309.24L571.229 283.896H573.245L579.581 306.408H579.677ZM351.336 350.792V340.712H355.464V350.792H365.544V354.92H355.464V365H351.336V354.92H341.256V350.792H351.336ZM383.009 354.44V356.216C383.009 360.584 385.841 363.944 390.785 363.944C395.537 363.944 398.705 360.536 398.705 356.168C398.705 351.704 396.305 350.168 392.465 348.824L388.577 347.48C384.065 345.944 381.617 343.736 381.617 339.08C381.617 333.56 385.409 330.152 390.785 330.152C397.121 330.152 399.953 333.752 399.953 339.464H397.937C397.937 334.856 395.825 331.784 390.977 331.784C387.137 331.784 383.633 333.56 383.633 338.888C383.633 342.68 385.697 344.504 388.673 345.512L393.761 347.288C398.177 348.824 400.721 350.984 400.721 356.024C400.721 362.12 396.209 365.576 390.785 365.576C382.865 365.576 380.993 360.008 380.993 356.696V354.44H383.009ZM404.87 365V330.728H406.694V353.24H406.79L417.638 339.896H419.942L412.166 349.208L421.334 365H419.03L410.87 350.84L406.694 355.784V365H404.87ZM424.918 350.696H437.11C437.11 346.136 436.39 340.952 431.206 340.952C425.638 340.952 424.918 347.432 424.918 350.696ZM439.126 352.328H424.918C424.918 356.36 424.966 363.944 430.822 363.944C436.102 363.944 436.966 358.664 436.966 356.792H438.79C438.79 360.632 436.678 365.576 431.014 365.576C424.534 365.576 422.902 360.296 422.902 351.752C422.902 344.072 425.638 339.32 431.302 339.32C437.206 339.32 439.126 344.216 439.126 352.328ZM458.385 365L453.633 342.488H453.537L448.593 365H446.289L440.913 339.896H442.929L447.393 362.408H447.489L452.433 339.896H454.737L459.489 362.408H459.585L464.097 339.896H466.113L460.689 365H458.385ZM469.046 365V339.896H470.87V365H469.046ZM469.046 335.624V330.728H470.87V335.624H469.046ZM475.979 365V339.896H477.803V343.688H477.899C478.763 341.48 480.875 339.32 484.283 339.32C487.835 339.32 490.619 341.336 490.619 346.088V365H488.795V346.952C488.795 342.488 486.923 340.952 483.803 340.952C479.963 340.952 477.803 344.552 477.803 348.92V365H475.979ZM496.918 352.328C496.918 358.76 498.262 363.368 503.014 363.368C507.574 363.368 509.158 358.76 509.158 351.944C509.158 344.648 507.19 340.952 503.254 340.952C499.222 340.952 496.918 343.784 496.918 352.328ZM510.982 339.896V363.608C510.982 369.8 509.158 373.832 502.918 373.832C496.534 373.832 496.102 368.888 496.102 367.592H497.926C497.926 370.184 499.558 372.2 503.11 372.2C507.382 372.2 509.158 369.752 509.158 364.52V359.912H509.014C508.294 362.12 506.854 365 502.438 365C496.534 365 494.902 359.192 494.902 352.328C494.902 345.464 496.198 339.32 502.822 339.32C506.086 339.32 508.102 341.144 509.062 344.072H509.158V339.896H510.982Z" fill="#4000FF"/>
</svg>
