<svg width="1920" height="540" viewBox="0 0 1920 540" fill="none" xmlns="http://www.w3.org/2000/svg">
<g clip-path="url(#clip0_94_118)">
<rect width="1920" height="540" fill="white"/>
<g filter="url(#filter0_d_94_118)">
<path fill-rule="evenodd" clip-rule="evenodd" d="M418.5 688.2C649.631 688.2 837 500.831 837 269.7C837 38.5688 649.631 -148.8 418.5 -148.8H0V269.7C0 500.831 187.369 688.2 418.5 688.2Z" fill="#FF5500"/>
</g>
<path d="M230.528 168.88H233.6V238H230.528V168.88ZM277.757 235.696C274.557 238 270.717 239.152 266.237 239.152C261.565 239.152 257.565 238 254.237 235.696C250.909 233.392 248.381 230.256 246.653 226.288C244.989 222.32 244.157 217.904 244.157 213.04C244.157 208.176 244.989 203.76 246.653 199.792C248.381 195.824 250.909 192.688 254.237 190.384C257.565 188.08 261.565 186.928 266.237 186.928C270.653 186.928 274.461 188.08 277.661 190.384C280.925 192.688 283.389 195.824 285.053 199.792V168.88H288.125V238H285.149V226C283.485 230.096 281.021 233.328 277.757 235.696ZM255.869 233.2C258.749 235.248 262.205 236.272 266.237 236.272C270.269 236.272 273.725 235.248 276.605 233.2C279.485 231.088 281.629 228.272 283.037 224.752C284.509 221.232 285.245 217.328 285.245 213.04C285.245 208.752 284.509 204.848 283.037 201.328C281.629 197.808 279.485 195.024 276.605 192.976C273.725 190.864 270.269 189.808 266.237 189.808C262.205 189.808 258.749 190.864 255.869 192.976C252.989 195.024 250.813 197.808 249.341 201.328C247.933 204.848 247.229 208.752 247.229 213.04C247.229 217.328 247.933 221.232 249.341 224.752C250.813 228.272 252.989 231.088 255.869 233.2ZM319.951 239.152C315.343 239.152 311.375 238 308.047 235.696C304.783 233.392 302.287 230.256 300.559 226.288C298.895 222.32 298.063 217.904 298.063 213.04C298.063 208.176 298.895 203.76 300.559 199.792C302.287 195.824 304.783 192.688 308.047 190.384C311.375 188.08 315.343 186.928 319.951 186.928C324.559 186.928 328.495 188.08 331.759 190.384C335.087 192.688 337.583 195.824 339.247 199.792C340.975 203.76 341.839 208.176 341.839 213.04V213.904H301.135C301.263 218.064 302.063 221.84 303.535 225.232C305.007 228.624 307.119 231.312 309.871 233.296C312.687 235.28 316.047 236.272 319.951 236.272C324.559 236.272 328.431 234.928 331.567 232.24C334.703 229.552 336.879 225.936 338.095 221.392H341.071C339.791 226.832 337.327 231.152 333.679 234.352C330.095 237.552 325.519 239.152 319.951 239.152ZM338.671 211.024C338.351 204.88 336.559 199.824 333.295 195.856C330.031 191.824 325.583 189.808 319.951 189.808C314.319 189.808 309.871 191.824 306.607 195.856C303.343 199.824 301.551 204.88 301.231 211.024H338.671ZM364.499 239.152C359.379 239.152 355.443 237.872 352.691 235.312C349.939 232.688 348.563 229.296 348.563 225.136C348.563 222.448 349.171 220.176 350.387 218.32C351.603 216.4 353.523 214.8 356.147 213.52C358.771 212.176 362.259 211.024 366.611 210.064L384.563 206.032V201.52C384.563 197.552 383.347 194.608 380.915 192.688C378.547 190.768 374.931 189.808 370.067 189.808C365.331 189.808 361.427 190.928 358.355 193.168C355.283 195.344 353.747 198.768 353.747 203.44H350.675C350.675 198.128 352.499 194.064 356.147 191.248C359.859 188.368 364.499 186.928 370.067 186.928C375.763 186.928 380.083 188.176 383.027 190.672C386.035 193.168 387.539 196.656 387.539 201.136V238H384.563V227.248C382.643 231.216 379.923 234.192 376.403 236.176C372.947 238.16 368.979 239.152 364.499 239.152ZM364.595 236.272C368.435 236.272 371.859 235.536 374.867 234.064C377.875 232.528 380.243 230.256 381.971 227.248C383.699 224.24 384.563 220.528 384.563 216.112V208.624L366.995 212.752C361.427 214.096 357.459 215.632 355.091 217.36C352.787 219.088 351.635 221.648 351.635 225.04C351.635 228.368 352.723 231.088 354.899 233.2C357.139 235.248 360.371 236.272 364.595 236.272ZM412.647 238C409.831 238 407.687 237.488 406.215 236.464C404.743 235.44 403.783 234.096 403.335 232.432C402.887 230.768 402.663 228.72 402.663 226.288V190.768H393.063V188.08H402.663V172.72H405.735V188.08H420.711V190.768H405.735V226.288C405.735 229.296 406.183 231.568 407.079 233.104C407.975 234.576 409.831 235.312 412.647 235.312H420.711V238H412.647ZM448.951 239.152C444.343 239.152 440.375 238 437.047 235.696C433.783 233.392 431.287 230.256 429.559 226.288C427.895 222.32 427.063 217.904 427.063 213.04C427.063 208.176 427.895 203.76 429.559 199.792C431.287 195.824 433.783 192.688 437.047 190.384C440.375 188.08 444.343 186.928 448.951 186.928C453.559 186.928 457.495 188.08 460.759 190.384C464.087 192.688 466.583 195.824 468.247 199.792C469.975 203.76 470.839 208.176 470.839 213.04V213.904H430.135C430.263 218.064 431.063 221.84 432.535 225.232C434.007 228.624 436.119 231.312 438.871 233.296C441.687 235.28 445.047 236.272 448.951 236.272C453.559 236.272 457.431 234.928 460.567 232.24C463.703 229.552 465.879 225.936 467.095 221.392H470.071C468.791 226.832 466.327 231.152 462.679 234.352C459.095 237.552 454.519 239.152 448.951 239.152ZM467.671 211.024C467.351 204.88 465.559 199.824 462.295 195.856C459.031 191.824 454.583 189.808 448.951 189.808C443.319 189.808 438.871 191.824 435.607 195.856C432.343 199.824 430.551 204.88 430.231 211.024H467.671ZM248.48 376.152C244.384 376.152 240.8 375.352 237.728 373.752C234.656 372.088 232.288 369.912 230.624 367.224C229.024 364.472 228.224 361.496 228.224 358.296C228.224 354.84 228.992 351.832 230.528 349.272C232.064 346.648 233.984 344.44 236.288 342.648C238.592 340.792 241.472 338.84 244.928 336.792C242.624 334.232 240.8 332.088 239.456 330.36C238.176 328.568 237.184 326.776 236.48 324.984C235.776 323.128 235.424 321.112 235.424 318.936C235.424 316.248 236.032 313.848 237.248 311.736C238.528 309.56 240.256 307.864 242.432 306.648C244.672 305.368 247.2 304.728 250.016 304.728C252.832 304.728 255.328 305.368 257.504 306.648C259.744 307.864 261.472 309.56 262.688 311.736C263.968 313.848 264.608 316.248 264.608 318.936C264.608 321.752 263.936 324.28 262.592 326.52C261.248 328.696 259.52 330.584 257.408 332.184C255.36 333.784 252.736 335.544 249.536 337.464L269.984 360.312C273.504 354.296 275.264 347.224 275.264 339.096H277.952C277.952 348.184 275.968 355.992 272 362.52L283.136 375H279.104L270.272 365.112C267.648 368.632 264.48 371.352 260.768 373.272C257.056 375.192 252.96 376.152 248.48 376.152ZM248.48 373.272C252.512 373.272 256.192 372.376 259.52 370.584C262.912 368.728 265.824 366.168 268.256 362.904L246.848 339.096C243.52 341.08 240.8 342.904 238.688 344.568C236.576 346.168 234.816 348.12 233.408 350.424C232 352.664 231.296 355.256 231.296 358.2C231.296 360.888 232 363.384 233.408 365.688C234.816 367.992 236.8 369.848 239.36 371.256C241.984 372.6 245.024 373.272 248.48 373.272ZM247.52 335.256C252.128 332.568 255.616 330.04 257.984 327.672C260.352 325.304 261.536 322.392 261.536 318.936C261.536 315.8 260.448 313.112 258.272 310.872C256.16 308.632 253.408 307.512 250.016 307.512C246.624 307.512 243.84 308.632 241.664 310.872C239.552 313.112 238.496 315.8 238.496 318.936C238.496 321.624 239.168 324.088 240.512 326.328C241.856 328.568 244.192 331.544 247.52 335.256ZM314.434 305.88H340.546C345.154 305.88 349.122 306.744 352.45 308.472C355.778 310.136 358.306 312.472 360.034 315.48C361.762 318.424 362.626 321.816 362.626 325.656C362.626 329.496 361.762 332.92 360.034 335.928C358.306 338.872 355.778 341.208 352.45 342.936C349.122 344.6 345.154 345.432 340.546 345.432H317.506V375H314.434V305.88ZM340.546 342.552C346.434 342.552 351.042 340.984 354.37 337.848C357.762 334.712 359.458 330.648 359.458 325.656C359.458 320.664 357.762 316.6 354.37 313.464C351.042 310.328 346.434 308.76 340.546 308.76H317.506V342.552H340.546ZM374.14 325.08H377.116V336.984C378.908 332.568 381.436 329.4 384.7 327.48C387.964 325.496 391.516 324.504 395.356 324.504H399.292V327.48H394.876C391.804 327.48 388.924 328.248 386.236 329.784C383.548 331.32 381.372 333.592 379.708 336.6C378.044 339.608 377.212 343.256 377.212 347.544V375H374.14V325.08ZM427.583 376.152C422.847 376.152 418.815 375 415.487 372.696C412.159 370.392 409.631 367.256 407.903 363.288C406.239 359.32 405.407 354.904 405.407 350.04C405.407 345.176 406.239 340.76 407.903 336.792C409.631 332.824 412.159 329.688 415.487 327.384C418.815 325.08 422.847 323.928 427.583 323.928C432.319 323.928 436.351 325.08 439.679 327.384C443.007 329.688 445.503 332.824 447.167 336.792C448.895 340.76 449.759 345.176 449.759 350.04C449.759 354.904 448.895 359.32 447.167 363.288C445.503 367.256 443.007 370.392 439.679 372.696C436.351 375 432.319 376.152 427.583 376.152ZM427.583 373.272C431.679 373.272 435.167 372.248 438.047 370.2C440.927 368.088 443.071 365.304 444.479 361.848C445.951 358.328 446.687 354.392 446.687 350.04C446.687 345.688 445.951 341.784 444.479 338.328C443.071 334.808 440.927 332.024 438.047 329.976C435.167 327.864 431.679 326.808 427.583 326.808C423.487 326.808 419.999 327.864 417.119 329.976C414.239 332.024 412.063 334.808 410.591 338.328C409.183 341.784 408.479 345.688 408.479 350.04C408.479 354.392 409.183 358.328 410.591 361.848C412.063 365.304 414.239 368.088 417.119 370.2C419.999 372.248 423.487 373.272 427.583 373.272ZM474.709 375C471.893 375 469.749 374.488 468.277 373.464C466.805 372.44 465.845 371.096 465.397 369.432C464.949 367.768 464.725 365.72 464.725 363.288V327.768H455.125V325.08H464.725V309.72H467.797V325.08H482.773V327.768H467.797V363.288C467.797 366.296 468.245 368.568 469.141 370.104C470.037 371.576 471.893 372.312 474.709 372.312H482.773V375H474.709ZM511.302 376.152C506.566 376.152 502.534 375 499.206 372.696C495.878 370.392 493.35 367.256 491.622 363.288C489.958 359.32 489.126 354.904 489.126 350.04C489.126 345.176 489.958 340.76 491.622 336.792C493.35 332.824 495.878 329.688 499.206 327.384C502.534 325.08 506.566 323.928 511.302 323.928C516.038 323.928 520.07 325.08 523.398 327.384C526.726 329.688 529.222 332.824 530.886 336.792C532.614 340.76 533.478 345.176 533.478 350.04C533.478 354.904 532.614 359.32 530.886 363.288C529.222 367.256 526.726 370.392 523.398 372.696C520.07 375 516.038 376.152 511.302 376.152ZM511.302 373.272C515.398 373.272 518.886 372.248 521.766 370.2C524.646 368.088 526.79 365.304 528.198 361.848C529.67 358.328 530.406 354.392 530.406 350.04C530.406 345.688 529.67 341.784 528.198 338.328C526.79 334.808 524.646 332.024 521.766 329.976C518.886 327.864 515.398 326.808 511.302 326.808C507.206 326.808 503.718 327.864 500.838 329.976C497.958 332.024 495.782 334.808 494.31 338.328C492.902 341.784 492.198 345.688 492.198 350.04C492.198 354.392 492.902 358.328 494.31 361.848C495.782 365.304 497.958 368.088 500.838 370.2C503.718 372.248 507.206 373.272 511.302 373.272ZM558.428 375C555.612 375 553.468 374.488 551.996 373.464C550.524 372.44 549.564 371.096 549.116 369.432C548.668 367.768 548.444 365.72 548.444 363.288V327.768H538.844V325.08H548.444V309.72H551.516V325.08H566.492V327.768H551.516V363.288C551.516 366.296 551.964 368.568 552.86 370.104C553.756 371.576 555.612 372.312 558.428 372.312H566.492V375H558.428ZM571.693 391.512H578.317C580.173 391.512 581.613 391.192 582.637 390.552C583.725 389.976 584.557 389.176 585.133 388.152C585.773 387.192 586.477 385.72 587.245 383.736L590.797 375L570.733 325.08H573.997L592.333 371.448L610.669 325.08H613.933L590.029 384.6C589.133 386.904 588.301 388.696 587.533 389.976C586.765 391.256 585.709 392.28 584.365 393.048C583.021 393.816 581.229 394.2 578.989 394.2H571.693V391.512ZM632.099 327.48C635.363 325.112 639.235 323.928 643.715 323.928C648.387 323.928 652.387 325.08 655.715 327.384C659.043 329.688 661.539 332.824 663.203 336.792C664.931 340.76 665.795 345.176 665.795 350.04C665.795 354.904 664.931 359.32 663.203 363.288C661.539 367.256 659.043 370.392 655.715 372.696C652.387 375 648.387 376.152 643.715 376.152C639.299 376.152 635.459 375 632.195 372.696C628.995 370.392 626.563 367.256 624.899 363.288V394.2H621.827V325.08H624.803V337.08C626.467 332.984 628.899 329.784 632.099 327.48ZM654.083 329.976C651.203 327.864 647.747 326.808 643.715 326.808C639.683 326.808 636.227 327.864 633.347 329.976C630.467 332.024 628.291 334.808 626.819 338.328C625.411 341.848 624.707 345.752 624.707 350.04C624.707 354.328 625.411 358.232 626.819 361.752C628.291 365.272 630.467 368.088 633.347 370.2C636.227 372.248 639.683 373.272 643.715 373.272C647.747 373.272 651.203 372.248 654.083 370.2C656.963 368.088 659.107 365.272 660.515 361.752C661.987 358.232 662.723 354.328 662.723 350.04C662.723 345.752 661.987 341.848 660.515 338.328C659.107 334.808 656.963 332.024 654.083 329.976ZM695.701 376.152C691.093 376.152 687.125 375 683.797 372.696C680.533 370.392 678.037 367.256 676.309 363.288C674.645 359.32 673.813 354.904 673.813 350.04C673.813 345.176 674.645 340.76 676.309 336.792C678.037 332.824 680.533 329.688 683.797 327.384C687.125 325.08 691.093 323.928 695.701 323.928C700.309 323.928 704.245 325.08 707.509 327.384C710.837 329.688 713.333 332.824 714.997 336.792C716.725 340.76 717.589 345.176 717.589 350.04V350.904H676.885C677.013 355.064 677.813 358.84 679.285 362.232C680.757 365.624 682.869 368.312 685.621 370.296C688.437 372.28 691.797 373.272 695.701 373.272C700.309 373.272 704.181 371.928 707.317 369.24C710.453 366.552 712.629 362.936 713.845 358.392H716.821C715.541 363.832 713.077 368.152 709.429 371.352C705.845 374.552 701.269 376.152 695.701 376.152ZM714.421 348.024C714.101 341.88 712.309 336.824 709.045 332.856C705.781 328.824 701.333 326.808 695.701 326.808C690.069 326.808 685.621 328.824 682.357 332.856C679.093 336.824 677.301 341.88 676.981 348.024H714.421Z" fill="white"/>
<path d="M425.44 278.24C424.32 278.24 423.34 278.067 422.5 277.72C421.673 277.373 421.013 276.833 420.52 276.1C420.027 275.367 419.753 274.42 419.7 273.26H420.74C420.807 274.673 421.26 275.7 422.1 276.34C422.94 276.98 424.053 277.3 425.44 277.3C426.733 277.3 427.747 277.027 428.48 276.48C429.227 275.92 429.6 275.167 429.6 274.22C429.6 273.647 429.48 273.18 429.24 272.82C429.013 272.447 428.573 272.113 427.92 271.82C427.28 271.527 426.34 271.267 425.1 271.04C423.873 270.813 422.907 270.533 422.2 270.2C421.493 269.853 420.98 269.427 420.66 268.92C420.34 268.4 420.18 267.76 420.18 267C420.18 266.28 420.38 265.647 420.78 265.1C421.18 264.553 421.747 264.127 422.48 263.82C423.213 263.513 424.053 263.36 425 263.36C426.68 263.36 427.967 263.78 428.86 264.62C429.767 265.447 430.233 266.56 430.26 267.96H429.22C429.18 266.76 428.793 265.853 428.06 265.24C427.327 264.613 426.307 264.3 425 264.3C423.84 264.3 422.92 264.547 422.24 265.04C421.56 265.533 421.22 266.187 421.22 267C421.22 267.573 421.327 268.047 421.54 268.42C421.767 268.78 422.187 269.1 422.8 269.38C423.427 269.66 424.333 269.913 425.52 270.14C426.907 270.393 427.967 270.713 428.7 271.1C429.447 271.473 429.953 271.907 430.22 272.4C430.5 272.893 430.64 273.5 430.64 274.22C430.64 275.007 430.427 275.707 430 276.32C429.587 276.92 428.987 277.393 428.2 277.74C427.413 278.073 426.493 278.24 425.44 278.24ZM436.726 278.24C435.766 278.24 434.933 278.007 434.226 277.54C433.519 277.06 432.979 276.407 432.606 275.58C432.246 274.753 432.066 273.827 432.066 272.8C432.066 271.773 432.246 270.847 432.606 270.02C432.979 269.193 433.519 268.547 434.226 268.08C434.933 267.6 435.766 267.36 436.726 267.36C437.686 267.36 438.513 267.6 439.206 268.08C439.913 268.547 440.453 269.193 440.826 270.02C441.199 270.847 441.386 271.773 441.386 272.8V273.12H433.086C433.126 273.92 433.286 274.64 433.566 275.28C433.859 275.907 434.273 276.407 434.806 276.78C435.339 277.153 435.979 277.34 436.726 277.34C437.593 277.34 438.326 277.1 438.926 276.62C439.526 276.127 439.953 275.467 440.206 274.64H441.206C440.913 275.747 440.379 276.627 439.606 277.28C438.833 277.92 437.873 278.24 436.726 278.24ZM440.326 272.22C440.246 271.06 439.893 270.113 439.266 269.38C438.639 268.633 437.793 268.26 436.726 268.26C435.659 268.26 434.813 268.633 434.186 269.38C433.559 270.113 433.199 271.06 433.106 272.22H440.326ZM443.424 267.6H444.364V269.84C444.75 268.987 445.264 268.38 445.904 268.02C446.544 267.66 447.244 267.48 448.004 267.48H448.824V268.44H447.924C447.297 268.44 446.717 268.58 446.184 268.86C445.65 269.14 445.217 269.573 444.884 270.16C444.564 270.733 444.404 271.46 444.404 272.34V278H443.424V267.6ZM449.613 267.6H450.673L454.413 276.92L458.173 267.6H459.233L454.913 278H453.913L449.613 267.6ZM460.767 267.6H461.767V278H460.767V267.6ZM460.767 263.6H461.747V265.54H460.767V263.6ZM468.524 278.24C467.538 278.24 466.691 278.007 465.984 277.54C465.278 277.06 464.738 276.407 464.364 275.58C464.004 274.753 463.824 273.827 463.824 272.8C463.824 271.773 464.004 270.847 464.364 270.02C464.738 269.193 465.278 268.547 465.984 268.08C466.691 267.6 467.538 267.36 468.524 267.36C469.644 267.36 470.578 267.693 471.324 268.36C472.084 269.013 472.558 269.887 472.744 270.98H471.744C471.558 270.167 471.178 269.513 470.604 269.02C470.044 268.513 469.351 268.26 468.524 268.26C467.738 268.26 467.064 268.46 466.504 268.86C465.958 269.26 465.544 269.8 465.264 270.48C464.984 271.16 464.844 271.933 464.844 272.8C464.844 273.667 464.984 274.44 465.264 275.12C465.544 275.8 465.958 276.34 466.504 276.74C467.064 277.14 467.738 277.34 468.524 277.34C469.378 277.34 470.091 277.073 470.664 276.54C471.251 276.007 471.624 275.307 471.784 274.44H472.784C472.611 275.56 472.138 276.473 471.364 277.18C470.604 277.887 469.658 278.24 468.524 278.24ZM478.914 278.24C477.954 278.24 477.12 278.007 476.414 277.54C475.707 277.06 475.167 276.407 474.794 275.58C474.434 274.753 474.254 273.827 474.254 272.8C474.254 271.773 474.434 270.847 474.794 270.02C475.167 269.193 475.707 268.547 476.414 268.08C477.12 267.6 477.954 267.36 478.914 267.36C479.874 267.36 480.7 267.6 481.394 268.08C482.1 268.547 482.64 269.193 483.014 270.02C483.387 270.847 483.574 271.773 483.574 272.8V273.12H475.274C475.314 273.92 475.474 274.64 475.754 275.28C476.047 275.907 476.46 276.407 476.994 276.78C477.527 277.153 478.167 277.34 478.914 277.34C479.78 277.34 480.514 277.1 481.114 276.62C481.714 276.127 482.14 275.467 482.394 274.64H483.394C483.1 275.747 482.567 276.627 481.794 277.28C481.02 277.92 480.06 278.24 478.914 278.24ZM482.514 272.22C482.434 271.06 482.08 270.113 481.454 269.38C480.827 268.633 479.98 268.26 478.914 268.26C477.847 268.26 477 268.633 476.374 269.38C475.747 270.113 475.387 271.06 475.294 272.22H482.514ZM490.223 263.6H494.503C496.037 263.6 497.337 263.92 498.403 264.56C499.483 265.2 500.283 266.06 500.803 267.14C501.337 268.22 501.603 269.44 501.603 270.8C501.603 272.16 501.337 273.38 500.803 274.46C500.283 275.54 499.483 276.4 498.403 277.04C497.337 277.68 496.037 278 494.503 278H490.223V263.6ZM494.503 277.06C495.837 277.06 496.957 276.787 497.863 276.24C498.77 275.693 499.443 274.947 499.883 274C500.323 273.053 500.543 271.987 500.543 270.8C500.543 269.613 500.323 268.547 499.883 267.6C499.443 266.653 498.77 265.907 497.863 265.36C496.957 264.813 495.837 264.54 494.503 264.54H491.243V277.06H494.503ZM507.859 278.24C506.899 278.24 506.066 278.007 505.359 277.54C504.652 277.06 504.112 276.407 503.739 275.58C503.379 274.753 503.199 273.827 503.199 272.8C503.199 271.773 503.379 270.847 503.739 270.02C504.112 269.193 504.652 268.547 505.359 268.08C506.066 267.6 506.899 267.36 507.859 267.36C508.819 267.36 509.646 267.6 510.339 268.08C511.046 268.547 511.586 269.193 511.959 270.02C512.332 270.847 512.519 271.773 512.519 272.8V273.12H504.219C504.259 273.92 504.419 274.64 504.699 275.28C504.992 275.907 505.406 276.407 505.939 276.78C506.472 277.153 507.112 277.34 507.859 277.34C508.726 277.34 509.459 277.1 510.059 276.62C510.659 276.127 511.086 275.467 511.339 274.64H512.339C512.046 275.747 511.512 276.627 510.739 277.28C509.966 277.92 509.006 278.24 507.859 278.24ZM511.459 272.22C511.379 271.06 511.026 270.113 510.399 269.38C509.772 268.633 508.926 268.26 507.859 268.26C506.792 268.26 505.946 268.633 505.319 269.38C504.692 270.113 504.332 271.06 504.239 272.22H511.459ZM518.216 278.24C516.91 278.24 515.876 277.92 515.116 277.28C514.37 276.64 513.976 275.747 513.936 274.6H514.916C514.983 275.507 515.296 276.2 515.856 276.68C516.416 277.147 517.203 277.38 518.216 277.38C519.136 277.38 519.876 277.207 520.436 276.86C520.996 276.513 521.276 275.987 521.276 275.28C521.276 274.88 521.196 274.553 521.036 274.3C520.876 274.047 520.57 273.827 520.116 273.64C519.676 273.453 519.03 273.3 518.176 273.18C517.163 273.007 516.37 272.8 515.796 272.56C515.236 272.307 514.836 271.987 514.596 271.6C514.37 271.213 514.256 270.733 514.256 270.16C514.256 269.307 514.603 268.627 515.296 268.12C515.99 267.613 516.89 267.36 517.996 267.36C519.29 267.36 520.276 267.66 520.956 268.26C521.636 268.86 521.996 269.707 522.036 270.8H521.056C521.003 269.92 520.723 269.273 520.216 268.86C519.71 268.433 518.97 268.22 517.996 268.22C517.183 268.22 516.516 268.387 515.996 268.72C515.49 269.053 515.236 269.527 515.236 270.14C515.236 270.567 515.323 270.913 515.496 271.18C515.683 271.433 516.003 271.647 516.456 271.82C516.923 271.993 517.59 272.147 518.456 272.28C519.443 272.44 520.21 272.653 520.756 272.92C521.316 273.173 521.703 273.487 521.916 273.86C522.143 274.22 522.256 274.68 522.256 275.24C522.256 276.227 521.87 276.973 521.096 277.48C520.336 277.987 519.376 278.24 518.216 278.24ZM524.087 267.6H525.087V278H524.087V267.6ZM524.087 263.6H525.067V265.54H524.087V263.6ZM532.065 282.24C530.745 282.24 529.725 281.953 529.005 281.38C528.285 280.82 527.865 280.033 527.745 279.02H528.725C528.845 279.807 529.178 280.393 529.725 280.78C530.271 281.167 531.051 281.36 532.065 281.36C533.185 281.36 534.045 281.06 534.645 280.46C535.258 279.86 535.565 278.967 535.565 277.78V275.84C535.218 276.587 534.718 277.173 534.065 277.6C533.425 278.027 532.671 278.24 531.805 278.24C530.818 278.24 529.971 278.007 529.265 277.54C528.558 277.06 528.025 276.407 527.665 275.58C527.305 274.753 527.125 273.827 527.125 272.8C527.125 271.773 527.305 270.847 527.665 270.02C528.025 269.193 528.558 268.547 529.265 268.08C529.971 267.6 530.818 267.36 531.805 267.36C532.698 267.36 533.465 267.58 534.105 268.02C534.745 268.46 535.245 269.06 535.605 269.82V267.6H536.565V277.78C536.565 278.687 536.385 279.473 536.025 280.14C535.678 280.807 535.165 281.32 534.485 281.68C533.818 282.053 533.011 282.24 532.065 282.24ZM531.865 277.34C532.665 277.34 533.345 277.14 533.905 276.74C534.465 276.34 534.885 275.8 535.165 275.12C535.458 274.427 535.605 273.653 535.605 272.8C535.605 271.947 535.458 271.18 535.165 270.5C534.885 269.807 534.465 269.26 533.905 268.86C533.345 268.46 532.665 268.26 531.865 268.26C531.065 268.26 530.385 268.46 529.825 268.86C529.265 269.26 528.838 269.807 528.545 270.5C528.265 271.18 528.125 271.947 528.125 272.8C528.125 273.653 528.265 274.427 528.545 275.12C528.838 275.8 529.265 276.34 529.825 276.74C530.385 277.14 531.065 277.34 531.865 277.34ZM539.029 267.6H539.969V269.66C540.289 268.953 540.749 268.393 541.349 267.98C541.949 267.567 542.676 267.36 543.529 267.36C544.329 267.36 545.009 267.527 545.569 267.86C546.129 268.18 546.549 268.633 546.829 269.22C547.109 269.807 547.249 270.493 547.249 271.28V278H546.269V271.38C546.269 270.367 546.022 269.593 545.529 269.06C545.036 268.527 544.316 268.26 543.369 268.26C542.769 268.26 542.216 268.413 541.709 268.72C541.202 269.027 540.789 269.48 540.469 270.08C540.162 270.667 540.009 271.367 540.009 272.18V278H539.029V267.6ZM554.344 263.6H559.884C560.898 263.6 561.758 263.787 562.464 264.16C563.171 264.52 563.704 265.02 564.064 265.66C564.424 266.287 564.604 267.007 564.604 267.82C564.604 268.633 564.424 269.36 564.064 270C563.704 270.627 563.171 271.127 562.464 271.5C561.758 271.86 560.898 272.04 559.884 272.04H555.364V278H554.344V263.6ZM559.884 271.1C561.058 271.1 561.964 270.8 562.604 270.2C563.244 269.587 563.564 268.793 563.564 267.82C563.564 266.847 563.244 266.06 562.604 265.46C561.964 264.847 561.058 264.54 559.884 264.54H555.364V271.1H559.884ZM566.861 267.6H567.801V269.84C568.188 268.987 568.701 268.38 569.341 268.02C569.981 267.66 570.681 267.48 571.441 267.48H572.261V268.44H571.361C570.734 268.44 570.154 268.58 569.621 268.86C569.088 269.14 568.654 269.573 568.321 270.16C568.001 270.733 567.841 271.46 567.841 272.34V278H566.861V267.6ZM578.31 278.24C577.31 278.24 576.45 278.007 575.73 277.54C575.01 277.06 574.464 276.407 574.09 275.58C573.73 274.753 573.55 273.827 573.55 272.8C573.55 271.773 573.73 270.847 574.09 270.02C574.464 269.193 575.01 268.547 575.73 268.08C576.45 267.6 577.31 267.36 578.31 267.36C579.297 267.36 580.15 267.6 580.87 268.08C581.59 268.547 582.137 269.193 582.51 270.02C582.884 270.847 583.07 271.773 583.07 272.8C583.07 273.827 582.884 274.753 582.51 275.58C582.137 276.407 581.59 277.06 580.87 277.54C580.15 278.007 579.297 278.24 578.31 278.24ZM578.31 277.34C579.11 277.34 579.79 277.14 580.35 276.74C580.924 276.34 581.35 275.8 581.63 275.12C581.91 274.44 582.05 273.667 582.05 272.8C582.05 271.933 581.91 271.16 581.63 270.48C581.35 269.8 580.924 269.26 580.35 268.86C579.79 268.46 579.11 268.26 578.31 268.26C577.497 268.26 576.81 268.46 576.25 268.86C575.69 269.26 575.264 269.8 574.97 270.48C574.69 271.16 574.55 271.933 574.55 272.8C574.55 273.667 574.69 274.44 574.97 275.12C575.264 275.8 575.69 276.34 576.25 276.74C576.81 277.14 577.497 277.34 578.31 277.34ZM589.423 278.24C588.436 278.24 587.589 278.007 586.883 277.54C586.176 277.06 585.636 276.407 585.263 275.58C584.903 274.753 584.723 273.827 584.723 272.8C584.723 271.773 584.903 270.847 585.263 270.02C585.636 269.193 586.176 268.547 586.883 268.08C587.589 267.6 588.436 267.36 589.423 267.36C590.543 267.36 591.476 267.693 592.223 268.36C592.983 269.013 593.456 269.887 593.643 270.98H592.643C592.456 270.167 592.076 269.513 591.503 269.02C590.943 268.513 590.249 268.26 589.423 268.26C588.636 268.26 587.963 268.46 587.403 268.86C586.856 269.26 586.443 269.8 586.163 270.48C585.883 271.16 585.743 271.933 585.743 272.8C585.743 273.667 585.883 274.44 586.163 275.12C586.443 275.8 586.856 276.34 587.403 276.74C587.963 277.14 588.636 277.34 589.423 277.34C590.276 277.34 590.989 277.073 591.563 276.54C592.149 276.007 592.523 275.307 592.683 274.44H593.683C593.509 275.56 593.036 276.473 592.263 277.18C591.503 277.887 590.556 278.24 589.423 278.24ZM599.812 278.24C598.852 278.24 598.019 278.007 597.312 277.54C596.605 277.06 596.065 276.407 595.692 275.58C595.332 274.753 595.152 273.827 595.152 272.8C595.152 271.773 595.332 270.847 595.692 270.02C596.065 269.193 596.605 268.547 597.312 268.08C598.019 267.6 598.852 267.36 599.812 267.36C600.772 267.36 601.599 267.6 602.292 268.08C602.999 268.547 603.539 269.193 603.912 270.02C604.285 270.847 604.472 271.773 604.472 272.8V273.12H596.172C596.212 273.92 596.372 274.64 596.652 275.28C596.945 275.907 597.359 276.407 597.892 276.78C598.425 277.153 599.065 277.34 599.812 277.34C600.679 277.34 601.412 277.1 602.012 276.62C602.612 276.127 603.039 275.467 603.292 274.64H604.292C603.999 275.747 603.465 276.627 602.692 277.28C601.919 277.92 600.959 278.24 599.812 278.24ZM603.412 272.22C603.332 271.06 602.979 270.113 602.352 269.38C601.725 268.633 600.879 268.26 599.812 268.26C598.745 268.26 597.899 268.633 597.272 269.38C596.645 270.113 596.285 271.06 596.192 272.22H603.412ZM610.17 278.24C608.863 278.24 607.83 277.92 607.07 277.28C606.323 276.64 605.93 275.747 605.89 274.6H606.87C606.936 275.507 607.25 276.2 607.81 276.68C608.37 277.147 609.156 277.38 610.17 277.38C611.09 277.38 611.83 277.207 612.39 276.86C612.95 276.513 613.23 275.987 613.23 275.28C613.23 274.88 613.15 274.553 612.99 274.3C612.83 274.047 612.523 273.827 612.07 273.64C611.63 273.453 610.983 273.3 610.13 273.18C609.116 273.007 608.323 272.8 607.75 272.56C607.19 272.307 606.79 271.987 606.55 271.6C606.323 271.213 606.21 270.733 606.21 270.16C606.21 269.307 606.556 268.627 607.25 268.12C607.943 267.613 608.843 267.36 609.95 267.36C611.243 267.36 612.23 267.66 612.91 268.26C613.59 268.86 613.95 269.707 613.99 270.8H613.01C612.956 269.92 612.676 269.273 612.17 268.86C611.663 268.433 610.923 268.22 609.95 268.22C609.136 268.22 608.47 268.387 607.95 268.72C607.443 269.053 607.19 269.527 607.19 270.14C607.19 270.567 607.276 270.913 607.45 271.18C607.636 271.433 607.956 271.647 608.41 271.82C608.876 271.993 609.543 272.147 610.41 272.28C611.396 272.44 612.163 272.653 612.71 272.92C613.27 273.173 613.656 273.487 613.87 273.86C614.096 274.22 614.21 274.68 614.21 275.24C614.21 276.227 613.823 276.973 613.05 277.48C612.29 277.987 611.33 278.24 610.17 278.24ZM619.72 278.24C618.414 278.24 617.38 277.92 616.62 277.28C615.874 276.64 615.48 275.747 615.44 274.6H616.42C616.487 275.507 616.8 276.2 617.36 276.68C617.92 277.147 618.707 277.38 619.72 277.38C620.64 277.38 621.38 277.207 621.94 276.86C622.5 276.513 622.78 275.987 622.78 275.28C622.78 274.88 622.7 274.553 622.54 274.3C622.38 274.047 622.074 273.827 621.62 273.64C621.18 273.453 620.534 273.3 619.68 273.18C618.667 273.007 617.874 272.8 617.3 272.56C616.74 272.307 616.34 271.987 616.1 271.6C615.874 271.213 615.76 270.733 615.76 270.16C615.76 269.307 616.107 268.627 616.8 268.12C617.494 267.613 618.394 267.36 619.5 267.36C620.794 267.36 621.78 267.66 622.46 268.26C623.14 268.86 623.5 269.707 623.54 270.8H622.56C622.507 269.92 622.227 269.273 621.72 268.86C621.214 268.433 620.474 268.22 619.5 268.22C618.687 268.22 618.02 268.387 617.5 268.72C616.994 269.053 616.74 269.527 616.74 270.14C616.74 270.567 616.827 270.913 617 271.18C617.187 271.433 617.507 271.647 617.96 271.82C618.427 271.993 619.094 272.147 619.96 272.28C620.947 272.44 621.714 272.653 622.26 272.92C622.82 273.173 623.207 273.487 623.42 273.86C623.647 274.22 623.76 274.68 623.76 275.24C623.76 276.227 623.374 276.973 622.6 277.48C621.84 277.987 620.88 278.24 619.72 278.24Z" fill="white"/>
<g filter="url(#filter1_d_94_118)">
<path fill-rule="evenodd" clip-rule="evenodd" d="M1328.89 270L1033.45 0L738 270L1033.45 540L1328.89 270Z" fill="white"/>
</g>
<g filter="url(#filter2_d_94_118)">
<path fill-rule="evenodd" clip-rule="evenodd" d="M1920 270L1624.55 0L1329.11 270L1624.55 540L1920 270Z" fill="white"/>
</g>
<g filter="url(#filter3_d_94_118)">
<path fill-rule="evenodd" clip-rule="evenodd" d="M1611.72 -1.23582e-05L1329 270L1611.72 540L1894.45 270L1611.72 -1.23582e-05Z" fill="#FF5500" fill-opacity="0.85" shape-rendering="crispEdges"/>
</g>
<path d="M1893.96 270L1611.24 -4.8677e-05L1611.24 540L1893.96 270Z" fill="#FF5500"/>
</g>
<defs>
<filter id="filter0_d_94_118" x="0" y="-148.8" width="845" height="845" filterUnits="userSpaceOnUse" color-interpolation-filters="sRGB">
<feFlood flood-opacity="0" result="BackgroundImageFix"/>
<feColorMatrix in="SourceAlpha" type="matrix" values="0 0 0 0 0 0 0 0 0 0 0 0 0 0 0 0 0 0 127 0" result="hardAlpha"/>
<feOffset dx="4" dy="4"/>
<feGaussianBlur stdDeviation="2"/>
<feComposite in2="hardAlpha" operator="out"/>
<feColorMatrix type="matrix" values="0 0 0 0 0.0941176 0 0 0 0 0.0823529 0 0 0 0 0.101961 0 0 0 0.25 0"/>
<feBlend mode="normal" in2="BackgroundImageFix" result="effect1_dropShadow_94_118"/>
<feBlend mode="normal" in="SourceGraphic" in2="effect1_dropShadow_94_118" result="shape"/>
</filter>
<filter id="filter1_d_94_118" x="738" y="0" width="598.891" height="548" filterUnits="userSpaceOnUse" color-interpolation-filters="sRGB">
<feFlood flood-opacity="0" result="BackgroundImageFix"/>
<feColorMatrix in="SourceAlpha" type="matrix" values="0 0 0 0 0 0 0 0 0 0 0 0 0 0 0 0 0 0 127 0" result="hardAlpha"/>
<feOffset dx="4" dy="4"/>
<feGaussianBlur stdDeviation="2"/>
<feComposite in2="hardAlpha" operator="out"/>
<feColorMatrix type="matrix" values="0 0 0 0 0.0941176 0 0 0 0 0.0823529 0 0 0 0 0.101961 0 0 0 0.25 0"/>
<feBlend mode="normal" in2="BackgroundImageFix" result="effect1_dropShadow_94_118"/>
<feBlend mode="normal" in="SourceGraphic" in2="effect1_dropShadow_94_118" result="shape"/>
</filter>
<filter id="filter2_d_94_118" x="1329.11" y="0" width="598.891" height="548" filterUnits="userSpaceOnUse" color-interpolation-filters="sRGB">
<feFlood flood-opacity="0" result="BackgroundImageFix"/>
<feColorMatrix in="SourceAlpha" type="matrix" values="0 0 0 0 0 0 0 0 0 0 0 0 0 0 0 0 0 0 127 0" result="hardAlpha"/>
<feOffset dx="4" dy="4"/>
<feGaussianBlur stdDeviation="2"/>
<feComposite in2="hardAlpha" operator="out"/>
<feColorMatrix type="matrix" values="0 0 0 0 0.0941176 0 0 0 0 0.0823529 0 0 0 0 0.101961 0 0 0 0.25 0"/>
<feBlend mode="normal" in2="BackgroundImageFix" result="effect1_dropShadow_94_118"/>
<feBlend mode="normal" in="SourceGraphic" in2="effect1_dropShadow_94_118" result="shape"/>
</filter>
<filter id="filter3_d_94_118" x="1329" y="0" width="573.445" height="548" filterUnits="userSpaceOnUse" color-interpolation-filters="sRGB">
<feFlood flood-opacity="0" result="BackgroundImageFix"/>
<feColorMatrix in="SourceAlpha" type="matrix" values="0 0 0 0 0 0 0 0 0 0 0 0 0 0 0 0 0 0 127 0" result="hardAlpha"/>
<feOffset dx="4" dy="4"/>
<feGaussianBlur stdDeviation="2"/>
<feComposite in2="hardAlpha" operator="out"/>
<feColorMatrix type="matrix" values="0 0 0 0 0.0941176 0 0 0 0 0.0823529 0 0 0 0 0.101961 0 0 0 0.25 0"/>
<feBlend mode="normal" in2="BackgroundImageFix" result="effect1_dropShadow_94_118"/>
<feBlend mode="normal" in="SourceGraphic" in2="effect1_dropShadow_94_118" result="shape"/>
</filter>
<clipPath id="clip0_94_118">
<rect width="1920" height="540" fill="white"/>
</clipPath>
</defs>
</svg>
