<svg width="1920" height="540" viewBox="0 0 1920 540" fill="none" xmlns="http://www.w3.org/2000/svg">
<g clip-path="url(#clip0_94_86)">
<rect width="1920" height="540" fill="white"/>
<g filter="url(#filter0_d_94_86)">
<path fill-rule="evenodd" clip-rule="evenodd" d="M418.5 688.2C649.631 688.2 837 500.831 837 269.7C837 38.5688 649.631 -148.8 418.5 -148.8H0V269.7C0 500.831 187.369 688.2 418.5 688.2Z" fill="#FFF6F2"/>
</g>
<path d="M230.528 168.88H275.264V171.76H233.6V200.56H272.384V203.44H233.6V235.12H276.032V238H230.528V168.88ZM285.077 188.08H288.053V198.64C289.397 194.992 291.445 192.144 294.197 190.096C296.949 187.984 300.437 186.928 304.661 186.928C308.629 186.928 312.085 188.08 315.029 190.384C318.037 192.624 320.021 195.824 320.981 199.984C322.197 195.952 324.213 192.784 327.029 190.48C329.909 188.112 333.621 186.928 338.165 186.928C341.365 186.928 344.245 187.664 346.805 189.136C349.429 190.608 351.477 192.784 352.949 195.664C354.421 198.544 355.157 202 355.157 206.032V238H352.085V206.416C352.085 201.04 350.709 196.944 347.957 194.128C345.269 191.248 341.877 189.808 337.781 189.808C332.661 189.808 328.693 191.728 325.877 195.568C323.061 199.408 321.653 204.24 321.653 210.064V238H318.581V206.416C318.581 201.04 317.205 196.944 314.453 194.128C311.765 191.248 308.373 189.808 304.277 189.808C299.157 189.808 295.189 191.728 292.373 195.568C289.557 199.408 288.149 204.24 288.149 210.064V238H285.077V188.08ZM377.38 190.48C380.644 188.112 384.516 186.928 388.996 186.928C393.668 186.928 397.668 188.08 400.996 190.384C404.324 192.688 406.82 195.824 408.484 199.792C410.212 203.76 411.076 208.176 411.076 213.04C411.076 217.904 410.212 222.32 408.484 226.288C406.82 230.256 404.324 233.392 400.996 235.696C397.668 238 393.668 239.152 388.996 239.152C384.58 239.152 380.74 238 377.476 235.696C374.276 233.392 371.844 230.256 370.18 226.288V257.2H367.108V188.08H370.084V200.08C371.748 195.984 374.18 192.784 377.38 190.48ZM399.364 192.976C396.484 190.864 393.028 189.808 388.996 189.808C384.964 189.808 381.508 190.864 378.628 192.976C375.748 195.024 373.572 197.808 372.1 201.328C370.692 204.848 369.988 208.752 369.988 213.04C369.988 217.328 370.692 221.232 372.1 224.752C373.572 228.272 375.748 231.088 378.628 233.2C381.508 235.248 384.964 236.272 388.996 236.272C393.028 236.272 396.484 235.248 399.364 233.2C402.244 231.088 404.388 228.272 405.796 224.752C407.268 221.232 408.004 217.328 408.004 213.04C408.004 208.752 407.268 204.848 405.796 201.328C404.388 197.808 402.244 195.024 399.364 192.976ZM433.687 239.152C428.567 239.152 424.631 237.872 421.879 235.312C419.127 232.688 417.751 229.296 417.751 225.136C417.751 222.448 418.359 220.176 419.575 218.32C420.791 216.4 422.711 214.8 425.335 213.52C427.959 212.176 431.447 211.024 435.799 210.064L453.751 206.032V201.52C453.751 197.552 452.535 194.608 450.103 192.688C447.735 190.768 444.119 189.808 439.255 189.808C434.519 189.808 430.615 190.928 427.543 193.168C424.471 195.344 422.935 198.768 422.935 203.44H419.863C419.863 198.128 421.687 194.064 425.335 191.248C429.047 188.368 433.687 186.928 439.255 186.928C444.951 186.928 449.271 188.176 452.215 190.672C455.223 193.168 456.727 196.656 456.727 201.136V238H453.751V227.248C451.831 231.216 449.111 234.192 445.591 236.176C442.135 238.16 438.167 239.152 433.687 239.152ZM433.783 236.272C437.623 236.272 441.047 235.536 444.055 234.064C447.063 232.528 449.431 230.256 451.159 227.248C452.887 224.24 453.751 220.528 453.751 216.112V208.624L436.183 212.752C430.615 214.096 426.647 215.632 424.279 217.36C421.975 219.088 420.823 221.648 420.823 225.04C420.823 228.368 421.911 231.088 424.087 233.2C426.327 235.248 429.559 236.272 433.783 236.272ZM481.834 238C479.018 238 476.874 237.488 475.402 236.464C473.93 235.44 472.97 234.096 472.522 232.432C472.074 230.768 471.85 228.72 471.85 226.288V190.768H462.25V188.08H471.85V172.72H474.922V188.08H489.898V190.768H474.922V226.288C474.922 229.296 475.37 231.568 476.266 233.104C477.162 234.576 479.018 235.312 481.834 235.312H489.898V238H481.834ZM498.171 168.88H501.243V199.024C502.651 195.312 504.827 192.368 507.771 190.192C510.715 188.016 514.363 186.928 518.715 186.928C522.491 186.928 525.723 187.664 528.411 189.136C531.099 190.608 533.115 192.784 534.459 195.664C535.867 198.48 536.571 201.936 536.571 206.032V238H533.595V206.416C533.595 200.912 532.283 196.784 529.659 194.032C527.035 191.216 523.259 189.808 518.331 189.808C514.875 189.808 511.835 190.736 509.211 192.592C506.651 194.384 504.667 196.816 503.259 199.888C501.915 202.96 501.243 206.352 501.243 210.064V238H498.171V168.88ZM548.515 188.08H551.587V238H548.515V188.08ZM548.515 168.88H551.587V177.904H548.515V168.88ZM581.083 239.152C574.811 239.152 569.915 237.584 566.395 234.448C562.875 231.248 561.019 226.992 560.827 221.68H563.898C564.155 226.352 565.755 230 568.699 232.624C571.707 235.184 575.835 236.464 581.083 236.464C585.819 236.464 589.659 235.536 592.603 233.68C595.611 231.824 597.115 228.976 597.115 225.136C597.115 223.024 596.667 221.296 595.771 219.952C594.939 218.544 593.371 217.36 591.067 216.4C588.763 215.44 585.435 214.64 581.083 214C576.283 213.232 572.539 212.304 569.851 211.216C567.163 210.064 565.243 208.592 564.091 206.8C562.939 205.008 562.363 202.736 562.363 199.984C562.363 195.952 563.995 192.784 567.259 190.48C570.587 188.112 574.875 186.928 580.123 186.928C586.267 186.928 590.875 188.368 593.947 191.248C597.083 194.128 598.779 198.192 599.035 203.44H595.963C595.707 198.896 594.299 195.472 591.739 193.168C589.179 190.8 585.307 189.616 580.123 189.616C575.771 189.616 572.219 190.512 569.467 192.304C566.779 194.096 565.435 196.624 565.435 199.888C565.435 202.192 565.915 204.048 566.875 205.456C567.835 206.864 569.499 208.016 571.867 208.912C574.299 209.808 577.723 210.608 582.139 211.312C586.811 212.016 590.459 212.976 593.083 214.192C595.707 215.408 597.531 216.88 598.555 218.608C599.643 220.336 600.187 222.48 600.187 225.04C600.187 229.776 598.331 233.328 594.619 235.696C590.971 238 586.459 239.152 581.083 239.152ZM629.326 239.152C624.718 239.152 620.75 238 617.422 235.696C614.158 233.392 611.662 230.256 609.934 226.288C608.27 222.32 607.438 217.904 607.438 213.04C607.438 208.176 608.27 203.76 609.934 199.792C611.662 195.824 614.158 192.688 617.422 190.384C620.75 188.08 624.718 186.928 629.326 186.928C633.934 186.928 637.87 188.08 641.134 190.384C644.462 192.688 646.958 195.824 648.622 199.792C650.35 203.76 651.214 208.176 651.214 213.04V213.904H610.51C610.638 218.064 611.438 221.84 612.91 225.232C614.382 228.624 616.494 231.312 619.246 233.296C622.062 235.28 625.422 236.272 629.326 236.272C633.934 236.272 637.806 234.928 640.942 232.24C644.078 229.552 646.254 225.936 647.47 221.392H650.446C649.166 226.832 646.702 231.152 643.054 234.352C639.47 237.552 634.894 239.152 629.326 239.152ZM648.046 211.024C647.726 204.88 645.934 199.824 642.67 195.856C639.406 191.824 634.958 189.808 629.326 189.808C623.694 189.808 619.246 191.824 615.982 195.856C612.718 199.824 610.926 204.88 610.606 211.024H648.046ZM248.48 376.152C244.384 376.152 240.8 375.352 237.728 373.752C234.656 372.088 232.288 369.912 230.624 367.224C229.024 364.472 228.224 361.496 228.224 358.296C228.224 354.84 228.992 351.832 230.528 349.272C232.064 346.648 233.984 344.44 236.288 342.648C238.592 340.792 241.472 338.84 244.928 336.792C242.624 334.232 240.8 332.088 239.456 330.36C238.176 328.568 237.184 326.776 236.48 324.984C235.776 323.128 235.424 321.112 235.424 318.936C235.424 316.248 236.032 313.848 237.248 311.736C238.528 309.56 240.256 307.864 242.432 306.648C244.672 305.368 247.2 304.728 250.016 304.728C252.832 304.728 255.328 305.368 257.504 306.648C259.744 307.864 261.472 309.56 262.688 311.736C263.968 313.848 264.608 316.248 264.608 318.936C264.608 321.752 263.936 324.28 262.592 326.52C261.248 328.696 259.52 330.584 257.408 332.184C255.36 333.784 252.736 335.544 249.536 337.464L269.984 360.312C273.504 354.296 275.264 347.224 275.264 339.096H277.952C277.952 348.184 275.968 355.992 272 362.52L283.136 375H279.104L270.272 365.112C267.648 368.632 264.48 371.352 260.768 373.272C257.056 375.192 252.96 376.152 248.48 376.152ZM248.48 373.272C252.512 373.272 256.192 372.376 259.52 370.584C262.912 368.728 265.824 366.168 268.256 362.904L246.848 339.096C243.52 341.08 240.8 342.904 238.688 344.568C236.576 346.168 234.816 348.12 233.408 350.424C232 352.664 231.296 355.256 231.296 358.2C231.296 360.888 232 363.384 233.408 365.688C234.816 367.992 236.8 369.848 239.36 371.256C241.984 372.6 245.024 373.272 248.48 373.272ZM247.52 335.256C252.128 332.568 255.616 330.04 257.984 327.672C260.352 325.304 261.536 322.392 261.536 318.936C261.536 315.8 260.448 313.112 258.272 310.872C256.16 308.632 253.408 307.512 250.016 307.512C246.624 307.512 243.84 308.632 241.664 310.872C239.552 313.112 238.496 315.8 238.496 318.936C238.496 321.624 239.168 324.088 240.512 326.328C241.856 328.568 244.192 331.544 247.52 335.256ZM314.434 305.88H333.826C341.25 305.88 347.522 307.416 352.642 310.488C357.826 313.56 361.666 317.72 364.162 322.968C366.722 328.152 368.002 333.976 368.002 340.44C368.002 346.904 366.722 352.76 364.162 358.008C361.666 363.192 357.826 367.32 352.642 370.392C347.522 373.464 341.25 375 333.826 375H314.434V305.88ZM333.826 372.12C340.674 372.12 346.402 370.712 351.01 367.896C355.682 365.08 359.138 361.304 361.378 356.568C363.682 351.768 364.834 346.392 364.834 340.44C364.834 334.488 363.682 329.144 361.378 324.408C359.138 319.608 355.682 315.8 351.01 312.984C346.402 310.168 340.674 308.76 333.826 308.76H317.506V372.12H333.826ZM397.764 376.152C393.156 376.152 389.188 375 385.86 372.696C382.596 370.392 380.1 367.256 378.372 363.288C376.708 359.32 375.876 354.904 375.876 350.04C375.876 345.176 376.708 340.76 378.372 336.792C380.1 332.824 382.596 329.688 385.86 327.384C389.188 325.08 393.156 323.928 397.764 323.928C402.372 323.928 406.308 325.08 409.572 327.384C412.9 329.688 415.396 332.824 417.06 336.792C418.788 340.76 419.652 345.176 419.652 350.04V350.904H378.948C379.076 355.064 379.876 358.84 381.348 362.232C382.82 365.624 384.932 368.312 387.684 370.296C390.5 372.28 393.86 373.272 397.764 373.272C402.372 373.272 406.244 371.928 409.38 369.24C412.516 366.552 414.692 362.936 415.908 358.392H418.884C417.604 363.832 415.14 368.152 411.492 371.352C407.908 374.552 403.332 376.152 397.764 376.152ZM416.484 348.024C416.164 341.88 414.372 336.824 411.108 332.856C407.844 328.824 403.396 326.808 397.764 326.808C392.132 326.808 387.684 328.824 384.42 332.856C381.156 336.824 379.364 341.88 379.044 348.024H416.484ZM434.632 327.768H425.032V325.08H434.632V317.592C434.632 315.16 434.856 313.112 435.304 311.448C435.752 309.784 436.712 308.44 438.184 307.416C439.656 306.392 441.8 305.88 444.616 305.88H452.68V308.568H444.616C441.8 308.568 439.944 309.336 439.048 310.872C438.152 312.344 437.704 314.584 437.704 317.592V325.08H452.68V327.768H437.704V375H434.632V327.768ZM460.952 325.08H464.024V375H460.952V325.08ZM460.952 305.88H464.024V314.904H460.952V305.88ZM475.952 325.08H478.928V336.312C480.336 332.472 482.512 329.464 485.456 327.288C488.4 325.048 492.08 323.928 496.496 323.928C500.272 323.928 503.504 324.664 506.192 326.136C508.88 327.608 510.896 329.784 512.24 332.664C513.648 335.48 514.352 338.936 514.352 343.032V375H511.376V343.416C511.376 337.912 510.064 333.784 507.44 331.032C504.816 328.216 501.04 326.808 496.112 326.808C492.656 326.808 489.616 327.736 486.992 329.592C484.432 331.384 482.448 333.816 481.04 336.888C479.696 339.96 479.024 343.352 479.024 347.064V375H475.952V325.08ZM546.264 376.152C541.656 376.152 537.688 375 534.36 372.696C531.096 370.392 528.6 367.256 526.872 363.288C525.208 359.32 524.376 354.904 524.376 350.04C524.376 345.176 525.208 340.76 526.872 336.792C528.6 332.824 531.096 329.688 534.36 327.384C537.688 325.08 541.656 323.928 546.264 323.928C550.872 323.928 554.808 325.08 558.072 327.384C561.4 329.688 563.896 332.824 565.56 336.792C567.288 340.76 568.152 345.176 568.152 350.04V350.904H527.448C527.576 355.064 528.376 358.84 529.848 362.232C531.32 365.624 533.432 368.312 536.184 370.296C539 372.28 542.36 373.272 546.264 373.272C550.872 373.272 554.744 371.928 557.88 369.24C561.016 366.552 563.192 362.936 564.408 358.392H567.384C566.104 363.832 563.64 368.152 559.992 371.352C556.408 374.552 551.832 376.152 546.264 376.152ZM564.984 348.024C564.664 341.88 562.872 336.824 559.608 332.856C556.344 328.824 551.896 326.808 546.264 326.808C540.632 326.808 536.184 328.824 532.92 332.856C529.656 336.824 527.864 341.88 527.544 348.024H564.984Z" fill="#FF5500"/>
<path d="M425.44 278.24C424.32 278.24 423.34 278.067 422.5 277.72C421.673 277.373 421.013 276.833 420.52 276.1C420.027 275.367 419.753 274.42 419.7 273.26H420.74C420.807 274.673 421.26 275.7 422.1 276.34C422.94 276.98 424.053 277.3 425.44 277.3C426.733 277.3 427.747 277.027 428.48 276.48C429.227 275.92 429.6 275.167 429.6 274.22C429.6 273.647 429.48 273.18 429.24 272.82C429.013 272.447 428.573 272.113 427.92 271.82C427.28 271.527 426.34 271.267 425.1 271.04C423.873 270.813 422.907 270.533 422.2 270.2C421.493 269.853 420.98 269.427 420.66 268.92C420.34 268.4 420.18 267.76 420.18 267C420.18 266.28 420.38 265.647 420.78 265.1C421.18 264.553 421.747 264.127 422.48 263.82C423.213 263.513 424.053 263.36 425 263.36C426.68 263.36 427.967 263.78 428.86 264.62C429.767 265.447 430.233 266.56 430.26 267.96H429.22C429.18 266.76 428.793 265.853 428.06 265.24C427.327 264.613 426.307 264.3 425 264.3C423.84 264.3 422.92 264.547 422.24 265.04C421.56 265.533 421.22 266.187 421.22 267C421.22 267.573 421.327 268.047 421.54 268.42C421.767 268.78 422.187 269.1 422.8 269.38C423.427 269.66 424.333 269.913 425.52 270.14C426.907 270.393 427.967 270.713 428.7 271.1C429.447 271.473 429.953 271.907 430.22 272.4C430.5 272.893 430.64 273.5 430.64 274.22C430.64 275.007 430.427 275.707 430 276.32C429.587 276.92 428.987 277.393 428.2 277.74C427.413 278.073 426.493 278.24 425.44 278.24ZM436.726 278.24C435.766 278.24 434.933 278.007 434.226 277.54C433.519 277.06 432.979 276.407 432.606 275.58C432.246 274.753 432.066 273.827 432.066 272.8C432.066 271.773 432.246 270.847 432.606 270.02C432.979 269.193 433.519 268.547 434.226 268.08C434.933 267.6 435.766 267.36 436.726 267.36C437.686 267.36 438.513 267.6 439.206 268.08C439.913 268.547 440.453 269.193 440.826 270.02C441.199 270.847 441.386 271.773 441.386 272.8V273.12H433.086C433.126 273.92 433.286 274.64 433.566 275.28C433.859 275.907 434.273 276.407 434.806 276.78C435.339 277.153 435.979 277.34 436.726 277.34C437.593 277.34 438.326 277.1 438.926 276.62C439.526 276.127 439.953 275.467 440.206 274.64H441.206C440.913 275.747 440.379 276.627 439.606 277.28C438.833 277.92 437.873 278.24 436.726 278.24ZM440.326 272.22C440.246 271.06 439.893 270.113 439.266 269.38C438.639 268.633 437.793 268.26 436.726 268.26C435.659 268.26 434.813 268.633 434.186 269.38C433.559 270.113 433.199 271.06 433.106 272.22H440.326ZM443.424 267.6H444.364V269.84C444.75 268.987 445.264 268.38 445.904 268.02C446.544 267.66 447.244 267.48 448.004 267.48H448.824V268.44H447.924C447.297 268.44 446.717 268.58 446.184 268.86C445.65 269.14 445.217 269.573 444.884 270.16C444.564 270.733 444.404 271.46 444.404 272.34V278H443.424V267.6ZM449.613 267.6H450.673L454.413 276.92L458.173 267.6H459.233L454.913 278H453.913L449.613 267.6ZM460.767 267.6H461.767V278H460.767V267.6ZM460.767 263.6H461.747V265.54H460.767V263.6ZM468.524 278.24C467.538 278.24 466.691 278.007 465.984 277.54C465.278 277.06 464.738 276.407 464.364 275.58C464.004 274.753 463.824 273.827 463.824 272.8C463.824 271.773 464.004 270.847 464.364 270.02C464.738 269.193 465.278 268.547 465.984 268.08C466.691 267.6 467.538 267.36 468.524 267.36C469.644 267.36 470.578 267.693 471.324 268.36C472.084 269.013 472.558 269.887 472.744 270.98H471.744C471.558 270.167 471.178 269.513 470.604 269.02C470.044 268.513 469.351 268.26 468.524 268.26C467.738 268.26 467.064 268.46 466.504 268.86C465.958 269.26 465.544 269.8 465.264 270.48C464.984 271.16 464.844 271.933 464.844 272.8C464.844 273.667 464.984 274.44 465.264 275.12C465.544 275.8 465.958 276.34 466.504 276.74C467.064 277.14 467.738 277.34 468.524 277.34C469.378 277.34 470.091 277.073 470.664 276.54C471.251 276.007 471.624 275.307 471.784 274.44H472.784C472.611 275.56 472.138 276.473 471.364 277.18C470.604 277.887 469.658 278.24 468.524 278.24ZM478.914 278.24C477.954 278.24 477.12 278.007 476.414 277.54C475.707 277.06 475.167 276.407 474.794 275.58C474.434 274.753 474.254 273.827 474.254 272.8C474.254 271.773 474.434 270.847 474.794 270.02C475.167 269.193 475.707 268.547 476.414 268.08C477.12 267.6 477.954 267.36 478.914 267.36C479.874 267.36 480.7 267.6 481.394 268.08C482.1 268.547 482.64 269.193 483.014 270.02C483.387 270.847 483.574 271.773 483.574 272.8V273.12H475.274C475.314 273.92 475.474 274.64 475.754 275.28C476.047 275.907 476.46 276.407 476.994 276.78C477.527 277.153 478.167 277.34 478.914 277.34C479.78 277.34 480.514 277.1 481.114 276.62C481.714 276.127 482.14 275.467 482.394 274.64H483.394C483.1 275.747 482.567 276.627 481.794 277.28C481.02 277.92 480.06 278.24 478.914 278.24ZM482.514 272.22C482.434 271.06 482.08 270.113 481.454 269.38C480.827 268.633 479.98 268.26 478.914 268.26C477.847 268.26 477 268.633 476.374 269.38C475.747 270.113 475.387 271.06 475.294 272.22H482.514ZM490.223 263.6H494.503C496.037 263.6 497.337 263.92 498.403 264.56C499.483 265.2 500.283 266.06 500.803 267.14C501.337 268.22 501.603 269.44 501.603 270.8C501.603 272.16 501.337 273.38 500.803 274.46C500.283 275.54 499.483 276.4 498.403 277.04C497.337 277.68 496.037 278 494.503 278H490.223V263.6ZM494.503 277.06C495.837 277.06 496.957 276.787 497.863 276.24C498.77 275.693 499.443 274.947 499.883 274C500.323 273.053 500.543 271.987 500.543 270.8C500.543 269.613 500.323 268.547 499.883 267.6C499.443 266.653 498.77 265.907 497.863 265.36C496.957 264.813 495.837 264.54 494.503 264.54H491.243V277.06H494.503ZM507.859 278.24C506.899 278.24 506.066 278.007 505.359 277.54C504.652 277.06 504.112 276.407 503.739 275.58C503.379 274.753 503.199 273.827 503.199 272.8C503.199 271.773 503.379 270.847 503.739 270.02C504.112 269.193 504.652 268.547 505.359 268.08C506.066 267.6 506.899 267.36 507.859 267.36C508.819 267.36 509.646 267.6 510.339 268.08C511.046 268.547 511.586 269.193 511.959 270.02C512.332 270.847 512.519 271.773 512.519 272.8V273.12H504.219C504.259 273.92 504.419 274.64 504.699 275.28C504.992 275.907 505.406 276.407 505.939 276.78C506.472 277.153 507.112 277.34 507.859 277.34C508.726 277.34 509.459 277.1 510.059 276.62C510.659 276.127 511.086 275.467 511.339 274.64H512.339C512.046 275.747 511.512 276.627 510.739 277.28C509.966 277.92 509.006 278.24 507.859 278.24ZM511.459 272.22C511.379 271.06 511.026 270.113 510.399 269.38C509.772 268.633 508.926 268.26 507.859 268.26C506.792 268.26 505.946 268.633 505.319 269.38C504.692 270.113 504.332 271.06 504.239 272.22H511.459ZM518.216 278.24C516.91 278.24 515.876 277.92 515.116 277.28C514.37 276.64 513.976 275.747 513.936 274.6H514.916C514.983 275.507 515.296 276.2 515.856 276.68C516.416 277.147 517.203 277.38 518.216 277.38C519.136 277.38 519.876 277.207 520.436 276.86C520.996 276.513 521.276 275.987 521.276 275.28C521.276 274.88 521.196 274.553 521.036 274.3C520.876 274.047 520.57 273.827 520.116 273.64C519.676 273.453 519.03 273.3 518.176 273.18C517.163 273.007 516.37 272.8 515.796 272.56C515.236 272.307 514.836 271.987 514.596 271.6C514.37 271.213 514.256 270.733 514.256 270.16C514.256 269.307 514.603 268.627 515.296 268.12C515.99 267.613 516.89 267.36 517.996 267.36C519.29 267.36 520.276 267.66 520.956 268.26C521.636 268.86 521.996 269.707 522.036 270.8H521.056C521.003 269.92 520.723 269.273 520.216 268.86C519.71 268.433 518.97 268.22 517.996 268.22C517.183 268.22 516.516 268.387 515.996 268.72C515.49 269.053 515.236 269.527 515.236 270.14C515.236 270.567 515.323 270.913 515.496 271.18C515.683 271.433 516.003 271.647 516.456 271.82C516.923 271.993 517.59 272.147 518.456 272.28C519.443 272.44 520.21 272.653 520.756 272.92C521.316 273.173 521.703 273.487 521.916 273.86C522.143 274.22 522.256 274.68 522.256 275.24C522.256 276.227 521.87 276.973 521.096 277.48C520.336 277.987 519.376 278.24 518.216 278.24ZM524.087 267.6H525.087V278H524.087V267.6ZM524.087 263.6H525.067V265.54H524.087V263.6ZM532.065 282.24C530.745 282.24 529.725 281.953 529.005 281.38C528.285 280.82 527.865 280.033 527.745 279.02H528.725C528.845 279.807 529.178 280.393 529.725 280.78C530.271 281.167 531.051 281.36 532.065 281.36C533.185 281.36 534.045 281.06 534.645 280.46C535.258 279.86 535.565 278.967 535.565 277.78V275.84C535.218 276.587 534.718 277.173 534.065 277.6C533.425 278.027 532.671 278.24 531.805 278.24C530.818 278.24 529.971 278.007 529.265 277.54C528.558 277.06 528.025 276.407 527.665 275.58C527.305 274.753 527.125 273.827 527.125 272.8C527.125 271.773 527.305 270.847 527.665 270.02C528.025 269.193 528.558 268.547 529.265 268.08C529.971 267.6 530.818 267.36 531.805 267.36C532.698 267.36 533.465 267.58 534.105 268.02C534.745 268.46 535.245 269.06 535.605 269.82V267.6H536.565V277.78C536.565 278.687 536.385 279.473 536.025 280.14C535.678 280.807 535.165 281.32 534.485 281.68C533.818 282.053 533.011 282.24 532.065 282.24ZM531.865 277.34C532.665 277.34 533.345 277.14 533.905 276.74C534.465 276.34 534.885 275.8 535.165 275.12C535.458 274.427 535.605 273.653 535.605 272.8C535.605 271.947 535.458 271.18 535.165 270.5C534.885 269.807 534.465 269.26 533.905 268.86C533.345 268.46 532.665 268.26 531.865 268.26C531.065 268.26 530.385 268.46 529.825 268.86C529.265 269.26 528.838 269.807 528.545 270.5C528.265 271.18 528.125 271.947 528.125 272.8C528.125 273.653 528.265 274.427 528.545 275.12C528.838 275.8 529.265 276.34 529.825 276.74C530.385 277.14 531.065 277.34 531.865 277.34ZM539.029 267.6H539.969V269.66C540.289 268.953 540.749 268.393 541.349 267.98C541.949 267.567 542.676 267.36 543.529 267.36C544.329 267.36 545.009 267.527 545.569 267.86C546.129 268.18 546.549 268.633 546.829 269.22C547.109 269.807 547.249 270.493 547.249 271.28V278H546.269V271.38C546.269 270.367 546.022 269.593 545.529 269.06C545.036 268.527 544.316 268.26 543.369 268.26C542.769 268.26 542.216 268.413 541.709 268.72C541.202 269.027 540.789 269.48 540.469 270.08C540.162 270.667 540.009 271.367 540.009 272.18V278H539.029V267.6ZM554.344 263.6H559.884C560.898 263.6 561.758 263.787 562.464 264.16C563.171 264.52 563.704 265.02 564.064 265.66C564.424 266.287 564.604 267.007 564.604 267.82C564.604 268.633 564.424 269.36 564.064 270C563.704 270.627 563.171 271.127 562.464 271.5C561.758 271.86 560.898 272.04 559.884 272.04H555.364V278H554.344V263.6ZM559.884 271.1C561.058 271.1 561.964 270.8 562.604 270.2C563.244 269.587 563.564 268.793 563.564 267.82C563.564 266.847 563.244 266.06 562.604 265.46C561.964 264.847 561.058 264.54 559.884 264.54H555.364V271.1H559.884ZM566.861 267.6H567.801V269.84C568.188 268.987 568.701 268.38 569.341 268.02C569.981 267.66 570.681 267.48 571.441 267.48H572.261V268.44H571.361C570.734 268.44 570.154 268.58 569.621 268.86C569.088 269.14 568.654 269.573 568.321 270.16C568.001 270.733 567.841 271.46 567.841 272.34V278H566.861V267.6ZM578.31 278.24C577.31 278.24 576.45 278.007 575.73 277.54C575.01 277.06 574.464 276.407 574.09 275.58C573.73 274.753 573.55 273.827 573.55 272.8C573.55 271.773 573.73 270.847 574.09 270.02C574.464 269.193 575.01 268.547 575.73 268.08C576.45 267.6 577.31 267.36 578.31 267.36C579.297 267.36 580.15 267.6 580.87 268.08C581.59 268.547 582.137 269.193 582.51 270.02C582.884 270.847 583.07 271.773 583.07 272.8C583.07 273.827 582.884 274.753 582.51 275.58C582.137 276.407 581.59 277.06 580.87 277.54C580.15 278.007 579.297 278.24 578.31 278.24ZM578.31 277.34C579.11 277.34 579.79 277.14 580.35 276.74C580.924 276.34 581.35 275.8 581.63 275.12C581.91 274.44 582.05 273.667 582.05 272.8C582.05 271.933 581.91 271.16 581.63 270.48C581.35 269.8 580.924 269.26 580.35 268.86C579.79 268.46 579.11 268.26 578.31 268.26C577.497 268.26 576.81 268.46 576.25 268.86C575.69 269.26 575.264 269.8 574.97 270.48C574.69 271.16 574.55 271.933 574.55 272.8C574.55 273.667 574.69 274.44 574.97 275.12C575.264 275.8 575.69 276.34 576.25 276.74C576.81 277.14 577.497 277.34 578.31 277.34ZM589.423 278.24C588.436 278.24 587.589 278.007 586.883 277.54C586.176 277.06 585.636 276.407 585.263 275.58C584.903 274.753 584.723 273.827 584.723 272.8C584.723 271.773 584.903 270.847 585.263 270.02C585.636 269.193 586.176 268.547 586.883 268.08C587.589 267.6 588.436 267.36 589.423 267.36C590.543 267.36 591.476 267.693 592.223 268.36C592.983 269.013 593.456 269.887 593.643 270.98H592.643C592.456 270.167 592.076 269.513 591.503 269.02C590.943 268.513 590.249 268.26 589.423 268.26C588.636 268.26 587.963 268.46 587.403 268.86C586.856 269.26 586.443 269.8 586.163 270.48C585.883 271.16 585.743 271.933 585.743 272.8C585.743 273.667 585.883 274.44 586.163 275.12C586.443 275.8 586.856 276.34 587.403 276.74C587.963 277.14 588.636 277.34 589.423 277.34C590.276 277.34 590.989 277.073 591.563 276.54C592.149 276.007 592.523 275.307 592.683 274.44H593.683C593.509 275.56 593.036 276.473 592.263 277.18C591.503 277.887 590.556 278.24 589.423 278.24ZM599.812 278.24C598.852 278.24 598.019 278.007 597.312 277.54C596.605 277.06 596.065 276.407 595.692 275.58C595.332 274.753 595.152 273.827 595.152 272.8C595.152 271.773 595.332 270.847 595.692 270.02C596.065 269.193 596.605 268.547 597.312 268.08C598.019 267.6 598.852 267.36 599.812 267.36C600.772 267.36 601.599 267.6 602.292 268.08C602.999 268.547 603.539 269.193 603.912 270.02C604.285 270.847 604.472 271.773 604.472 272.8V273.12H596.172C596.212 273.92 596.372 274.64 596.652 275.28C596.945 275.907 597.359 276.407 597.892 276.78C598.425 277.153 599.065 277.34 599.812 277.34C600.679 277.34 601.412 277.1 602.012 276.62C602.612 276.127 603.039 275.467 603.292 274.64H604.292C603.999 275.747 603.465 276.627 602.692 277.28C601.919 277.92 600.959 278.24 599.812 278.24ZM603.412 272.22C603.332 271.06 602.979 270.113 602.352 269.38C601.725 268.633 600.879 268.26 599.812 268.26C598.745 268.26 597.899 268.633 597.272 269.38C596.645 270.113 596.285 271.06 596.192 272.22H603.412ZM610.17 278.24C608.863 278.24 607.83 277.92 607.07 277.28C606.323 276.64 605.93 275.747 605.89 274.6H606.87C606.936 275.507 607.25 276.2 607.81 276.68C608.37 277.147 609.156 277.38 610.17 277.38C611.09 277.38 611.83 277.207 612.39 276.86C612.95 276.513 613.23 275.987 613.23 275.28C613.23 274.88 613.15 274.553 612.99 274.3C612.83 274.047 612.523 273.827 612.07 273.64C611.63 273.453 610.983 273.3 610.13 273.18C609.116 273.007 608.323 272.8 607.75 272.56C607.19 272.307 606.79 271.987 606.55 271.6C606.323 271.213 606.21 270.733 606.21 270.16C606.21 269.307 606.556 268.627 607.25 268.12C607.943 267.613 608.843 267.36 609.95 267.36C611.243 267.36 612.23 267.66 612.91 268.26C613.59 268.86 613.95 269.707 613.99 270.8H613.01C612.956 269.92 612.676 269.273 612.17 268.86C611.663 268.433 610.923 268.22 609.95 268.22C609.136 268.22 608.47 268.387 607.95 268.72C607.443 269.053 607.19 269.527 607.19 270.14C607.19 270.567 607.276 270.913 607.45 271.18C607.636 271.433 607.956 271.647 608.41 271.82C608.876 271.993 609.543 272.147 610.41 272.28C611.396 272.44 612.163 272.653 612.71 272.92C613.27 273.173 613.656 273.487 613.87 273.86C614.096 274.22 614.21 274.68 614.21 275.24C614.21 276.227 613.823 276.973 613.05 277.48C612.29 277.987 611.33 278.24 610.17 278.24ZM619.72 278.24C618.414 278.24 617.38 277.92 616.62 277.28C615.874 276.64 615.48 275.747 615.44 274.6H616.42C616.487 275.507 616.8 276.2 617.36 276.68C617.92 277.147 618.707 277.38 619.72 277.38C620.64 277.38 621.38 277.207 621.94 276.86C622.5 276.513 622.78 275.987 622.78 275.28C622.78 274.88 622.7 274.553 622.54 274.3C622.38 274.047 622.074 273.827 621.62 273.64C621.18 273.453 620.534 273.3 619.68 273.18C618.667 273.007 617.874 272.8 617.3 272.56C616.74 272.307 616.34 271.987 616.1 271.6C615.874 271.213 615.76 270.733 615.76 270.16C615.76 269.307 616.107 268.627 616.8 268.12C617.494 267.613 618.394 267.36 619.5 267.36C620.794 267.36 621.78 267.66 622.46 268.26C623.14 268.86 623.5 269.707 623.54 270.8H622.56C622.507 269.92 622.227 269.273 621.72 268.86C621.214 268.433 620.474 268.22 619.5 268.22C618.687 268.22 618.02 268.387 617.5 268.72C616.994 269.053 616.74 269.527 616.74 270.14C616.74 270.567 616.827 270.913 617 271.18C617.187 271.433 617.507 271.647 617.96 271.82C618.427 271.993 619.094 272.147 619.96 272.28C620.947 272.44 621.714 272.653 622.26 272.92C622.82 273.173 623.207 273.487 623.42 273.86C623.647 274.22 623.76 274.68 623.76 275.24C623.76 276.227 623.374 276.973 622.6 277.48C621.84 277.987 620.88 278.24 619.72 278.24Z" fill="#FF5500"/>
<g filter="url(#filter1_d_94_86)">
<path fill-rule="evenodd" clip-rule="evenodd" d="M1328.89 270L1033.45 0L738 270L1033.45 540L1328.89 270Z" fill="white"/>
</g>
<g filter="url(#filter2_d_94_86)">
<path fill-rule="evenodd" clip-rule="evenodd" d="M1920 270L1624.55 0L1329.11 270L1624.55 540L1920 270Z" fill="white"/>
</g>
<g filter="url(#filter3_d_94_86)">
<path fill-rule="evenodd" clip-rule="evenodd" d="M1020.72 -1.23582e-05L738 270L1020.72 540L1303.45 270L1020.72 -1.23582e-05Z" fill="#FFF6F2"/>
</g>
<path d="M1303.45 270L1020.72 -4.8677e-05L1020.72 540L1303.45 270Z" fill="#FFEDE6"/>
</g>
<defs>
<filter id="filter0_d_94_86" x="0" y="-148.8" width="845" height="845" filterUnits="userSpaceOnUse" color-interpolation-filters="sRGB">
<feFlood flood-opacity="0" result="BackgroundImageFix"/>
<feColorMatrix in="SourceAlpha" type="matrix" values="0 0 0 0 0 0 0 0 0 0 0 0 0 0 0 0 0 0 127 0" result="hardAlpha"/>
<feOffset dx="4" dy="4"/>
<feGaussianBlur stdDeviation="2"/>
<feComposite in2="hardAlpha" operator="out"/>
<feColorMatrix type="matrix" values="0 0 0 0 0.0941176 0 0 0 0 0.0823529 0 0 0 0 0.101961 0 0 0 0.25 0"/>
<feBlend mode="normal" in2="BackgroundImageFix" result="effect1_dropShadow_94_86"/>
<feBlend mode="normal" in="SourceGraphic" in2="effect1_dropShadow_94_86" result="shape"/>
</filter>
<filter id="filter1_d_94_86" x="738" y="0" width="598.891" height="548" filterUnits="userSpaceOnUse" color-interpolation-filters="sRGB">
<feFlood flood-opacity="0" result="BackgroundImageFix"/>
<feColorMatrix in="SourceAlpha" type="matrix" values="0 0 0 0 0 0 0 0 0 0 0 0 0 0 0 0 0 0 127 0" result="hardAlpha"/>
<feOffset dx="4" dy="4"/>
<feGaussianBlur stdDeviation="2"/>
<feComposite in2="hardAlpha" operator="out"/>
<feColorMatrix type="matrix" values="0 0 0 0 0.0941176 0 0 0 0 0.0823529 0 0 0 0 0.101961 0 0 0 0.25 0"/>
<feBlend mode="normal" in2="BackgroundImageFix" result="effect1_dropShadow_94_86"/>
<feBlend mode="normal" in="SourceGraphic" in2="effect1_dropShadow_94_86" result="shape"/>
</filter>
<filter id="filter2_d_94_86" x="1329.11" y="0" width="598.891" height="548" filterUnits="userSpaceOnUse" color-interpolation-filters="sRGB">
<feFlood flood-opacity="0" result="BackgroundImageFix"/>
<feColorMatrix in="SourceAlpha" type="matrix" values="0 0 0 0 0 0 0 0 0 0 0 0 0 0 0 0 0 0 127 0" result="hardAlpha"/>
<feOffset dx="4" dy="4"/>
<feGaussianBlur stdDeviation="2"/>
<feComposite in2="hardAlpha" operator="out"/>
<feColorMatrix type="matrix" values="0 0 0 0 0.0941176 0 0 0 0 0.0823529 0 0 0 0 0.101961 0 0 0 0.25 0"/>
<feBlend mode="normal" in2="BackgroundImageFix" result="effect1_dropShadow_94_86"/>
<feBlend mode="normal" in="SourceGraphic" in2="effect1_dropShadow_94_86" result="shape"/>
</filter>
<filter id="filter3_d_94_86" x="738" y="0" width="573.445" height="548" filterUnits="userSpaceOnUse" color-interpolation-filters="sRGB">
<feFlood flood-opacity="0" result="BackgroundImageFix"/>
<feColorMatrix in="SourceAlpha" type="matrix" values="0 0 0 0 0 0 0 0 0 0 0 0 0 0 0 0 0 0 127 0" result="hardAlpha"/>
<feOffset dx="4" dy="4"/>
<feGaussianBlur stdDeviation="2"/>
<feComposite in2="hardAlpha" operator="out"/>
<feColorMatrix type="matrix" values="0 0 0 0 0.0941176 0 0 0 0 0.0823529 0 0 0 0 0.101961 0 0 0 0.25 0"/>
<feBlend mode="normal" in2="BackgroundImageFix" result="effect1_dropShadow_94_86"/>
<feBlend mode="normal" in="SourceGraphic" in2="effect1_dropShadow_94_86" result="shape"/>
</filter>
<clipPath id="clip0_94_86">
<rect width="1920" height="540" fill="white"/>
</clipPath>
</defs>
</svg>
